<svg width="20" height="28" viewBox="0 0 20 28" fill="none" xmlns="http://www.w3.org/2000/svg">
<path fill-rule="evenodd" clip-rule="evenodd" d="M14.9987 2.79426C11.4973 0.054266 6.29594 0.565127 3.34952 3.5595C0.314215 6.64393 0.00282556 12.6406 3.69952 15.5806C5.8366 17.2803 9.46077 18.2565 12.1704 17.46C17.2217 15.9756 19.8567 9.80769 17.0311 4.99318" fill="white"/>
<path d="M14.9987 2.79426C11.4973 0.0542661 6.29594 0.565127 3.34952 3.5595C0.314215 6.64393 0.00282553 12.6406 3.69952 15.5806C5.8366 17.2803 9.46077 18.2565 12.1704 17.46C17.2217 15.9756 19.8567 9.80769 17.0311 4.99318" stroke="#D9D9D9" stroke-width="2" stroke-miterlimit="1.5" stroke-linecap="round" stroke-linejoin="round"/>
<path fill-rule="evenodd" clip-rule="evenodd" d="M13.5836 16.8963C12.7461 17.3479 11.7856 17.5695 11.3504 17.6434C11.7662 19.3217 12.5099 21.3481 13.1657 22.9428C13.575 23.9387 14.0823 24.8484 14.5393 25.8232C14.9007 26.5946 15.9823 27.5849 16.7042 26.5636C17.2568 25.7821 16.7796 24.5907 16.5082 23.7925C15.7591 21.5867 14.4534 19.046 13.5836 16.8963Z" stroke="#D9D9D9" stroke-width="2" stroke-miterlimit="1.5" stroke-linecap="round" stroke-linejoin="round"/>
<path d="M10.2208 4.95755C10.7382 4.95369 11.2877 5.07065 11.7796 5.30028C12.3302 5.55727 12.8089 5.95538 13.0901 6.48318" stroke="#D9D9D9" stroke-width="2" stroke-miterlimit="1.5" stroke-linecap="round" stroke-linejoin="round"/>
</svg>