<?xml version="1.0" standalone="no"?>
<!DOCTYPE svg PUBLIC "-//W3C//DTD SVG 20010904//EN"
 "http://www.w3.org/TR/2001/REC-SVG-20010904/DTD/svg10.dtd">
<svg version="1.0" xmlns="http://www.w3.org/2000/svg"
 width="274.000000pt" height="129.000000pt" viewBox="0 0 274.000000 129.000000"
 preserveAspectRatio="xMidYMid meet">

<g transform="translate(0.000000,129.000000) scale(0.100000,-0.100000)"
fill="#000000" stroke="none">
<path d="M281 1203 c-130 -66 -201 -132 -239 -226 -42 -99 -47 -134 -27 -182
36 -87 89 -195 96 -195 4 0 33 32 64 72 57 74 64 79 188 123 102 37 73 17 -36
-25 l-92 -35 -87 -115 c-48 -63 -96 -131 -107 -150 l-20 -36 43 -101 c52 -121
127 -238 158 -247 42 -11 338 -7 361 5 11 7 76 54 143 105 139 106 182 128
236 119 21 -4 38 -10 38 -14 0 -11 -51 -81 -116 -162 -30 -36 -54 -69 -54 -73
0 -4 19 7 42 25 53 42 124 140 139 190 12 37 47 72 79 76 8 1 24 5 35 8 17 5
26 -6 62 -82 44 -92 95 -163 118 -163 9 0 5 10 -11 27 -24 26 -81 136 -118
226 -9 23 -22 37 -33 37 -10 0 -24 9 -31 20 -10 17 -10 21 3 26 19 8 19 25 -2
69 -16 34 -40 47 -74 42 -10 -1 -76 64 -170 168 -278 309 -472 515 -483 515
-6 0 -54 -21 -105 -47z m239 -123 l42 -50 -43 0 c-27 0 -57 -9 -84 -25 l-42
-24 -42 36 -42 35 37 26 c31 21 99 49 126 51 3 1 25 -21 48 -49z m-10 -197
c44 -36 80 -69 80 -73 0 -4 -6 -22 -13 -39 l-13 -31 -81 60 -81 60 9 38 c5 20
9 40 9 45 0 14 11 7 90 -60z m259 -93 c0 -3 -18 -17 -39 -32 -35 -25 -40 -32
-40 -68 0 -46 -7 -45 -68 7 l-34 28 17 35 c9 20 37 49 63 66 l47 31 27 -31
c15 -17 27 -33 27 -36z m-379 41 c0 -7 -129 -61 -145 -61 -5 0 -35 56 -35 65
0 3 40 5 90 5 50 0 90 -4 90 -9z m390 -271 c144 -103 192 -140 135 -105 -74
45 -475 341 -475 351 0 2 44 -28 98 -69 53 -40 162 -120 242 -177z m95 115
l47 -55 -22 -55 c-15 -37 -26 -52 -34 -47 -72 43 -96 68 -96 101 0 32 36 111
51 111 4 0 29 -25 54 -55z m-471 -147 c39 -34 73 -63 75 -65 2 -1 -2 -9 -9
-18 -10 -12 -37 -15 -130 -15 l-118 0 10 43 c9 40 69 117 91 117 5 0 41 -28
81 -62z m385 -164 l41 -66 -22 -18 c-57 -47 -55 -47 -183 40 -66 44 -123 87
-128 95 -7 13 10 15 121 15 l130 0 41 -66z m-186 -72 l118 -79 -39 -26 c-21
-15 -43 -27 -48 -27 -6 0 -23 14 -39 30 -29 30 -29 30 -143 30 l-113 0 68 75
c37 41 70 75 73 75 3 0 58 -35 123 -78z"/>
<path d="M1413 600 c-11 -25 -28 -66 -38 -92 -10 -27 -22 -48 -26 -48 -5 0 -9
-4 -9 -9 0 -4 12 -6 26 -3 14 2 21 7 16 11 -6 3 -6 15 -1 29 6 17 16 22 43 22
27 0 35 -5 40 -22 3 -13 1 -24 -4 -26 -27 -10 -3 -17 55 -17 40 0 61 3 55 10
-14 13 -12 92 2 101 6 4 14 2 16 -4 5 -17 22 -15 22 3 0 14 -14 20 -35 15 -5
-2 -23 -2 -40 -1 -23 1 -27 -1 -17 -11 16 -16 16 -101 0 -96 -7 3 -25 36 -40
74 -49 120 -43 115 -65 64z m37 -76 c0 -2 -11 -4 -25 -4 -28 0 -30 6 -14 47
l11 28 14 -34 c8 -18 14 -35 14 -37z"/>
<path d="M1755 630 c-11 -5 -14 -9 -7 -9 10 -1 13 -21 10 -86 -3 -80 -2 -85
17 -85 18 0 20 5 17 43 -4 51 17 79 43 57 17 -14 20 -81 4 -97 -7 -7 -4 -9 13
-6 21 4 23 8 20 59 -4 61 -26 84 -62 64 -18 -10 -20 -8 -20 30 0 42 -2 44 -35
30z"/>
<path d="M2430 630 c-21 -5 -22 -7 -7 -13 24 -9 23 -50 -1 -42 -31 9 -72 -31
-72 -70 0 -44 37 -73 69 -55 12 6 21 7 21 1 0 -5 9 -7 20 -4 14 4 17 9 11 17
-6 7 -11 48 -13 92 -3 80 -3 80 -28 74z m5 -120 c0 -41 -2 -45 -25 -45 -21 0
-26 5 -28 33 -5 47 4 64 30 60 20 -3 23 -9 23 -48z"/>
<path d="M1922 618 c6 -18 28 -21 28 -4 0 9 -7 16 -16 16 -9 0 -14 -5 -12 -12z"/>
<path d="M1662 570 c-50 -20 -54 -102 -6 -120 26 -10 74 -4 74 10 0 4 -11 5
-23 3 -47 -9 -76 56 -42 91 16 16 46 12 42 -6 -1 -6 4 -13 11 -15 20 -8 14 25
-7 37 -22 11 -19 11 -49 0z"/>
<path d="M2180 572 c-29 -9 -50 -35 -50 -62 0 -34 18 -57 52 -65 21 -5 33 -1
52 19 29 29 33 52 11 83 -16 22 -41 32 -65 25z m44 -28 c17 -45 -8 -100 -39
-87 -19 7 -29 45 -21 78 7 29 50 35 60 9z"/>
<path d="M2525 556 c-27 -27 -32 -63 -12 -89 18 -24 59 -30 82 -13 19 13 18
14 -9 9 -21 -4 -33 -1 -43 12 -23 33 -16 45 27 45 39 0 49 11 32 36 -17 26
-51 26 -77 0z m63 -13 c2 -9 -7 -13 -27 -13 -30 0 -39 9 -24 24 11 10 46 3 51
-11z"/>
<path d="M1920 551 c13 -26 13 -74 -1 -88 -7 -7 -2 -12 21 -15 21 -3 27 -1 20
6 -5 5 -10 34 -10 63 0 47 -2 53 -20 53 -17 0 -19 -3 -10 -19z"/>
<path d="M1990 555 c7 -9 24 -39 38 -68 l24 -52 24 54 c13 30 29 60 35 68 9
10 6 13 -17 13 -20 0 -25 -3 -16 -9 11 -7 10 -15 -3 -47 l-17 -39 -15 39 c-14
32 -14 39 -2 47 10 6 2 9 -25 9 -33 0 -37 -2 -26 -15z"/>
<path d="M1345 360 l0 -60 38 0 c20 0 37 4 37 9 0 4 -12 6 -26 3 -26 -5 -26
-4 -23 52 3 45 1 56 -11 56 -12 0 -15 -13 -15 -60z"/>
<path d="M1975 384 c27 -40 32 -70 13 -77 -7 -3 -1 -6 13 -6 23 -1 26 2 21 24
-2 14 4 39 17 60 15 26 17 35 7 35 -7 0 -17 -15 -20 -32 -7 -32 -8 -32 -22
-13 -8 11 -12 25 -10 32 4 8 -3 13 -19 13 l-24 0 24 -36z"/>
<path d="M1444 366 c-14 -37 23 -83 47 -59 8 8 6 11 -7 10 -15 -2 -19 5 -19
31 0 33 -11 43 -21 18z"/>
<path d="M1486 365 c4 -8 10 -15 15 -15 4 0 6 7 3 15 -4 8 -10 15 -15 15 -4 0
-6 -7 -3 -15z"/>
<path d="M1525 338 c0 -21 5 -38 10 -38 6 0 10 15 10 33 0 22 5 32 15 32 10 0
15 -10 15 -32 0 -18 4 -33 10 -33 6 0 9 17 7 40 -4 37 -6 39 -36 38 -29 -1
-31 -3 -31 -40z"/>
<path d="M1626 368 c-11 -35 -13 -97 -3 -107 16 -16 43 -14 61 4 21 21 9 45
-23 46 -26 0 -26 0 -3 11 12 6 22 19 22 29 0 9 6 20 13 22 6 3 2 6 -11 6 -13
1 -22 -4 -21 -11 3 -25 -1 -38 -12 -38 -7 0 -9 10 -7 25 5 25 -9 36 -16 13z
m49 -88 c0 -22 -39 -19 -43 3 -3 15 1 18 20 15 12 -2 23 -10 23 -18z"/>
<path d="M1719 343 c6 -35 9 -38 41 -40 l35 -2 -3 40 c-5 46 -27 53 -27 7 0
-17 -6 -33 -12 -35 -9 -3 -13 7 -13 31 0 23 -5 36 -13 36 -10 0 -12 -10 -8
-37z"/>
<path d="M1815 370 c-3 -5 -1 -10 4 -10 6 0 11 5 11 10 0 6 -2 10 -4 10 -3 0
-8 -4 -11 -10z"/>
<path d="M1846 367 c3 -10 -2 -18 -16 -22 -22 -7 -24 -35 -3 -42 7 -3 9 3 6
16 -3 12 -1 21 5 21 5 0 12 -9 15 -20 3 -11 9 -20 14 -20 14 0 0 73 -15 78 -7
2 -10 -2 -6 -11z"/>
<path d="M1894 368 c-4 -7 2 -18 14 -26 28 -18 29 -36 2 -29 -11 3 -18 1 -14
-4 8 -13 30 -11 42 4 13 15 4 31 -21 40 -10 4 -15 11 -12 17 3 5 4 10 1 10 -3
0 -8 -5 -12 -12z"/>
<path d="M1925 370 c3 -5 8 -10 11 -10 2 0 4 5 4 10 0 6 -5 10 -11 10 -5 0 -7
-4 -4 -10z"/>
<path d="M2050 359 c0 -37 18 -58 50 -57 23 1 29 5 25 15 -3 8 -5 26 -5 39 0
13 -4 24 -9 24 -5 0 -8 -15 -7 -32 1 -23 -3 -33 -14 -33 -10 0 -16 12 -18 33
-4 35 -22 45 -22 11z"/>
<path d="M2155 339 c0 -22 4 -39 10 -39 6 0 10 15 10 33 0 22 5 32 15 32 10 0
15 -10 15 -32 0 -18 4 -33 10 -33 6 0 10 15 10 32 0 24 5 34 19 36 16 3 18 -1
14 -32 -3 -25 0 -36 9 -36 14 0 18 47 5 67 -4 6 -31 11 -62 11 l-55 -1 0 -38z"/>
<path d="M2305 369 c-4 -6 -5 -12 -2 -15 2 -3 7 2 10 11 7 17 1 20 -8 4z"/>
<path d="M2336 367 c3 -10 -2 -18 -16 -22 -31 -10 -21 -40 13 -40 26 -1 28 2
25 34 -2 19 -9 36 -16 39 -7 2 -10 -2 -6 -11z m4 -35 c0 -13 -12 -22 -22 -16
-10 6 -1 24 13 24 5 0 9 -4 9 -8z"/>
<path d="M2385 340 c0 -23 5 -40 11 -40 7 0 11 14 10 32 -1 24 4 33 18 36 16
3 18 -1 14 -32 -3 -26 0 -36 10 -36 9 0 12 6 8 16 -3 9 -6 27 -6 40 0 20 -5
24 -32 24 -32 0 -33 -2 -33 -40z"/>
<path d="M2485 369 c-4 -6 -5 -12 -2 -15 2 -3 7 2 10 11 7 17 1 20 -8 4z"/>
<path d="M2516 366 c3 -9 -3 -17 -16 -21 -24 -7 -24 -35 0 -43 12 -4 13 -3 3
10 -7 8 -10 18 -6 21 12 12 21 7 28 -15 7 -22 8 -22 12 5 5 33 -2 57 -16 57
-6 0 -8 -6 -5 -14z"/>
<path d="M2560 365 c0 -8 9 -19 20 -25 11 -6 20 -16 20 -22 0 -5 -9 -8 -20 -5
-11 3 -20 1 -20 -4 0 -5 9 -9 20 -9 29 0 38 30 14 47 -10 8 -18 19 -16 24 1 5
-2 9 -8 9 -5 0 -10 -7 -10 -15z"/>
<path d="M2595 370 c3 -5 8 -10 11 -10 2 0 4 5 4 10 0 6 -5 10 -11 10 -5 0 -7
-4 -4 -10z"/>
</g>
</svg>
