<svg width="202" height="312" viewBox="0 0 202 312" fill="none" xmlns="http://www.w3.org/2000/svg">
<path d="M26.8789 256.969C26.931 256.76 26.9831 256.148 27.0352 255.133C27.0872 254.091 27.1133 252.789 27.1133 251.227V243.883C27.1133 242.19 27.0872 240.823 27.0352 239.781C26.9831 238.74 26.931 238.141 26.8789 237.984L24.4961 237.594L24.5742 236.07H33.8711C36.4232 236.07 38.3503 236.552 39.6523 237.516C40.9805 238.453 41.6445 239.807 41.6445 241.578C41.6445 243.01 41.0846 244.221 39.9648 245.211C38.8451 246.201 37.3867 246.76 35.5898 246.891L35.1211 246.617C37.5951 246.695 39.4961 247.242 40.8242 248.258C42.1523 249.247 42.8164 250.628 42.8164 252.398C42.8164 254.43 41.944 256.044 40.1992 257.242C38.4544 258.414 36.0846 259 33.0898 259H24.5742L24.4961 257.516L26.8789 256.969ZM30.3945 252.086C30.3945 253.232 30.4076 254.273 30.4336 255.211C30.4596 256.122 30.4857 256.695 30.5117 256.93C30.8503 256.982 31.306 257.047 31.8789 257.125C32.4518 257.177 32.9076 257.203 33.2461 257.203C35.2513 257.203 36.7487 256.839 37.7383 256.109C38.7539 255.38 39.2617 254.273 39.2617 252.789C39.2617 251.253 38.7279 250.107 37.6602 249.352C36.6185 248.57 35.043 248.18 32.9336 248.18C31.944 248.18 31.2539 248.18 30.8633 248.18C30.4987 248.18 30.1732 248.206 29.8867 248.258V246.227C30.3815 246.253 30.8503 246.279 31.293 246.305C31.7357 246.305 32.2174 246.305 32.7383 246.305C34.457 246.305 35.7721 245.927 36.6836 245.172C37.6211 244.417 38.0898 243.349 38.0898 241.969C38.0898 240.615 37.6602 239.586 36.8008 238.883C35.9414 238.154 34.7044 237.789 33.0898 237.789H30.4727C30.4466 237.971 30.4206 238.557 30.3945 239.547C30.3945 240.536 30.3945 241.643 30.3945 242.867V252.086ZM62.3867 256.266L64.8477 256.891V258.18L59.7695 259.43L59.1836 258.922L59.2227 256.461L59.1055 256.422C58.3503 257.49 57.569 258.245 56.7617 258.688C55.9805 259.104 55.1341 259.312 54.2227 259.312C52.4779 259.312 51.0195 258.779 49.8477 257.711C48.6758 256.617 48.0898 254.99 48.0898 252.828V249.469C48.0898 248.74 48.0638 248.036 48.0117 247.359C47.9857 246.656 47.9466 245.953 47.8945 245.25L45.2383 244.703V243.414L50.5508 241.969L51.2539 242.594C51.2018 243.401 51.1628 244.26 51.1367 245.172C51.1107 246.083 51.0977 247.034 51.0977 248.023L51.0586 252.32C51.0586 253.935 51.4362 255.094 52.1914 255.797C52.9466 256.474 53.9102 256.812 55.082 256.812C55.7852 256.812 56.5013 256.63 57.2305 256.266C57.9596 255.901 58.5977 255.276 59.1445 254.391V249.859C59.1445 249.286 59.1315 248.727 59.1055 248.18C59.1055 247.607 59.0924 247.073 59.0664 246.578C59.0404 246.057 59.0013 245.615 58.9492 245.25L56.0977 244.703V243.414L61.6055 241.969L62.1914 242.516C62.1654 243.245 62.1393 243.896 62.1133 244.469C62.1133 245.042 62.1133 245.615 62.1133 246.188C62.1133 246.734 62.1133 247.359 62.1133 248.062V250.836C62.1133 252.268 62.1393 253.427 62.1914 254.312C62.2695 255.172 62.3346 255.823 62.3867 256.266ZM73.4805 259.312C72.5169 259.312 71.5534 259.208 70.5898 259C69.6263 258.766 68.806 258.466 68.1289 258.102L67.9336 253.922H69.8477L70.6289 256.734C71.5404 257.359 72.582 257.672 73.7539 257.672C74.6393 257.672 75.3555 257.464 75.9023 257.047C76.4492 256.604 76.7227 256.018 76.7227 255.289C76.7227 254.612 76.4753 254.026 75.9805 253.531C75.4857 253.01 74.5221 252.451 73.0898 251.852C71.2409 251.044 69.9388 250.276 69.1836 249.547C68.4284 248.792 68.0508 247.828 68.0508 246.656C68.0508 245.719 68.3242 244.898 68.8711 244.195C69.444 243.466 70.2253 242.906 71.2148 242.516C72.2044 242.099 73.3503 241.891 74.6523 241.891C75.3815 241.891 76.1237 241.956 76.8789 242.086C77.6341 242.216 78.2591 242.385 78.7539 242.594L79.1836 246.656H77.3477L76.4102 244C76.1497 243.844 75.8372 243.727 75.4727 243.648C75.1081 243.544 74.7174 243.492 74.3008 243.492C73.3893 243.492 72.6602 243.714 72.1133 244.156C71.5664 244.573 71.293 245.12 71.293 245.797C71.293 246.578 71.5924 247.216 72.1914 247.711C72.7904 248.18 73.8451 248.766 75.3555 249.469C77.0742 250.25 78.2721 251.018 78.9492 251.773C79.6263 252.529 79.9648 253.44 79.9648 254.508C79.9648 255.914 79.3529 257.073 78.1289 257.984C76.9049 258.87 75.3555 259.312 73.4805 259.312ZM91.1758 259.312C89.7174 259.312 88.3763 258.987 87.1523 258.336C85.9284 257.659 84.9518 256.695 84.2227 255.445C83.4935 254.169 83.1289 252.659 83.1289 250.914C83.1289 249.221 83.5065 247.698 84.2617 246.344C85.043 244.964 86.0977 243.883 87.4258 243.102C88.7799 242.294 90.2904 241.891 91.957 241.891C93.1029 241.891 94.0664 242.034 94.8477 242.32C95.6289 242.607 96.2148 242.984 96.6055 243.453C97.0221 243.922 97.2305 244.417 97.2305 244.938C97.2305 245.354 97.1003 245.706 96.8398 245.992C96.5794 246.253 96.2148 246.383 95.7461 246.383C95.3294 246.383 94.9648 246.305 94.6523 246.148C94.3398 245.992 93.9622 245.68 93.5195 245.211L91.5273 243.219L92.9336 243.609C91.8919 243.375 90.8893 243.479 89.9258 243.922C88.9622 244.339 88.168 245.081 87.543 246.148C86.918 247.19 86.6055 248.544 86.6055 250.211C86.6055 252.294 87.1263 253.896 88.168 255.016C89.2357 256.135 90.5638 256.695 92.1523 256.695C93.1419 256.695 93.9883 256.513 94.6914 256.148C95.4206 255.784 96.1107 255.198 96.7617 254.391L97.8164 255.289C97.0872 256.643 96.1628 257.659 95.043 258.336C93.9232 258.987 92.6341 259.312 91.1758 259.312ZM105.785 259.312C104.743 259.312 103.819 259.104 103.012 258.688C102.204 258.271 101.566 257.737 101.098 257.086C100.655 256.435 100.434 255.758 100.434 255.055C100.434 254.169 100.72 253.44 101.293 252.867C101.866 252.294 102.803 251.799 104.105 251.383L110.043 249.391V247.398C110.043 246.747 109.848 246.161 109.457 245.641C109.066 245.094 108.546 244.664 107.895 244.352C107.243 244.039 106.514 243.883 105.707 243.883C105.056 243.883 104.613 244.026 104.379 244.312C104.145 244.573 104.001 245.107 103.949 245.914L103.871 247.555C102.934 247.763 102.139 247.737 101.488 247.477C100.837 247.19 100.512 246.734 100.512 246.109C100.512 245.667 100.694 245.224 101.059 244.781C101.449 244.339 101.957 243.922 102.582 243.531C103.207 243.115 103.884 242.763 104.613 242.477C105.342 242.19 106.059 241.995 106.762 241.891C108.689 241.891 110.225 242.398 111.371 243.414C112.543 244.43 113.142 245.758 113.168 247.398L113.09 253.961C113.09 254.456 113.103 254.938 113.129 255.406C113.181 255.875 113.246 256.227 113.324 256.461L115.824 256.93V258.141L113.91 258.844C113.546 258.974 113.207 259.078 112.895 259.156C112.582 259.26 112.322 259.312 112.113 259.312C111.306 259.312 110.785 258.857 110.551 257.945L110.121 256.422H110.707C109.848 257.385 109.014 258.115 108.207 258.609C107.426 259.078 106.618 259.312 105.785 259.312ZM106.84 257.008C107.439 257.008 107.999 256.878 108.52 256.617C109.04 256.331 109.548 255.901 110.043 255.328V251.227L105.668 252.398C105.043 252.555 104.587 252.802 104.301 253.141C104.04 253.479 103.91 253.909 103.91 254.43C103.91 255.081 104.197 255.68 104.77 256.227C105.368 256.747 106.059 257.008 106.84 257.008ZM131.605 259.43L131.02 258.922L131.059 256.383L130.941 256.344C130.16 257.438 129.353 258.206 128.52 258.648C127.712 259.091 126.853 259.312 125.941 259.312C124.457 259.312 123.129 258.974 121.957 258.297C120.811 257.594 119.9 256.63 119.223 255.406C118.546 254.182 118.207 252.776 118.207 251.188C118.207 249.807 118.441 248.544 118.91 247.398C119.379 246.253 120.017 245.276 120.824 244.469C121.658 243.635 122.595 242.997 123.637 242.555C124.678 242.112 125.759 241.891 126.879 241.891C127.608 241.891 128.35 241.982 129.105 242.164C129.861 242.346 130.499 242.633 131.02 243.023C131.02 242.555 131.007 241.943 130.98 241.188C130.98 240.432 130.967 239.651 130.941 238.844C130.941 238.01 130.928 237.281 130.902 236.656C130.902 236.005 130.889 235.562 130.863 235.328L127.816 234.781L127.738 233.492L133.48 231.891L134.184 232.438C134.132 234.052 134.092 235.615 134.066 237.125C134.04 238.635 134.027 240.211 134.027 241.852L133.988 250.836C133.988 252.164 134.014 253.31 134.066 254.273C134.145 255.211 134.197 255.875 134.223 256.266L136.723 256.891V258.18L131.605 259.43ZM126.918 256.695C127.673 256.695 128.376 256.539 129.027 256.227C129.678 255.888 130.342 255.302 131.02 254.469V246.07C130.525 245.185 129.9 244.56 129.145 244.195C128.389 243.831 127.634 243.648 126.879 243.648C125.238 243.648 123.949 244.26 123.012 245.484C122.1 246.682 121.645 248.245 121.645 250.172C121.645 252.229 122.152 253.831 123.168 254.977C124.21 256.122 125.46 256.695 126.918 256.695ZM147.738 259.312C146.046 259.312 144.561 258.948 143.285 258.219C142.035 257.49 141.059 256.474 140.355 255.172C139.652 253.844 139.301 252.333 139.301 250.641C139.301 248.87 139.691 247.333 140.473 246.031C141.254 244.729 142.296 243.714 143.598 242.984C144.9 242.255 146.332 241.891 147.895 241.891C149.509 241.891 150.915 242.255 152.113 242.984C153.337 243.688 154.275 244.69 154.926 245.992C155.603 247.268 155.941 248.766 155.941 250.484C155.941 252.125 155.577 253.609 154.848 254.938C154.118 256.266 153.129 257.333 151.879 258.141C150.655 258.922 149.275 259.312 147.738 259.312ZM148.129 257.477C149.014 257.477 149.783 257.216 150.434 256.695C151.085 256.148 151.592 255.406 151.957 254.469C152.322 253.505 152.504 252.411 152.504 251.188C152.504 248.948 152.035 247.138 151.098 245.758C150.186 244.352 148.975 243.648 147.465 243.648C146.059 243.648 144.926 244.234 144.066 245.406C143.233 246.578 142.816 248.128 142.816 250.055C142.816 251.513 143.038 252.802 143.48 253.922C143.949 255.042 144.587 255.914 145.395 256.539C146.202 257.164 147.113 257.477 148.129 257.477ZM158.832 259L158.715 257.594L161.137 257.008C161.163 256.878 161.189 256.643 161.215 256.305C161.241 255.966 161.254 255.51 161.254 254.938C161.28 254.365 161.293 253.661 161.293 252.828L161.332 249.781C161.332 248.922 161.293 248.076 161.215 247.242C161.163 246.409 161.098 245.745 161.02 245.25L158.52 244.703V243.414L163.754 241.969L164.301 242.516L164.145 245.797L164.262 245.836C165.043 244.326 165.837 243.31 166.645 242.789C167.452 242.242 168.207 241.969 168.91 241.969C169.509 241.969 170.004 242.125 170.395 242.438C170.811 242.724 171.02 243.167 171.02 243.766C171.02 244.391 170.798 244.872 170.355 245.211C169.939 245.523 169.405 245.68 168.754 245.68C168.285 245.68 167.829 245.576 167.387 245.367C166.97 245.159 166.566 244.872 166.176 244.508L166.879 244.742C166.384 245.055 165.915 245.497 165.473 246.07C165.03 246.617 164.626 247.307 164.262 248.141L164.301 251.773C164.327 252.424 164.353 253.102 164.379 253.805C164.405 254.508 164.431 255.146 164.457 255.719C164.483 256.266 164.509 256.695 164.535 257.008L167.934 257.516L167.855 259H158.832ZM3.44141 301.945C3.46745 301.034 3.48047 300.24 3.48047 299.562C3.50651 298.885 3.51953 298.234 3.51953 297.609C3.51953 296.958 3.51953 296.268 3.51953 295.539V288.82C3.51953 287.935 3.50651 286.984 3.48047 285.969C3.48047 284.927 3.46745 283.938 3.44141 283C3.44141 282.036 3.42839 281.203 3.40234 280.5C3.40234 279.797 3.40234 279.328 3.40234 279.094L0.511719 278.742L0.433594 277.492L5.94141 275.891L6.68359 276.438C6.65755 277.531 6.63151 278.625 6.60547 279.719C6.57943 280.812 6.55339 282.076 6.52734 283.508C6.5013 284.94 6.47526 286.711 6.44922 288.82L6.56641 288.859C7.19141 287.974 7.98568 287.258 8.94922 286.711C9.9388 286.164 10.9935 285.891 12.1133 285.891C13.4154 285.891 14.6133 286.203 15.707 286.828C16.8008 287.453 17.6732 288.365 18.3242 289.562C19.0013 290.76 19.3398 292.206 19.3398 293.898C19.3398 295.747 18.8971 297.388 18.0117 298.82C17.1523 300.227 15.9935 301.333 14.5352 302.141C13.0768 302.922 11.4622 303.312 9.69141 303.312C8.57161 303.312 7.46484 303.195 6.37109 302.961C5.27734 302.701 4.30078 302.362 3.44141 301.945ZM10.5508 301.32C12.0872 301.32 13.3503 300.734 14.3398 299.562C15.3555 298.391 15.8763 296.737 15.9023 294.602C15.9544 292.518 15.4596 290.982 14.418 289.992C13.4023 288.977 12.1654 288.469 10.707 288.469C9.92578 288.469 9.15755 288.651 8.40234 289.016C7.67318 289.354 7.03516 289.888 6.48828 290.617V300.109C7.00911 300.474 7.59505 300.773 8.24609 301.008C8.92318 301.216 9.69141 301.32 10.5508 301.32ZM21.957 303L21.8789 301.555L24.4961 301.008C24.5221 300.904 24.5352 300.721 24.5352 300.461C24.5612 300.201 24.5872 299.784 24.6133 299.211C24.6393 298.638 24.6523 297.844 24.6523 296.828V294.25C24.6523 293.182 24.6263 292.206 24.5742 291.32C24.5221 290.435 24.457 289.745 24.3789 289.25L21.7617 288.703V287.414L27.3086 285.969L27.8945 286.516C27.8164 287.323 27.7513 288.117 27.6992 288.898C27.6732 289.68 27.6602 290.591 27.6602 291.633V296.555C27.6602 297.753 27.6732 298.742 27.6992 299.523C27.7513 300.305 27.8034 300.799 27.8555 301.008L30.4727 301.555L30.3945 303H21.957ZM26.1758 281.555C25.5247 281.555 24.9518 281.333 24.457 280.891C23.9883 280.448 23.7539 279.901 23.7539 279.25C23.7539 278.599 23.9883 278.052 24.457 277.609C24.9518 277.167 25.5247 276.945 26.1758 276.945C26.8529 276.945 27.4128 277.167 27.8555 277.609C28.2982 278.052 28.5195 278.599 28.5195 279.25C28.5195 279.901 28.2982 280.448 27.8555 280.891C27.4128 281.333 26.8529 281.555 26.1758 281.555ZM34.457 301.945C34.4831 301.034 34.4961 300.24 34.4961 299.562C34.5221 298.885 34.5352 298.234 34.5352 297.609C34.5352 296.958 34.5352 296.268 34.5352 295.539V288.82C34.5352 287.935 34.5221 286.984 34.4961 285.969C34.4961 284.927 34.4831 283.938 34.457 283C34.457 282.036 34.444 281.203 34.418 280.5C34.418 279.797 34.418 279.328 34.418 279.094L31.5273 278.742L31.4492 277.492L36.957 275.891L37.6992 276.438C37.6732 277.531 37.6471 278.625 37.6211 279.719C37.5951 280.812 37.569 282.076 37.543 283.508C37.5169 284.94 37.4909 286.711 37.4648 288.82L37.582 288.859C38.207 287.974 39.0013 287.258 39.9648 286.711C40.9544 286.164 42.0091 285.891 43.1289 285.891C44.431 285.891 45.6289 286.203 46.7227 286.828C47.8164 287.453 48.6888 288.365 49.3398 289.562C50.0169 290.76 50.3555 292.206 50.3555 293.898C50.3555 295.747 49.9128 297.388 49.0273 298.82C48.168 300.227 47.0091 301.333 45.5508 302.141C44.0924 302.922 42.4779 303.312 40.707 303.312C39.5872 303.312 38.4805 303.195 37.3867 302.961C36.293 302.701 35.3164 302.362 34.457 301.945ZM41.5664 301.32C43.1029 301.32 44.3659 300.734 45.3555 299.562C46.3711 298.391 46.8919 296.737 46.918 294.602C46.9701 292.518 46.4753 290.982 45.4336 289.992C44.418 288.977 43.181 288.469 41.7227 288.469C40.9414 288.469 40.1732 288.651 39.418 289.016C38.6888 289.354 38.0508 289.888 37.5039 290.617V300.109C38.0247 300.474 38.6107 300.773 39.2617 301.008C39.9388 301.216 40.707 301.32 41.5664 301.32ZM53.0117 303L52.9336 301.555L55.4727 301.008C55.5247 300.747 55.5638 300.318 55.5898 299.719C55.6159 299.12 55.6289 298.326 55.6289 297.336C55.6549 296.346 55.668 295.135 55.668 293.703V288.82C55.668 287.831 55.6549 286.815 55.6289 285.773C55.6289 284.732 55.6159 283.755 55.5898 282.844C55.5898 281.906 55.5768 281.112 55.5508 280.461C55.5508 279.784 55.5378 279.341 55.5117 279.133L52.6211 278.742L52.543 277.492L58.1289 275.891L58.8711 276.438C58.8451 277.531 58.819 278.625 58.793 279.719C58.7669 280.812 58.7409 282.023 58.7148 283.352C58.7148 284.68 58.7148 286.281 58.7148 288.156L58.6758 294.445C58.6758 295.982 58.6888 297.375 58.7148 298.625C58.7669 299.849 58.819 300.643 58.8711 301.008L61.4102 301.555L61.332 303H53.0117ZM63.4805 303L63.4023 301.555L66.0195 301.008C66.0456 300.904 66.0586 300.721 66.0586 300.461C66.0846 300.201 66.1107 299.784 66.1367 299.211C66.1628 298.638 66.1758 297.844 66.1758 296.828V294.25C66.1758 293.182 66.1497 292.206 66.0977 291.32C66.0456 290.435 65.9805 289.745 65.9023 289.25L63.2852 288.703V287.414L68.832 285.969L69.418 286.516C69.3398 287.323 69.2747 288.117 69.2227 288.898C69.1966 289.68 69.1836 290.591 69.1836 291.633V296.555C69.1836 297.753 69.1966 298.742 69.2227 299.523C69.2747 300.305 69.3268 300.799 69.3789 301.008L71.9961 301.555L71.918 303H63.4805ZM67.6992 281.555C67.0482 281.555 66.4753 281.333 65.9805 280.891C65.5117 280.448 65.2773 279.901 65.2773 279.25C65.2773 278.599 65.5117 278.052 65.9805 277.609C66.4753 277.167 67.0482 276.945 67.6992 276.945C68.3763 276.945 68.9362 277.167 69.3789 277.609C69.8216 278.052 70.043 278.599 70.043 279.25C70.043 279.901 69.8216 280.448 69.3789 280.891C68.9362 281.333 68.3763 281.555 67.6992 281.555ZM82.9336 303.312C81.2409 303.312 79.7565 302.948 78.4805 302.219C77.2305 301.49 76.2539 300.474 75.5508 299.172C74.8477 297.844 74.4961 296.333 74.4961 294.641C74.4961 292.87 74.8867 291.333 75.668 290.031C76.4492 288.729 77.4909 287.714 78.793 286.984C80.0951 286.255 81.5273 285.891 83.0898 285.891C84.7044 285.891 86.1107 286.255 87.3086 286.984C88.5326 287.688 89.4701 288.69 90.1211 289.992C90.7982 291.268 91.1367 292.766 91.1367 294.484C91.1367 296.125 90.7721 297.609 90.043 298.938C89.3138 300.266 88.3242 301.333 87.0742 302.141C85.8503 302.922 84.4701 303.312 82.9336 303.312ZM83.3242 301.477C84.2096 301.477 84.9779 301.216 85.6289 300.695C86.2799 300.148 86.7878 299.406 87.1523 298.469C87.5169 297.505 87.6992 296.411 87.6992 295.188C87.6992 292.948 87.2305 291.138 86.293 289.758C85.3815 288.352 84.1706 287.648 82.6602 287.648C81.2539 287.648 80.1211 288.234 79.2617 289.406C78.4284 290.578 78.0117 292.128 78.0117 294.055C78.0117 295.513 78.2331 296.802 78.6758 297.922C79.1445 299.042 79.7826 299.914 80.5898 300.539C81.3971 301.164 82.3086 301.477 83.3242 301.477ZM101.84 311.906C99.444 311.906 97.543 311.516 96.1367 310.734C94.7305 309.953 94.0273 308.911 94.0273 307.609C94.0273 306.724 94.3789 305.904 95.082 305.148C95.7852 304.393 96.918 303.625 98.4805 302.844L99.9648 303.156C99.1055 303.651 98.4414 304.224 97.9727 304.875C97.5039 305.552 97.2695 306.268 97.2695 307.023C97.2695 308.065 97.6862 308.872 98.5195 309.445C99.3789 310.018 100.538 310.305 101.996 310.305C103.689 310.305 105.056 309.94 106.098 309.211C107.139 308.482 107.66 307.544 107.66 306.398C107.66 305.513 107.335 304.849 106.684 304.406C106.059 303.99 105.017 303.729 103.559 303.625L99.3789 303.273L98.793 303.117C97.8294 303.117 97.0091 302.87 96.332 302.375C95.681 301.854 95.3555 301.229 95.3555 300.5C95.3555 299.797 95.694 299.107 96.3711 298.43C97.0482 297.753 97.9857 297.154 99.1836 296.633L99.6914 297.414C99.1966 297.753 98.832 298.065 98.5977 298.352C98.3633 298.612 98.2461 298.872 98.2461 299.133C98.2461 299.497 98.4023 299.81 98.7148 300.07C99.0534 300.331 99.5221 300.487 100.121 300.539L105.16 301.047C106.957 301.229 108.324 301.685 109.262 302.414C110.199 303.143 110.668 304.185 110.668 305.539C110.668 306.737 110.277 307.818 109.496 308.781C108.715 309.745 107.66 310.5 106.332 311.047C105.004 311.62 103.507 311.906 101.84 311.906ZM102.152 298.156C100.772 298.156 99.5352 297.909 98.4414 297.414C97.3737 296.919 96.5404 296.242 95.9414 295.383C95.3424 294.497 95.043 293.495 95.043 292.375C95.043 291.151 95.3555 290.057 95.9805 289.094C96.6055 288.104 97.4518 287.336 98.5195 286.789C99.5872 286.216 100.785 285.93 102.113 285.93C103.441 285.93 104.626 286.19 105.668 286.711C106.736 287.232 107.569 287.961 108.168 288.898C108.767 289.81 109.066 290.852 109.066 292.023C109.066 293.169 108.754 294.211 108.129 295.148C107.53 296.086 106.71 296.828 105.668 297.375C104.626 297.896 103.454 298.156 102.152 298.156ZM102.348 296.594C103.415 296.594 104.262 296.203 104.887 295.422C105.512 294.641 105.824 293.599 105.824 292.297C105.824 290.839 105.473 289.667 104.77 288.781C104.092 287.896 103.194 287.453 102.074 287.453C101.007 287.453 100.134 287.87 99.457 288.703C98.7799 289.536 98.4414 290.617 98.4414 291.945C98.4414 293.326 98.793 294.445 99.4961 295.305C100.225 296.164 101.176 296.594 102.348 296.594ZM111.41 288.742L106.762 288.43L105.238 286.867L111.41 286.242V288.742ZM113.363 303L113.246 301.594L115.668 301.008C115.694 300.878 115.72 300.643 115.746 300.305C115.772 299.966 115.785 299.51 115.785 298.938C115.811 298.365 115.824 297.661 115.824 296.828L115.863 293.781C115.863 292.922 115.824 292.076 115.746 291.242C115.694 290.409 115.629 289.745 115.551 289.25L113.051 288.703V287.414L118.285 285.969L118.832 286.516L118.676 289.797L118.793 289.836C119.574 288.326 120.368 287.31 121.176 286.789C121.983 286.242 122.738 285.969 123.441 285.969C124.04 285.969 124.535 286.125 124.926 286.438C125.342 286.724 125.551 287.167 125.551 287.766C125.551 288.391 125.329 288.872 124.887 289.211C124.47 289.523 123.936 289.68 123.285 289.68C122.816 289.68 122.361 289.576 121.918 289.367C121.501 289.159 121.098 288.872 120.707 288.508L121.41 288.742C120.915 289.055 120.447 289.497 120.004 290.07C119.561 290.617 119.158 291.307 118.793 292.141L118.832 295.773C118.858 296.424 118.884 297.102 118.91 297.805C118.936 298.508 118.962 299.146 118.988 299.719C119.014 300.266 119.04 300.695 119.066 301.008L122.465 301.516L122.387 303H113.363ZM133.168 303.312C132.126 303.312 131.202 303.104 130.395 302.688C129.587 302.271 128.949 301.737 128.48 301.086C128.038 300.435 127.816 299.758 127.816 299.055C127.816 298.169 128.103 297.44 128.676 296.867C129.249 296.294 130.186 295.799 131.488 295.383L137.426 293.391V291.398C137.426 290.747 137.23 290.161 136.84 289.641C136.449 289.094 135.928 288.664 135.277 288.352C134.626 288.039 133.897 287.883 133.09 287.883C132.439 287.883 131.996 288.026 131.762 288.312C131.527 288.573 131.384 289.107 131.332 289.914L131.254 291.555C130.316 291.763 129.522 291.737 128.871 291.477C128.22 291.19 127.895 290.734 127.895 290.109C127.895 289.667 128.077 289.224 128.441 288.781C128.832 288.339 129.34 287.922 129.965 287.531C130.59 287.115 131.267 286.763 131.996 286.477C132.725 286.19 133.441 285.995 134.145 285.891C136.072 285.891 137.608 286.398 138.754 287.414C139.926 288.43 140.525 289.758 140.551 291.398L140.473 297.961C140.473 298.456 140.486 298.938 140.512 299.406C140.564 299.875 140.629 300.227 140.707 300.461L143.207 300.93V302.141L141.293 302.844C140.928 302.974 140.59 303.078 140.277 303.156C139.965 303.26 139.704 303.312 139.496 303.312C138.689 303.312 138.168 302.857 137.934 301.945L137.504 300.422H138.09C137.23 301.385 136.397 302.115 135.59 302.609C134.809 303.078 134.001 303.312 133.168 303.312ZM134.223 301.008C134.822 301.008 135.382 300.878 135.902 300.617C136.423 300.331 136.931 299.901 137.426 299.328V295.227L133.051 296.398C132.426 296.555 131.97 296.802 131.684 297.141C131.423 297.479 131.293 297.909 131.293 298.43C131.293 299.081 131.579 299.68 132.152 300.227C132.751 300.747 133.441 301.008 134.223 301.008ZM135.316 284.172L133.754 283.664L137.621 276.555L140.746 277.453L135.316 284.172ZM145.316 303L145.238 301.594L147.66 301.008C147.686 300.721 147.699 300.357 147.699 299.914C147.725 299.471 147.738 298.872 147.738 298.117C147.738 297.362 147.738 296.398 147.738 295.227V284.797C147.738 282.792 148.142 281.125 148.949 279.797C149.783 278.443 150.876 277.427 152.23 276.75C153.611 276.073 155.108 275.734 156.723 275.734C158.415 275.734 159.77 276.073 160.785 276.75C161.801 277.401 162.309 278.156 162.309 279.016C162.309 279.51 162.165 279.901 161.879 280.188C161.592 280.474 161.189 280.617 160.668 280.617C160.251 280.617 159.861 280.539 159.496 280.383C159.158 280.201 158.754 279.862 158.285 279.367L155.707 276.789L157.895 277.453C156.671 277.219 155.512 277.323 154.418 277.766C153.324 278.182 152.439 278.911 151.762 279.953C151.085 280.995 150.746 282.362 150.746 284.055V286.281V294.953C150.746 295.76 150.746 296.529 150.746 297.258C150.772 297.987 150.798 298.664 150.824 299.289C150.85 299.888 150.876 300.461 150.902 301.008L153.52 301.594L153.402 303H145.316ZM155.941 303L155.863 301.555L158.48 301.008C158.507 300.773 158.533 300.5 158.559 300.188C158.585 299.849 158.598 299.419 158.598 298.898C158.624 298.378 158.637 297.688 158.637 296.828V293.391C158.637 292.01 158.611 290.93 158.559 290.148C158.507 289.341 158.454 288.703 158.402 288.234H144.926V286.945L147.738 286.242L149.77 286.281H158.715C159.21 286.281 159.717 286.268 160.238 286.242C160.785 286.216 161.306 286.19 161.801 286.164C161.775 286.997 161.749 287.818 161.723 288.625C161.697 289.432 161.684 290.435 161.684 291.633V296.555C161.684 297.336 161.684 298.026 161.684 298.625C161.71 299.224 161.736 299.719 161.762 300.109C161.814 300.5 161.853 300.799 161.879 301.008L164.496 301.555L164.379 303H155.941ZM175.043 303.312C173.585 303.312 172.243 302.987 171.02 302.336C169.796 301.659 168.819 300.695 168.09 299.445C167.361 298.169 166.996 296.659 166.996 294.914C166.996 293.221 167.374 291.698 168.129 290.344C168.91 288.964 169.965 287.883 171.293 287.102C172.647 286.294 174.158 285.891 175.824 285.891C176.97 285.891 177.934 286.034 178.715 286.32C179.496 286.607 180.082 286.984 180.473 287.453C180.889 287.922 181.098 288.417 181.098 288.938C181.098 289.354 180.967 289.706 180.707 289.992C180.447 290.253 180.082 290.383 179.613 290.383C179.197 290.383 178.832 290.305 178.52 290.148C178.207 289.992 177.829 289.68 177.387 289.211L175.395 287.219L176.801 287.609C175.759 287.375 174.757 287.479 173.793 287.922C172.829 288.339 172.035 289.081 171.41 290.148C170.785 291.19 170.473 292.544 170.473 294.211C170.473 296.294 170.993 297.896 172.035 299.016C173.103 300.135 174.431 300.695 176.02 300.695C177.009 300.695 177.855 300.513 178.559 300.148C179.288 299.784 179.978 299.198 180.629 298.391L181.684 299.289C180.954 300.643 180.03 301.659 178.91 302.336C177.79 302.987 176.501 303.312 175.043 303.312ZM191.84 303.312C190.147 303.312 188.663 302.948 187.387 302.219C186.137 301.49 185.16 300.474 184.457 299.172C183.754 297.844 183.402 296.333 183.402 294.641C183.402 292.87 183.793 291.333 184.574 290.031C185.355 288.729 186.397 287.714 187.699 286.984C189.001 286.255 190.434 285.891 191.996 285.891C193.611 285.891 195.017 286.255 196.215 286.984C197.439 287.688 198.376 288.69 199.027 289.992C199.704 291.268 200.043 292.766 200.043 294.484C200.043 296.125 199.678 297.609 198.949 298.938C198.22 300.266 197.23 301.333 195.98 302.141C194.757 302.922 193.376 303.312 191.84 303.312ZM192.23 301.477C193.116 301.477 193.884 301.216 194.535 300.695C195.186 300.148 195.694 299.406 196.059 298.469C196.423 297.505 196.605 296.411 196.605 295.188C196.605 292.948 196.137 291.138 195.199 289.758C194.288 288.352 193.077 287.648 191.566 287.648C190.16 287.648 189.027 288.234 188.168 289.406C187.335 290.578 186.918 292.128 186.918 294.055C186.918 295.513 187.139 296.802 187.582 297.922C188.051 299.042 188.689 299.914 189.496 300.539C190.303 301.164 191.215 301.477 192.23 301.477Z" fill="black"/>
<path fill-rule="evenodd" clip-rule="evenodd" d="M96.0576 124.018C97.9729 122.966 113.919 122.854 114.973 123.801C115.414 124.197 114.973 126.858 114.973 127.458C114.973 130.687 114.973 135.602 115.271 137.449C125.358 142.066 128.614 149.208 131.221 155.862C134.031 163.036 137.284 170.614 138.4 179.641C138.859 183.358 140.767 193.705 135.72 195.519C129.383 197.797 118.607 196.768 111.697 196.768C108.692 196.768 105.653 196.665 102.664 196.857C97.3543 197.198 77.5711 197.047 76.0775 193.571C74.753 190.489 74.3045 182.642 77.4296 171.971C79.7588 164.017 79.8919 155.628 84.0016 148.242C85.715 145.163 89.0442 141.477 92.0422 139.322C93.1132 138.552 94.6265 138.07 95.5164 137.271C97.1119 135.837 93.8569 125.227 96.0576 124.018Z" fill="black"/>
<path d="M86.1489 89.2874C81.7732 61.098 75.2875 33.1567 70.5204 5C51.6471 31.0986 30.7519 55.9606 11 81.3849" stroke="black" stroke-width="9" stroke-miterlimit="1.5" stroke-linecap="round" stroke-linejoin="round"/>
<path d="M57.0761 112.895C55.2811 100.296 53.0501 87.7804 51.5589 75.1365C43.9672 87.0825 35.2426 98.1442 27.3408 109.878" stroke="black" stroke-width="9" stroke-miterlimit="1.5" stroke-linecap="round" stroke-linejoin="round"/>
<path fill-rule="evenodd" clip-rule="evenodd" d="M162.126 122.855C163.453 112.361 163.943 100.089 166.706 89.8549C171.06 88.1969 187.411 81.0784 191 78.9205C182.176 77.8971 172.804 77.9635 164.225 75.5427C162.761 69.3203 162.172 62.8784 160.671 56.6958C159.713 52.7444 158.208 48.8597 157.666 44.813C155.701 55.8509 154.166 66.9858 152.728 78.103C143.866 80.4139 134.788 84.2383 126.322 87.8154C135.15 90.4038 144.323 89.4881 153.214 91.2819C155.808 102.902 159.175 112.892 162.126 122.855Z" fill="white" stroke="black" stroke-width="5" stroke-miterlimit="1.5" stroke-linecap="round" stroke-linejoin="round"/>
<path d="M134.062 58.9701C137.459 62.075 140.688 65.3235 143.662 68.8352Z" fill="white"/>
<path d="M134.062 58.9701C137.459 62.075 140.688 65.3235 143.662 68.8352" stroke="black" stroke-width="5" stroke-miterlimit="1.5" stroke-linecap="round" stroke-linejoin="round"/>
<path d="M147.844 98.9229C146.008 101.64 144.281 104.533 142.293 107.143Z" fill="white"/>
<path d="M147.844 98.9229C146.008 101.64 144.281 104.533 142.293 107.143" stroke="black" stroke-width="5" stroke-miterlimit="1.5" stroke-linecap="round" stroke-linejoin="round"/>
<path d="M171.907 97.3591C175.344 100.049 178.829 103.647 181.592 107.039Z" fill="white"/>
<path d="M171.907 97.3591C175.344 100.049 178.829 103.647 181.592 107.039" stroke="black" stroke-width="5" stroke-miterlimit="1.5" stroke-linecap="round" stroke-linejoin="round"/>
<path d="M169.63 67.8803C172.163 64.3342 174.755 60.8357 177.426 57.4264Z" fill="white"/>
<path d="M169.63 67.8803C172.163 64.3342 174.755 60.8357 177.426 57.4264" stroke="black" stroke-width="5" stroke-miterlimit="1.5" stroke-linecap="round" stroke-linejoin="round"/>
</svg>