<svg width="209" height="315" viewBox="0 0 209 315" fill="none" xmlns="http://www.w3.org/2000/svg">
<path d="M31.3789 260.969C31.431 260.76 31.4831 260.148 31.5352 259.133C31.5872 258.091 31.6133 256.789 31.6133 255.227V247.883C31.6133 246.19 31.5872 244.823 31.5352 243.781C31.4831 242.74 31.431 242.141 31.3789 241.984L28.9961 241.594L29.0742 240.07H38.3711C40.9232 240.07 42.8503 240.552 44.1523 241.516C45.4805 242.453 46.1445 243.807 46.1445 245.578C46.1445 247.01 45.5846 248.221 44.4648 249.211C43.3451 250.201 41.8867 250.76 40.0898 250.891L39.6211 250.617C42.0951 250.695 43.9961 251.242 45.3242 252.258C46.6523 253.247 47.3164 254.628 47.3164 256.398C47.3164 258.43 46.444 260.044 44.6992 261.242C42.9544 262.414 40.5846 263 37.5898 263H29.0742L28.9961 261.516L31.3789 260.969ZM34.8945 256.086C34.8945 257.232 34.9076 258.273 34.9336 259.211C34.9596 260.122 34.9857 260.695 35.0117 260.93C35.3503 260.982 35.806 261.047 36.3789 261.125C36.9518 261.177 37.4076 261.203 37.7461 261.203C39.7513 261.203 41.2487 260.839 42.2383 260.109C43.2539 259.38 43.7617 258.273 43.7617 256.789C43.7617 255.253 43.2279 254.107 42.1602 253.352C41.1185 252.57 39.543 252.18 37.4336 252.18C36.444 252.18 35.7539 252.18 35.3633 252.18C34.9987 252.18 34.6732 252.206 34.3867 252.258V250.227C34.8815 250.253 35.3503 250.279 35.793 250.305C36.2357 250.305 36.7174 250.305 37.2383 250.305C38.957 250.305 40.2721 249.927 41.1836 249.172C42.1211 248.417 42.5898 247.349 42.5898 245.969C42.5898 244.615 42.1602 243.586 41.3008 242.883C40.4414 242.154 39.2044 241.789 37.5898 241.789H34.9727C34.9466 241.971 34.9206 242.557 34.8945 243.547C34.8945 244.536 34.8945 245.643 34.8945 246.867V256.086ZM66.8867 260.266L69.3477 260.891V262.18L64.2695 263.43L63.6836 262.922L63.7227 260.461L63.6055 260.422C62.8503 261.49 62.069 262.245 61.2617 262.688C60.4805 263.104 59.6341 263.312 58.7227 263.312C56.9779 263.312 55.5195 262.779 54.3477 261.711C53.1758 260.617 52.5898 258.99 52.5898 256.828V253.469C52.5898 252.74 52.5638 252.036 52.5117 251.359C52.4857 250.656 52.4466 249.953 52.3945 249.25L49.7383 248.703V247.414L55.0508 245.969L55.7539 246.594C55.7018 247.401 55.6628 248.26 55.6367 249.172C55.6107 250.083 55.5977 251.034 55.5977 252.023L55.5586 256.32C55.5586 257.935 55.9362 259.094 56.6914 259.797C57.4466 260.474 58.4102 260.812 59.582 260.812C60.2852 260.812 61.0013 260.63 61.7305 260.266C62.4596 259.901 63.0977 259.276 63.6445 258.391V253.859C63.6445 253.286 63.6315 252.727 63.6055 252.18C63.6055 251.607 63.5924 251.073 63.5664 250.578C63.5404 250.057 63.5013 249.615 63.4492 249.25L60.5977 248.703V247.414L66.1055 245.969L66.6914 246.516C66.6654 247.245 66.6393 247.896 66.6133 248.469C66.6133 249.042 66.6133 249.615 66.6133 250.188C66.6133 250.734 66.6133 251.359 66.6133 252.062V254.836C66.6133 256.268 66.6393 257.427 66.6914 258.312C66.7695 259.172 66.8346 259.823 66.8867 260.266ZM77.9805 263.312C77.0169 263.312 76.0534 263.208 75.0898 263C74.1263 262.766 73.306 262.466 72.6289 262.102L72.4336 257.922H74.3477L75.1289 260.734C76.0404 261.359 77.082 261.672 78.2539 261.672C79.1393 261.672 79.8555 261.464 80.4023 261.047C80.9492 260.604 81.2227 260.018 81.2227 259.289C81.2227 258.612 80.9753 258.026 80.4805 257.531C79.9857 257.01 79.0221 256.451 77.5898 255.852C75.7409 255.044 74.4388 254.276 73.6836 253.547C72.9284 252.792 72.5508 251.828 72.5508 250.656C72.5508 249.719 72.8242 248.898 73.3711 248.195C73.944 247.466 74.7253 246.906 75.7148 246.516C76.7044 246.099 77.8503 245.891 79.1523 245.891C79.8815 245.891 80.6237 245.956 81.3789 246.086C82.1341 246.216 82.7591 246.385 83.2539 246.594L83.6836 250.656H81.8477L80.9102 248C80.6497 247.844 80.3372 247.727 79.9727 247.648C79.6081 247.544 79.2174 247.492 78.8008 247.492C77.8893 247.492 77.1602 247.714 76.6133 248.156C76.0664 248.573 75.793 249.12 75.793 249.797C75.793 250.578 76.0924 251.216 76.6914 251.711C77.2904 252.18 78.3451 252.766 79.8555 253.469C81.5742 254.25 82.7721 255.018 83.4492 255.773C84.1263 256.529 84.4648 257.44 84.4648 258.508C84.4648 259.914 83.8529 261.073 82.6289 261.984C81.4049 262.87 79.8555 263.312 77.9805 263.312ZM95.6758 263.312C94.2174 263.312 92.8763 262.987 91.6523 262.336C90.4284 261.659 89.4518 260.695 88.7227 259.445C87.9935 258.169 87.6289 256.659 87.6289 254.914C87.6289 253.221 88.0065 251.698 88.7617 250.344C89.543 248.964 90.5977 247.883 91.9258 247.102C93.2799 246.294 94.7904 245.891 96.457 245.891C97.6029 245.891 98.5664 246.034 99.3477 246.32C100.129 246.607 100.715 246.984 101.105 247.453C101.522 247.922 101.73 248.417 101.73 248.938C101.73 249.354 101.6 249.706 101.34 249.992C101.079 250.253 100.715 250.383 100.246 250.383C99.8294 250.383 99.4648 250.305 99.1523 250.148C98.8398 249.992 98.4622 249.68 98.0195 249.211L96.0273 247.219L97.4336 247.609C96.3919 247.375 95.3893 247.479 94.4258 247.922C93.4622 248.339 92.668 249.081 92.043 250.148C91.418 251.19 91.1055 252.544 91.1055 254.211C91.1055 256.294 91.6263 257.896 92.668 259.016C93.7357 260.135 95.0638 260.695 96.6523 260.695C97.6419 260.695 98.4883 260.513 99.1914 260.148C99.9206 259.784 100.611 259.198 101.262 258.391L102.316 259.289C101.587 260.643 100.663 261.659 99.543 262.336C98.4232 262.987 97.1341 263.312 95.6758 263.312ZM110.285 263.312C109.243 263.312 108.319 263.104 107.512 262.688C106.704 262.271 106.066 261.737 105.598 261.086C105.155 260.435 104.934 259.758 104.934 259.055C104.934 258.169 105.22 257.44 105.793 256.867C106.366 256.294 107.303 255.799 108.605 255.383L114.543 253.391V251.398C114.543 250.747 114.348 250.161 113.957 249.641C113.566 249.094 113.046 248.664 112.395 248.352C111.743 248.039 111.014 247.883 110.207 247.883C109.556 247.883 109.113 248.026 108.879 248.312C108.645 248.573 108.501 249.107 108.449 249.914L108.371 251.555C107.434 251.763 106.639 251.737 105.988 251.477C105.337 251.19 105.012 250.734 105.012 250.109C105.012 249.667 105.194 249.224 105.559 248.781C105.949 248.339 106.457 247.922 107.082 247.531C107.707 247.115 108.384 246.763 109.113 246.477C109.842 246.19 110.559 245.995 111.262 245.891C113.189 245.891 114.725 246.398 115.871 247.414C117.043 248.43 117.642 249.758 117.668 251.398L117.59 257.961C117.59 258.456 117.603 258.938 117.629 259.406C117.681 259.875 117.746 260.227 117.824 260.461L120.324 260.93V262.141L118.41 262.844C118.046 262.974 117.707 263.078 117.395 263.156C117.082 263.26 116.822 263.312 116.613 263.312C115.806 263.312 115.285 262.857 115.051 261.945L114.621 260.422H115.207C114.348 261.385 113.514 262.115 112.707 262.609C111.926 263.078 111.118 263.312 110.285 263.312ZM111.34 261.008C111.939 261.008 112.499 260.878 113.02 260.617C113.54 260.331 114.048 259.901 114.543 259.328V255.227L110.168 256.398C109.543 256.555 109.087 256.802 108.801 257.141C108.54 257.479 108.41 257.909 108.41 258.43C108.41 259.081 108.697 259.68 109.27 260.227C109.868 260.747 110.559 261.008 111.34 261.008ZM136.105 263.43L135.52 262.922L135.559 260.383L135.441 260.344C134.66 261.438 133.853 262.206 133.02 262.648C132.212 263.091 131.353 263.312 130.441 263.312C128.957 263.312 127.629 262.974 126.457 262.297C125.311 261.594 124.4 260.63 123.723 259.406C123.046 258.182 122.707 256.776 122.707 255.188C122.707 253.807 122.941 252.544 123.41 251.398C123.879 250.253 124.517 249.276 125.324 248.469C126.158 247.635 127.095 246.997 128.137 246.555C129.178 246.112 130.259 245.891 131.379 245.891C132.108 245.891 132.85 245.982 133.605 246.164C134.361 246.346 134.999 246.633 135.52 247.023C135.52 246.555 135.507 245.943 135.48 245.188C135.48 244.432 135.467 243.651 135.441 242.844C135.441 242.01 135.428 241.281 135.402 240.656C135.402 240.005 135.389 239.562 135.363 239.328L132.316 238.781L132.238 237.492L137.98 235.891L138.684 236.438C138.632 238.052 138.592 239.615 138.566 241.125C138.54 242.635 138.527 244.211 138.527 245.852L138.488 254.836C138.488 256.164 138.514 257.31 138.566 258.273C138.645 259.211 138.697 259.875 138.723 260.266L141.223 260.891V262.18L136.105 263.43ZM131.418 260.695C132.173 260.695 132.876 260.539 133.527 260.227C134.178 259.888 134.842 259.302 135.52 258.469V250.07C135.025 249.185 134.4 248.56 133.645 248.195C132.889 247.831 132.134 247.648 131.379 247.648C129.738 247.648 128.449 248.26 127.512 249.484C126.6 250.682 126.145 252.245 126.145 254.172C126.145 256.229 126.652 257.831 127.668 258.977C128.71 260.122 129.96 260.695 131.418 260.695ZM152.238 263.312C150.546 263.312 149.061 262.948 147.785 262.219C146.535 261.49 145.559 260.474 144.855 259.172C144.152 257.844 143.801 256.333 143.801 254.641C143.801 252.87 144.191 251.333 144.973 250.031C145.754 248.729 146.796 247.714 148.098 246.984C149.4 246.255 150.832 245.891 152.395 245.891C154.009 245.891 155.415 246.255 156.613 246.984C157.837 247.688 158.775 248.69 159.426 249.992C160.103 251.268 160.441 252.766 160.441 254.484C160.441 256.125 160.077 257.609 159.348 258.938C158.618 260.266 157.629 261.333 156.379 262.141C155.155 262.922 153.775 263.312 152.238 263.312ZM152.629 261.477C153.514 261.477 154.283 261.216 154.934 260.695C155.585 260.148 156.092 259.406 156.457 258.469C156.822 257.505 157.004 256.411 157.004 255.188C157.004 252.948 156.535 251.138 155.598 249.758C154.686 248.352 153.475 247.648 151.965 247.648C150.559 247.648 149.426 248.234 148.566 249.406C147.733 250.578 147.316 252.128 147.316 254.055C147.316 255.513 147.538 256.802 147.98 257.922C148.449 259.042 149.087 259.914 149.895 260.539C150.702 261.164 151.613 261.477 152.629 261.477ZM163.332 263L163.215 261.594L165.637 261.008C165.663 260.878 165.689 260.643 165.715 260.305C165.741 259.966 165.754 259.51 165.754 258.938C165.78 258.365 165.793 257.661 165.793 256.828L165.832 253.781C165.832 252.922 165.793 252.076 165.715 251.242C165.663 250.409 165.598 249.745 165.52 249.25L163.02 248.703V247.414L168.254 245.969L168.801 246.516L168.645 249.797L168.762 249.836C169.543 248.326 170.337 247.31 171.145 246.789C171.952 246.242 172.707 245.969 173.41 245.969C174.009 245.969 174.504 246.125 174.895 246.438C175.311 246.724 175.52 247.167 175.52 247.766C175.52 248.391 175.298 248.872 174.855 249.211C174.439 249.523 173.905 249.68 173.254 249.68C172.785 249.68 172.329 249.576 171.887 249.367C171.47 249.159 171.066 248.872 170.676 248.508L171.379 248.742C170.884 249.055 170.415 249.497 169.973 250.07C169.53 250.617 169.126 251.307 168.762 252.141L168.801 255.773C168.827 256.424 168.853 257.102 168.879 257.805C168.905 258.508 168.931 259.146 168.957 259.719C168.983 260.266 169.009 260.695 169.035 261.008L172.434 261.516L172.355 263H163.332ZM60.0312 307L59.9531 305.555L62.4922 305.008C62.5443 304.747 62.5833 304.318 62.6094 303.719C62.6354 303.12 62.6484 302.326 62.6484 301.336C62.6745 300.346 62.6875 299.135 62.6875 297.703V292.82C62.6875 291.831 62.6745 290.815 62.6484 289.773C62.6484 288.732 62.6354 287.755 62.6094 286.844C62.6094 285.906 62.5964 285.112 62.5703 284.461C62.5703 283.784 62.5573 283.341 62.5312 283.133L59.6406 282.742L59.5625 281.492L65.1484 279.891L65.8906 280.438C65.8646 281.531 65.8385 282.625 65.8125 283.719C65.7865 284.812 65.7604 286.023 65.7344 287.352C65.7344 288.68 65.7344 290.281 65.7344 292.156L65.6953 298.445C65.6953 299.982 65.7083 301.375 65.7344 302.625C65.7865 303.849 65.8385 304.643 65.8906 305.008L68.4297 305.555L68.3516 307H60.0312ZM79.1328 307.312C77.6224 307.312 76.2552 306.974 75.0312 306.297C73.8333 305.62 72.8698 304.656 72.1406 303.406C71.4375 302.13 71.0859 300.633 71.0859 298.914C71.0859 297.065 71.4635 295.464 72.2188 294.109C72.974 292.755 73.9635 291.714 75.1875 290.984C76.4115 290.229 77.7266 289.865 79.1328 289.891C81.1641 289.917 82.7526 290.594 83.8984 291.922C85.0443 293.25 85.6172 295.125 85.6172 297.547V298.25H73.625V296.531H83.0391L82.6094 297.039V296.219C82.6094 294.708 82.2708 293.549 81.5938 292.742C80.9167 291.935 79.9922 291.531 78.8203 291.531C78.0911 291.531 77.388 291.753 76.7109 292.195C76.0339 292.612 75.487 293.263 75.0703 294.148C74.6536 295.008 74.4453 296.102 74.4453 297.43V297.898C74.4453 300.034 74.9661 301.701 76.0078 302.898C77.0755 304.096 78.4427 304.695 80.1094 304.695C81.0208 304.695 81.8411 304.513 82.5703 304.148C83.2995 303.784 84.0026 303.198 84.6797 302.391L85.6562 303.289C84.9271 304.643 84.0026 305.659 82.8828 306.336C81.763 306.987 80.513 307.312 79.1328 307.312ZM79.6016 288.172L78.0391 287.664L81.9062 280.555L85.0312 281.453L79.6016 288.172ZM104.641 307H97.4922L97.4141 305.594L99.25 305.008L95.3828 299.812L94.3672 298.602L89.5234 292.195L87.6875 291.609L87.7656 290.203H94.7578L94.875 291.609L93.2344 292.195L96.5156 296.648L97.5312 297.898L102.883 305.008L104.719 305.594L104.641 307ZM99.7969 292.195L98.1562 291.609L98.2734 290.203H103.82L103.938 291.609L102.102 292.195L97.5312 297.898L95.3828 299.812L91.6328 305.008L93.4688 305.594L93.3906 307H87.6094L87.5312 305.594L89.3672 305.008L94.3672 298.602L96.5156 296.648L99.7969 292.195ZM106.398 307L106.32 305.555L108.938 305.008C108.964 304.904 108.977 304.721 108.977 304.461C109.003 304.201 109.029 303.784 109.055 303.211C109.081 302.638 109.094 301.844 109.094 300.828V298.25C109.094 297.182 109.068 296.206 109.016 295.32C108.964 294.435 108.898 293.745 108.82 293.25L106.203 292.703V291.414L111.75 289.969L112.336 290.516C112.258 291.323 112.193 292.117 112.141 292.898C112.115 293.68 112.102 294.591 112.102 295.633V300.555C112.102 301.753 112.115 302.742 112.141 303.523C112.193 304.305 112.245 304.799 112.297 305.008L114.914 305.555L114.836 307H106.398ZM110.617 285.555C109.966 285.555 109.393 285.333 108.898 284.891C108.43 284.448 108.195 283.901 108.195 283.25C108.195 282.599 108.43 282.052 108.898 281.609C109.393 281.167 109.966 280.945 110.617 280.945C111.294 280.945 111.854 281.167 112.297 281.609C112.74 282.052 112.961 282.599 112.961 283.25C112.961 283.901 112.74 284.448 112.297 284.891C111.854 285.333 111.294 285.555 110.617 285.555ZM125.461 307.312C124.003 307.312 122.661 306.987 121.438 306.336C120.214 305.659 119.237 304.695 118.508 303.445C117.779 302.169 117.414 300.659 117.414 298.914C117.414 297.221 117.792 295.698 118.547 294.344C119.328 292.964 120.383 291.883 121.711 291.102C123.065 290.294 124.576 289.891 126.242 289.891C127.388 289.891 128.352 290.034 129.133 290.32C129.914 290.607 130.5 290.984 130.891 291.453C131.307 291.922 131.516 292.417 131.516 292.938C131.516 293.354 131.385 293.706 131.125 293.992C130.865 294.253 130.5 294.383 130.031 294.383C129.615 294.383 129.25 294.305 128.938 294.148C128.625 293.992 128.247 293.68 127.805 293.211L125.812 291.219L127.219 291.609C126.177 291.375 125.174 291.479 124.211 291.922C123.247 292.339 122.453 293.081 121.828 294.148C121.203 295.19 120.891 296.544 120.891 298.211C120.891 300.294 121.411 301.896 122.453 303.016C123.521 304.135 124.849 304.695 126.438 304.695C127.427 304.695 128.273 304.513 128.977 304.148C129.706 303.784 130.396 303.198 131.047 302.391L132.102 303.289C131.372 304.643 130.448 305.659 129.328 306.336C128.208 306.987 126.919 307.312 125.461 307.312ZM142.258 307.312C140.565 307.312 139.081 306.948 137.805 306.219C136.555 305.49 135.578 304.474 134.875 303.172C134.172 301.844 133.82 300.333 133.82 298.641C133.82 296.87 134.211 295.333 134.992 294.031C135.773 292.729 136.815 291.714 138.117 290.984C139.419 290.255 140.852 289.891 142.414 289.891C144.029 289.891 145.435 290.255 146.633 290.984C147.857 291.688 148.794 292.69 149.445 293.992C150.122 295.268 150.461 296.766 150.461 298.484C150.461 300.125 150.096 301.609 149.367 302.938C148.638 304.266 147.648 305.333 146.398 306.141C145.174 306.922 143.794 307.312 142.258 307.312ZM142.648 305.477C143.534 305.477 144.302 305.216 144.953 304.695C145.604 304.148 146.112 303.406 146.477 302.469C146.841 301.505 147.023 300.411 147.023 299.188C147.023 296.948 146.555 295.138 145.617 293.758C144.706 292.352 143.495 291.648 141.984 291.648C140.578 291.648 139.445 292.234 138.586 293.406C137.753 294.578 137.336 296.128 137.336 298.055C137.336 299.513 137.557 300.802 138 301.922C138.469 303.042 139.107 303.914 139.914 304.539C140.721 305.164 141.633 305.477 142.648 305.477Z" fill="black"/>
<path d="M82.4031 200.948C82.0453 201.297 80.6207 199.786 80.472 199.626C78.9746 198.019 77.8036 195.929 76.8889 194.036C73.6669 187.367 72.8736 179.051 74.461 171.966C78.4928 153.974 99.3136 140.858 120.068 141.462C145.082 142.19 150.141 175.054 126.031 181.527C120.843 182.921 113.329 182.441 109.179 179.153C103.586 174.721 105.026 164.74 111.348 161.3C120.839 156.135 130.618 169.064 120.682 173.093" stroke="black" stroke-width="8" stroke-miterlimit="1.5" stroke-linecap="round" stroke-linejoin="round"/>
<path fill-rule="evenodd" clip-rule="evenodd" d="M60.9888 120.274C55.3596 122.718 50.3168 126.567 48.6109 132.28C48.0524 134.151 48.5528 135.715 48.7539 137.544C44.4619 133.816 40.0582 135.537 37.062 139.943C36.0678 141.404 35.3114 142.945 34.7908 144.58C34.5976 145.186 34.4077 145.794 34.315 146.42C34.2815 146.654 34.4501 147.345 34.3429 147.127C31.9232 142.225 29.194 137.041 23.5715 134.347C21.2603 133.239 19.1243 133.131 16.6207 133.787C16.3304 133.862 14.7496 134.205 14.7842 134.397C16.2409 130.603 14.1474 126.972 10.243 125.001C8.86444 124.305 7.40892 123.769 5.93096 123.255C5.32426 123.045 3.70553 122.806 4.15024 122.63C3.36926 122.818 5.87393 122.329 6.14423 122.244C7.76963 121.738 9.60403 121.155 11.0385 120.312C13.7385 118.728 17.9682 114.351 13.6626 109.837C13.6626 109.837 14.4177 110.164 14.5641 110.209C15.288 110.428 16.0019 110.598 16.7581 110.714C19.0092 111.062 21.4088 110.838 23.3715 109.768C28.0658 107.21 28.9739 99.9823 29.6007 95.6283C29.3504 95.899 29.9996 96.7938 30.1168 96.9907C30.9703 98.4326 31.8796 99.8533 32.8939 101.216C35.6555 104.925 43.0688 111.129 48.3908 106.506C48.0379 106.423 47.6914 108.251 47.6524 108.474C47.3341 110.283 47.5541 112.06 48.7573 113.605C51.5612 117.206 56.1337 120.274 60.9888 120.274Z" fill="white" stroke="black" stroke-width="8" stroke-miterlimit="1.5" stroke-linecap="round" stroke-linejoin="round"/>
<path d="M136.124 70.7083C136.518 66.5931 138.586 62.7947 142.507 60.3694C137.491 58.8582 136.51 54.3882 136.767 50.2264C135.389 55.1417 133.69 59.7903 127.062 60.2374C133.536 61.519 135.597 65.1112 136.124 70.7083Z" fill="white"/>
<path d="M142.743 60.2261C138.669 62.6436 136.526 66.512 136.124 70.7083C135.597 65.1112 133.536 61.519 127.062 60.2374C133.69 59.7903 135.389 55.1417 136.767 50.2264C136.508 54.4124 137.503 58.9091 142.592 60.3953" stroke="black" stroke-width="8" stroke-miterlimit="1.5" stroke-linecap="round" stroke-linejoin="round"/>
<path d="M97.8457 20.2262C98.2299 20.8002 98.579 21.4131 99.0092 21.9619" stroke="black" stroke-width="8" stroke-miterlimit="1.5" stroke-linecap="round" stroke-linejoin="round"/>
<path d="M102.805 27.6725C106.675 33.5246 111.105 39.2472 114.55 45.2931" stroke="black" stroke-width="8" stroke-miterlimit="1.5" stroke-linecap="round" stroke-linejoin="round"/>
<path d="M113.651 7.28259C117.509 16.3435 120.328 25.8229 124.504 34.7678" stroke="black" stroke-width="8" stroke-miterlimit="1.5" stroke-linecap="round" stroke-linejoin="round"/>
<path d="M136.982 4C137.132 9.75108 137.272 15.5021 137.415 21.2506" stroke="black" stroke-width="8" stroke-miterlimit="1.5" stroke-linecap="round" stroke-linejoin="round"/>
<path d="M137.482 28.2924C137.559 29.3269 137.575 30.3629 137.643 31.3976" stroke="black" stroke-width="8" stroke-miterlimit="1.5" stroke-linecap="round" stroke-linejoin="round"/>
<path d="M167.431 10.6473C165.318 15.1419 161.579 18.6965 158.542 22.6915M158.541 22.69C153.616 29.1659 148.712 35.633 143.953 42.2061L158.541 22.69Z" stroke="black" stroke-width="8" stroke-miterlimit="1.5" stroke-linecap="round" stroke-linejoin="round"/>
<path d="M162.985 40.1331C166.79 37.4748 170.386 34.251 173.759 31.1832" stroke="black" stroke-width="8" stroke-miterlimit="1.5" stroke-linecap="round" stroke-linejoin="round"/>
<path d="M178.556 27.4465C179.974 26.2281 181.501 25.1144 182.922 23.8966" stroke="black" stroke-width="8" stroke-miterlimit="1.5" stroke-linecap="round" stroke-linejoin="round"/>
<path d="M198.039 42.46C186.904 47.5694 174.332 52.1179 162.306 55.565" stroke="black" stroke-width="8" stroke-miterlimit="1.5" stroke-linecap="round" stroke-linejoin="round"/>
<path d="M111.188 54.4961C100.299 48.905 89.1024 43.9518 77.9541 38.7897" stroke="black" stroke-width="8" stroke-miterlimit="1.5" stroke-linecap="round" stroke-linejoin="round"/>
<path d="M108.831 62.9594C106.62 63.0258 104.416 63.1026 102.216 63.3054" stroke="black" stroke-width="8" stroke-miterlimit="1.5" stroke-linecap="round" stroke-linejoin="round"/>
<path d="M94.2375 63.7018C88.3516 63.9745 82.3795 63.9227 76.5225 64.488" stroke="black" stroke-width="8" stroke-miterlimit="1.5" stroke-linecap="round" stroke-linejoin="round"/>
<path d="M162.853 65.9359C165.498 66.0119 168.503 66.162 171.133 66.6281" stroke="black" stroke-width="8" stroke-miterlimit="1.5" stroke-linecap="round" stroke-linejoin="round"/>
<path d="M179.671 68.3315C188.23 69.1126 196.561 71.1426 205.001 72.4122" stroke="black" stroke-width="8" stroke-miterlimit="1.5" stroke-linecap="round" stroke-linejoin="round"/>
<path d="M119.01 69.8481C106.003 78.4203 92.0564 85.7125 79.0859 94.3537" stroke="black" stroke-width="8" stroke-miterlimit="1.5" stroke-linecap="round" stroke-linejoin="round"/>
<path d="M122.111 80.8909C116.085 88.013 112.161 96.3763 107.238 104.057" stroke="black" stroke-width="8" stroke-miterlimit="1.5" stroke-linecap="round" stroke-linejoin="round"/>
<path d="M119.074 122.111C120.159 116.999 122.343 111.97 124.014 106.991C125.1 103.754 125.721 100.249 127.462 97.2089" stroke="black" stroke-width="8" stroke-miterlimit="1.5" stroke-linecap="round" stroke-linejoin="round"/>
<path d="M130.597 91.2617C131.068 90.2389 131.367 89.1575 131.878 88.1503" stroke="black" stroke-width="8" stroke-miterlimit="1.5" stroke-linecap="round" stroke-linejoin="round"/>
<path d="M141.154 83.5715C144.574 93.9355 146.956 104.583 150.07 115.033" stroke="black" stroke-width="8" stroke-miterlimit="1.5" stroke-linecap="round" stroke-linejoin="round"/>
<path d="M154.559 77.3999C160.04 82.6518 166.868 86.924 172.13 92.2976" stroke="black" stroke-width="8" stroke-miterlimit="1.5" stroke-linecap="round" stroke-linejoin="round"/>
<path d="M179.909 98.0997C181.287 99.4876 182.888 100.803 184.425 102.056" stroke="black" stroke-width="8" stroke-miterlimit="1.5" stroke-linecap="round" stroke-linejoin="round"/>
</svg>