<svg width="157" height="310" viewBox="0 0 157 310" fill="none" xmlns="http://www.w3.org/2000/svg">
<path d="M4.37891 255.969C4.43099 255.76 4.48307 255.148 4.53516 254.133C4.58724 253.091 4.61328 251.789 4.61328 250.227V242.883C4.61328 241.19 4.58724 239.823 4.53516 238.781C4.48307 237.74 4.43099 237.141 4.37891 236.984L1.99609 236.594L2.07422 235.07H11.3711C13.9232 235.07 15.8503 235.552 17.1523 236.516C18.4805 237.453 19.1445 238.807 19.1445 240.578C19.1445 242.01 18.5846 243.221 17.4648 244.211C16.3451 245.201 14.8867 245.76 13.0898 245.891L12.6211 245.617C15.0951 245.695 16.9961 246.242 18.3242 247.258C19.6523 248.247 20.3164 249.628 20.3164 251.398C20.3164 253.43 19.444 255.044 17.6992 256.242C15.9544 257.414 13.5846 258 10.5898 258H2.07422L1.99609 256.516L4.37891 255.969ZM7.89453 251.086C7.89453 252.232 7.90755 253.273 7.93359 254.211C7.95964 255.122 7.98568 255.695 8.01172 255.93C8.35026 255.982 8.80599 256.047 9.37891 256.125C9.95182 256.177 10.4076 256.203 10.7461 256.203C12.7513 256.203 14.2487 255.839 15.2383 255.109C16.2539 254.38 16.7617 253.273 16.7617 251.789C16.7617 250.253 16.2279 249.107 15.1602 248.352C14.1185 247.57 12.543 247.18 10.4336 247.18C9.44401 247.18 8.75391 247.18 8.36328 247.18C7.9987 247.18 7.67318 247.206 7.38672 247.258V245.227C7.88151 245.253 8.35026 245.279 8.79297 245.305C9.23568 245.305 9.71745 245.305 10.2383 245.305C11.957 245.305 13.2721 244.927 14.1836 244.172C15.1211 243.417 15.5898 242.349 15.5898 240.969C15.5898 239.615 15.1602 238.586 14.3008 237.883C13.4414 237.154 12.2044 236.789 10.5898 236.789H7.97266C7.94661 236.971 7.92057 237.557 7.89453 238.547C7.89453 239.536 7.89453 240.643 7.89453 241.867V251.086ZM39.8867 255.266L42.3477 255.891V257.18L37.2695 258.43L36.6836 257.922L36.7227 255.461L36.6055 255.422C35.8503 256.49 35.069 257.245 34.2617 257.688C33.4805 258.104 32.6341 258.312 31.7227 258.312C29.9779 258.312 28.5195 257.779 27.3477 256.711C26.1758 255.617 25.5898 253.99 25.5898 251.828V248.469C25.5898 247.74 25.5638 247.036 25.5117 246.359C25.4857 245.656 25.4466 244.953 25.3945 244.25L22.7383 243.703V242.414L28.0508 240.969L28.7539 241.594C28.7018 242.401 28.6628 243.26 28.6367 244.172C28.6107 245.083 28.5977 246.034 28.5977 247.023L28.5586 251.32C28.5586 252.935 28.9362 254.094 29.6914 254.797C30.4466 255.474 31.4102 255.812 32.582 255.812C33.2852 255.812 34.0013 255.63 34.7305 255.266C35.4596 254.901 36.0977 254.276 36.6445 253.391V248.859C36.6445 248.286 36.6315 247.727 36.6055 247.18C36.6055 246.607 36.5924 246.073 36.5664 245.578C36.5404 245.057 36.5013 244.615 36.4492 244.25L33.5977 243.703V242.414L39.1055 240.969L39.6914 241.516C39.6654 242.245 39.6393 242.896 39.6133 243.469C39.6133 244.042 39.6133 244.615 39.6133 245.188C39.6133 245.734 39.6133 246.359 39.6133 247.062V249.836C39.6133 251.268 39.6393 252.427 39.6914 253.312C39.7695 254.172 39.8346 254.823 39.8867 255.266ZM50.9805 258.312C50.0169 258.312 49.0534 258.208 48.0898 258C47.1263 257.766 46.306 257.466 45.6289 257.102L45.4336 252.922H47.3477L48.1289 255.734C49.0404 256.359 50.082 256.672 51.2539 256.672C52.1393 256.672 52.8555 256.464 53.4023 256.047C53.9492 255.604 54.2227 255.018 54.2227 254.289C54.2227 253.612 53.9753 253.026 53.4805 252.531C52.9857 252.01 52.0221 251.451 50.5898 250.852C48.7409 250.044 47.4388 249.276 46.6836 248.547C45.9284 247.792 45.5508 246.828 45.5508 245.656C45.5508 244.719 45.8242 243.898 46.3711 243.195C46.944 242.466 47.7253 241.906 48.7148 241.516C49.7044 241.099 50.8503 240.891 52.1523 240.891C52.8815 240.891 53.6237 240.956 54.3789 241.086C55.1341 241.216 55.7591 241.385 56.2539 241.594L56.6836 245.656H54.8477L53.9102 243C53.6497 242.844 53.3372 242.727 52.9727 242.648C52.6081 242.544 52.2174 242.492 51.8008 242.492C50.8893 242.492 50.1602 242.714 49.6133 243.156C49.0664 243.573 48.793 244.12 48.793 244.797C48.793 245.578 49.0924 246.216 49.6914 246.711C50.2904 247.18 51.3451 247.766 52.8555 248.469C54.5742 249.25 55.7721 250.018 56.4492 250.773C57.1263 251.529 57.4648 252.44 57.4648 253.508C57.4648 254.914 56.8529 256.073 55.6289 256.984C54.4049 257.87 52.8555 258.312 50.9805 258.312ZM68.6758 258.312C67.2174 258.312 65.8763 257.987 64.6523 257.336C63.4284 256.659 62.4518 255.695 61.7227 254.445C60.9935 253.169 60.6289 251.659 60.6289 249.914C60.6289 248.221 61.0065 246.698 61.7617 245.344C62.543 243.964 63.5977 242.883 64.9258 242.102C66.2799 241.294 67.7904 240.891 69.457 240.891C70.6029 240.891 71.5664 241.034 72.3477 241.32C73.1289 241.607 73.7148 241.984 74.1055 242.453C74.5221 242.922 74.7305 243.417 74.7305 243.938C74.7305 244.354 74.6003 244.706 74.3398 244.992C74.0794 245.253 73.7148 245.383 73.2461 245.383C72.8294 245.383 72.4648 245.305 72.1523 245.148C71.8398 244.992 71.4622 244.68 71.0195 244.211L69.0273 242.219L70.4336 242.609C69.3919 242.375 68.3893 242.479 67.4258 242.922C66.4622 243.339 65.668 244.081 65.043 245.148C64.418 246.19 64.1055 247.544 64.1055 249.211C64.1055 251.294 64.6263 252.896 65.668 254.016C66.7357 255.135 68.0638 255.695 69.6523 255.695C70.6419 255.695 71.4883 255.513 72.1914 255.148C72.9206 254.784 73.6107 254.198 74.2617 253.391L75.3164 254.289C74.5872 255.643 73.6628 256.659 72.543 257.336C71.4232 257.987 70.1341 258.312 68.6758 258.312ZM83.2852 258.312C82.2435 258.312 81.319 258.104 80.5117 257.688C79.7044 257.271 79.0664 256.737 78.5977 256.086C78.1549 255.435 77.9336 254.758 77.9336 254.055C77.9336 253.169 78.2201 252.44 78.793 251.867C79.3659 251.294 80.3034 250.799 81.6055 250.383L87.543 248.391V246.398C87.543 245.747 87.3477 245.161 86.957 244.641C86.5664 244.094 86.0456 243.664 85.3945 243.352C84.7435 243.039 84.0143 242.883 83.207 242.883C82.556 242.883 82.1133 243.026 81.8789 243.312C81.6445 243.573 81.5013 244.107 81.4492 244.914L81.3711 246.555C80.4336 246.763 79.6393 246.737 78.9883 246.477C78.3372 246.19 78.0117 245.734 78.0117 245.109C78.0117 244.667 78.194 244.224 78.5586 243.781C78.9492 243.339 79.457 242.922 80.082 242.531C80.707 242.115 81.3841 241.763 82.1133 241.477C82.8424 241.19 83.5586 240.995 84.2617 240.891C86.1888 240.891 87.7253 241.398 88.8711 242.414C90.043 243.43 90.6419 244.758 90.668 246.398L90.5898 252.961C90.5898 253.456 90.6029 253.938 90.6289 254.406C90.681 254.875 90.7461 255.227 90.8242 255.461L93.3242 255.93V257.141L91.4102 257.844C91.0456 257.974 90.707 258.078 90.3945 258.156C90.082 258.26 89.8216 258.312 89.6133 258.312C88.806 258.312 88.2852 257.857 88.0508 256.945L87.6211 255.422H88.207C87.3477 256.385 86.5143 257.115 85.707 257.609C84.9258 258.078 84.1185 258.312 83.2852 258.312ZM84.3398 256.008C84.9388 256.008 85.4987 255.878 86.0195 255.617C86.5404 255.331 87.0482 254.901 87.543 254.328V250.227L83.168 251.398C82.543 251.555 82.0872 251.802 81.8008 252.141C81.5404 252.479 81.4102 252.909 81.4102 253.43C81.4102 254.081 81.6966 254.68 82.2695 255.227C82.8685 255.747 83.5586 256.008 84.3398 256.008ZM109.105 258.43L108.52 257.922L108.559 255.383L108.441 255.344C107.66 256.438 106.853 257.206 106.02 257.648C105.212 258.091 104.353 258.312 103.441 258.312C101.957 258.312 100.629 257.974 99.457 257.297C98.3112 256.594 97.3997 255.63 96.7227 254.406C96.0456 253.182 95.707 251.776 95.707 250.188C95.707 248.807 95.9414 247.544 96.4102 246.398C96.8789 245.253 97.5169 244.276 98.3242 243.469C99.1576 242.635 100.095 241.997 101.137 241.555C102.178 241.112 103.259 240.891 104.379 240.891C105.108 240.891 105.85 240.982 106.605 241.164C107.361 241.346 107.999 241.633 108.52 242.023C108.52 241.555 108.507 240.943 108.48 240.188C108.48 239.432 108.467 238.651 108.441 237.844C108.441 237.01 108.428 236.281 108.402 235.656C108.402 235.005 108.389 234.562 108.363 234.328L105.316 233.781L105.238 232.492L110.98 230.891L111.684 231.438C111.632 233.052 111.592 234.615 111.566 236.125C111.54 237.635 111.527 239.211 111.527 240.852L111.488 249.836C111.488 251.164 111.514 252.31 111.566 253.273C111.645 254.211 111.697 254.875 111.723 255.266L114.223 255.891V257.18L109.105 258.43ZM104.418 255.695C105.173 255.695 105.876 255.539 106.527 255.227C107.178 254.888 107.842 254.302 108.52 253.469V245.07C108.025 244.185 107.4 243.56 106.645 243.195C105.889 242.831 105.134 242.648 104.379 242.648C102.738 242.648 101.449 243.26 100.512 244.484C99.6003 245.682 99.1445 247.245 99.1445 249.172C99.1445 251.229 99.6523 252.831 100.668 253.977C101.71 255.122 102.96 255.695 104.418 255.695ZM125.238 258.312C123.546 258.312 122.061 257.948 120.785 257.219C119.535 256.49 118.559 255.474 117.855 254.172C117.152 252.844 116.801 251.333 116.801 249.641C116.801 247.87 117.191 246.333 117.973 245.031C118.754 243.729 119.796 242.714 121.098 241.984C122.4 241.255 123.832 240.891 125.395 240.891C127.009 240.891 128.415 241.255 129.613 241.984C130.837 242.688 131.775 243.69 132.426 244.992C133.103 246.268 133.441 247.766 133.441 249.484C133.441 251.125 133.077 252.609 132.348 253.938C131.618 255.266 130.629 256.333 129.379 257.141C128.155 257.922 126.775 258.312 125.238 258.312ZM125.629 256.477C126.514 256.477 127.283 256.216 127.934 255.695C128.585 255.148 129.092 254.406 129.457 253.469C129.822 252.505 130.004 251.411 130.004 250.188C130.004 247.948 129.535 246.138 128.598 244.758C127.686 243.352 126.475 242.648 124.965 242.648C123.559 242.648 122.426 243.234 121.566 244.406C120.733 245.578 120.316 247.128 120.316 249.055C120.316 250.513 120.538 251.802 120.98 252.922C121.449 254.042 122.087 254.914 122.895 255.539C123.702 256.164 124.613 256.477 125.629 256.477ZM136.332 258L136.215 256.594L138.637 256.008C138.663 255.878 138.689 255.643 138.715 255.305C138.741 254.966 138.754 254.51 138.754 253.938C138.78 253.365 138.793 252.661 138.793 251.828L138.832 248.781C138.832 247.922 138.793 247.076 138.715 246.242C138.663 245.409 138.598 244.745 138.52 244.25L136.02 243.703V242.414L141.254 240.969L141.801 241.516L141.645 244.797L141.762 244.836C142.543 243.326 143.337 242.31 144.145 241.789C144.952 241.242 145.707 240.969 146.41 240.969C147.009 240.969 147.504 241.125 147.895 241.438C148.311 241.724 148.52 242.167 148.52 242.766C148.52 243.391 148.298 243.872 147.855 244.211C147.439 244.523 146.905 244.68 146.254 244.68C145.785 244.68 145.329 244.576 144.887 244.367C144.47 244.159 144.066 243.872 143.676 243.508L144.379 243.742C143.884 244.055 143.415 244.497 142.973 245.07C142.53 245.617 142.126 246.307 141.762 247.141L141.801 250.773C141.827 251.424 141.853 252.102 141.879 252.805C141.905 253.508 141.931 254.146 141.957 254.719C141.983 255.266 142.009 255.695 142.035 256.008L145.434 256.516L145.355 258H136.332ZM33.0312 302L32.9531 300.555L35.4922 300.008C35.5443 299.747 35.5833 299.318 35.6094 298.719C35.6354 298.12 35.6484 297.326 35.6484 296.336C35.6745 295.346 35.6875 294.135 35.6875 292.703V287.82C35.6875 286.831 35.6745 285.815 35.6484 284.773C35.6484 283.732 35.6354 282.755 35.6094 281.844C35.6094 280.906 35.5964 280.112 35.5703 279.461C35.5703 278.784 35.5573 278.341 35.5312 278.133L32.6406 277.742L32.5625 276.492L38.1484 274.891L38.8906 275.438C38.8646 276.531 38.8385 277.625 38.8125 278.719C38.7865 279.812 38.7604 281.023 38.7344 282.352C38.7344 283.68 38.7344 285.281 38.7344 287.156L38.6953 293.445C38.6953 294.982 38.7083 296.375 38.7344 297.625C38.7865 298.849 38.8385 299.643 38.8906 300.008L41.4297 300.555L41.3516 302H33.0312ZM52.1328 302.312C50.6224 302.312 49.2552 301.974 48.0312 301.297C46.8333 300.62 45.8698 299.656 45.1406 298.406C44.4375 297.13 44.0859 295.633 44.0859 293.914C44.0859 292.065 44.4635 290.464 45.2188 289.109C45.974 287.755 46.9635 286.714 48.1875 285.984C49.4115 285.229 50.7266 284.865 52.1328 284.891C54.1641 284.917 55.7526 285.594 56.8984 286.922C58.0443 288.25 58.6172 290.125 58.6172 292.547V293.25H46.625V291.531H56.0391L55.6094 292.039V291.219C55.6094 289.708 55.2708 288.549 54.5938 287.742C53.9167 286.935 52.9922 286.531 51.8203 286.531C51.0911 286.531 50.388 286.753 49.7109 287.195C49.0339 287.612 48.487 288.263 48.0703 289.148C47.6536 290.008 47.4453 291.102 47.4453 292.43V292.898C47.4453 295.034 47.9661 296.701 49.0078 297.898C50.0755 299.096 51.4427 299.695 53.1094 299.695C54.0208 299.695 54.8411 299.513 55.5703 299.148C56.2995 298.784 57.0026 298.198 57.6797 297.391L58.6562 298.289C57.9271 299.643 57.0026 300.659 55.8828 301.336C54.763 301.987 53.513 302.312 52.1328 302.312ZM52.6016 283.172L51.0391 282.664L54.9062 275.555L58.0312 276.453L52.6016 283.172ZM77.6406 302H70.4922L70.4141 300.594L72.25 300.008L68.3828 294.812L67.3672 293.602L62.5234 287.195L60.6875 286.609L60.7656 285.203H67.7578L67.875 286.609L66.2344 287.195L69.5156 291.648L70.5312 292.898L75.8828 300.008L77.7188 300.594L77.6406 302ZM72.7969 287.195L71.1562 286.609L71.2734 285.203H76.8203L76.9375 286.609L75.1016 287.195L70.5312 292.898L68.3828 294.812L64.6328 300.008L66.4688 300.594L66.3906 302H60.6094L60.5312 300.594L62.3672 300.008L67.3672 293.602L69.5156 291.648L72.7969 287.195ZM79.3984 302L79.3203 300.555L81.9375 300.008C81.9635 299.904 81.9766 299.721 81.9766 299.461C82.0026 299.201 82.0286 298.784 82.0547 298.211C82.0807 297.638 82.0938 296.844 82.0938 295.828V293.25C82.0938 292.182 82.0677 291.206 82.0156 290.32C81.9635 289.435 81.8984 288.745 81.8203 288.25L79.2031 287.703V286.414L84.75 284.969L85.3359 285.516C85.2578 286.323 85.1927 287.117 85.1406 287.898C85.1146 288.68 85.1016 289.591 85.1016 290.633V295.555C85.1016 296.753 85.1146 297.742 85.1406 298.523C85.1927 299.305 85.2448 299.799 85.2969 300.008L87.9141 300.555L87.8359 302H79.3984ZM83.6172 280.555C82.9661 280.555 82.3932 280.333 81.8984 279.891C81.4297 279.448 81.1953 278.901 81.1953 278.25C81.1953 277.599 81.4297 277.052 81.8984 276.609C82.3932 276.167 82.9661 275.945 83.6172 275.945C84.2943 275.945 84.8542 276.167 85.2969 276.609C85.7396 277.052 85.9609 277.599 85.9609 278.25C85.9609 278.901 85.7396 279.448 85.2969 279.891C84.8542 280.333 84.2943 280.555 83.6172 280.555ZM98.4609 302.312C97.0026 302.312 95.6615 301.987 94.4375 301.336C93.2135 300.659 92.237 299.695 91.5078 298.445C90.7786 297.169 90.4141 295.659 90.4141 293.914C90.4141 292.221 90.7917 290.698 91.5469 289.344C92.3281 287.964 93.3828 286.883 94.7109 286.102C96.0651 285.294 97.5755 284.891 99.2422 284.891C100.388 284.891 101.352 285.034 102.133 285.32C102.914 285.607 103.5 285.984 103.891 286.453C104.307 286.922 104.516 287.417 104.516 287.938C104.516 288.354 104.385 288.706 104.125 288.992C103.865 289.253 103.5 289.383 103.031 289.383C102.615 289.383 102.25 289.305 101.938 289.148C101.625 288.992 101.247 288.68 100.805 288.211L98.8125 286.219L100.219 286.609C99.1771 286.375 98.1745 286.479 97.2109 286.922C96.2474 287.339 95.4531 288.081 94.8281 289.148C94.2031 290.19 93.8906 291.544 93.8906 293.211C93.8906 295.294 94.4115 296.896 95.4531 298.016C96.5208 299.135 97.849 299.695 99.4375 299.695C100.427 299.695 101.273 299.513 101.977 299.148C102.706 298.784 103.396 298.198 104.047 297.391L105.102 298.289C104.372 299.643 103.448 300.659 102.328 301.336C101.208 301.987 99.9193 302.312 98.4609 302.312ZM115.258 302.312C113.565 302.312 112.081 301.948 110.805 301.219C109.555 300.49 108.578 299.474 107.875 298.172C107.172 296.844 106.82 295.333 106.82 293.641C106.82 291.87 107.211 290.333 107.992 289.031C108.773 287.729 109.815 286.714 111.117 285.984C112.419 285.255 113.852 284.891 115.414 284.891C117.029 284.891 118.435 285.255 119.633 285.984C120.857 286.688 121.794 287.69 122.445 288.992C123.122 290.268 123.461 291.766 123.461 293.484C123.461 295.125 123.096 296.609 122.367 297.938C121.638 299.266 120.648 300.333 119.398 301.141C118.174 301.922 116.794 302.312 115.258 302.312ZM115.648 300.477C116.534 300.477 117.302 300.216 117.953 299.695C118.604 299.148 119.112 298.406 119.477 297.469C119.841 296.505 120.023 295.411 120.023 294.188C120.023 291.948 119.555 290.138 118.617 288.758C117.706 287.352 116.495 286.648 114.984 286.648C113.578 286.648 112.445 287.234 111.586 288.406C110.753 289.578 110.336 291.128 110.336 293.055C110.336 294.513 110.557 295.802 111 296.922C111.469 298.042 112.107 298.914 112.914 299.539C113.721 300.164 114.633 300.477 115.648 300.477Z" fill="black"/>
<path d="M67.2239 33.7114V105.224C67.2239 105.224 46.5728 113.018 39.2773 127.889C31.9817 142.76 28.2027 165.648 37.5146 181.51C46.8265 197.371 61.6778 201.056 77.7998 201.15C99.8307 201.277 109.525 191.09 115.065 183.023C120.604 174.955 126.962 155.03 120.604 137.45C114.183 119.699 106.63 105.849 85.7317 105.084L84.0937 33.7027C84.0937 33.7027 84.5989 28.1632 75.7834 28.6728C66.968 29.1823 67.2239 33.7114 67.2239 33.7114Z" stroke="black" stroke-width="7.18829" stroke-linecap="round" stroke-linejoin="round"/>
<path d="M35.8574 136.251C35.8574 136.251 64.3289 158.978 120.054 136.251" stroke="black" stroke-width="7.18829" stroke-linecap="round" stroke-linejoin="round"/>
<path d="M76.5205 160.294L78.5347 183.961" stroke="black" stroke-width="7.18829" stroke-linecap="round" stroke-linejoin="round"/>
<path d="M69.7236 159.538L86.5913 178.17" stroke="black" stroke-width="7.18829" stroke-linecap="round" stroke-linejoin="round"/>
<path d="M67.2041 179.178L88.1023 160.294" stroke="black" stroke-width="7.18829" stroke-linecap="round" stroke-linejoin="round"/>
<path d="M67.2041 168.854L89.3619 169.611" stroke="black" stroke-width="7.18829" stroke-linecap="round" stroke-linejoin="round"/>
<path d="M106.768 161.425L107.614 171.373" stroke="black" stroke-width="3.02114" stroke-linecap="round" stroke-linejoin="round"/>
<path d="M103.91 161.108L111.002 168.939" stroke="black" stroke-width="3.02114" stroke-linecap="round" stroke-linejoin="round"/>
<path d="M102.852 169.364L111.636 161.425" stroke="black" stroke-width="3.02114" stroke-linecap="round" stroke-linejoin="round"/>
<path d="M102.852 165.022L112.166 165.342" stroke="black" stroke-width="3.02114" stroke-linecap="round" stroke-linejoin="round"/>
<path d="M49.4707 161.644L50.317 171.592" stroke="black" stroke-width="3.02114" stroke-linecap="round" stroke-linejoin="round"/>
<path d="M46.6123 161.327L53.7045 169.158" stroke="black" stroke-width="3.02114" stroke-linecap="round" stroke-linejoin="round"/>
<path d="M45.5547 169.582L54.3395 161.644" stroke="black" stroke-width="3.02114" stroke-linecap="round" stroke-linejoin="round"/>
<path d="M45.5547 165.241L54.8688 165.56" stroke="black" stroke-width="3.02114" stroke-linecap="round" stroke-linejoin="round"/>
<path d="M47.8682 117.017C47.8682 117.017 74.1221 138.384 108.693 117.017" stroke="black" stroke-width="7.18829" stroke-linecap="round" stroke-linejoin="round"/>
<path d="M85.8563 38.2427C85.8563 38.2427 119.097 27.4153 121.359 16.0849C123.62 4.75449 122.113 4 118.842 4C115.57 4 112.042 5.76265 108.769 9.53945C105.495 13.3163 85.9831 33.3331 85.9831 33.3331C85.9831 33.3331 84.975 33.8361 82.4578 34.5927L71.0006 37.2367C71.0006 37.2367 67.9805 37.9912 67.9805 39.5024C67.9805 41.0135 72.2603 41.0135 72.2603 41.0135L83.466 39.3755L85.8563 38.2427Z" stroke="black" stroke-width="7.18829" stroke-linecap="round" stroke-linejoin="round"/>
<path d="M97.9442 27.1638C97.9442 27.1638 112.546 9.53943 116.314 7.52528C120.082 5.51113 119.188 13.5787 118.582 15.5819C117.948 17.6726 116.568 19.8617 112.791 22.1295C109.014 24.3973 103.285 27.8439 99.9496 29.4294C99.2651 29.7553 97.4302 30.4376 96.9272 29.6831C96.4243 28.9286 97.9442 27.1638 97.9442 27.1638Z" stroke="black" stroke-width="7.18829" stroke-linecap="round" stroke-linejoin="round"/>
<path d="M117.742 10.342H107.9V20.1832H117.742V10.342Z" fill="black"/>
</svg>