<svg width="34" height="58" viewBox="0 0 34 58" fill="none" xmlns="http://www.w3.org/2000/svg">
<path d="M2.92532 31.6487C3.83097 32.6712 5.00493 32.8446 6.25797 33.1943C6.80158 33.3461 9.67873 34.2732 10.3433 35.7685C11.0079 37.2639 8.75511 51.6163 9.86076 56.2125C10.0073 56.8217 14.7532 57.7032 16.7041 57.6031C17.8435 57.5447 18.9304 57.1064 20.054 56.994C20.436 56.9558 20.3816 56.5259 20.3816 56.2125C20.3816 55.7546 20.5884 55.3228 20.5884 54.868C20.5884 54.2265 20.5467 50.553 21.1055 50.2425C24.3156 48.4591 27.9204 47.3918 30.6783 44.8241C31.6208 43.9466 32.3503 42.9315 32.7985 41.727C33.5004 39.8407 33.5702 37.7495 33.827 35.7685C34.242 32.5673 33.6971 29.4733 33.6202 26.2705C33.5822 24.6914 33.1023 23.3924 32.0687 22.2139C30.8884 20.8678 29.3756 20.6241 27.6444 20.8119C26.6813 20.9162 25.6802 21.7511 25.2885 22.6275C25.088 23.0762 25.1391 23.6124 25.1391 24.087C25.1391 24.9027 25.1666 25.7222 25.0817 26.5348C24.7056 30.135 24.622 33.7039 24.622 37.3257C24.622 38.1946 24.8883 39.5429 24.0532 40.124C23.4001 40.5782 22.7915 40.5803 22.0363 40.4169C20.7934 40.1482 19.9677 39.4708 19.9677 38.1416C19.9677 35.3909 20.1746 32.6378 20.1746 29.879C20.1746 27.7448 20.3816 25.6172 20.3816 23.4779C20.3816 21.0891 20.2781 18.7052 20.2781 16.3185C20.2781 14.1976 19.9677 12.1098 19.9677 9.9979C19.9677 8.51165 20.1627 6.8855 19.8069 5.42992C19.513 4.22765 19.3856 2.76244 18.7267 1.70079C18.2153 0.876882 17.4736 0 16.4512 0C15.4573 0 14.9577 0.184119 14.2276 0.833158C13.4842 1.49401 12.7641 2.41166 12.1878 3.22922C10.7127 5.3218 11.0731 8.22296 11.0731 10.63C11.0731 14.4787 10.8662 18.3277 10.8662 22.1793V25.3914C10.8662 25.7122 10.7596 26.3162 10.3433 26.3681C8.61486 26.5842 7.49354 25.3223 7.22329 23.7308C6.84174 21.4839 6.76526 19.1735 6.39587 16.9161C6.17778 15.5833 5.89057 14.5298 5.01684 13.4972C2.26675 10.2471 0.035142 16.356 0.00637743 18.5135C-0.00244934 19.1754 -0.00179601 19.8395 0.00637743 20.5015C0.0356038 22.8688 0.782696 25.3434 0.960209 27.7299C1.06939 29.1979 1.9716 30.5719 2.92532 31.6487Z" fill="black"/>
</svg>