<svg width="189" height="202" viewBox="0 0 189 202" fill="none" xmlns="http://www.w3.org/2000/svg">
<path d="M41.7656 194.352C39.5 194.352 37.4297 193.922 35.5547 193.062C33.7057 192.177 32.2214 190.875 31.1016 189.156C29.9818 187.411 29.4219 185.263 29.4219 182.711C29.4219 181.07 29.7083 179.534 30.2812 178.102C30.8542 176.643 31.6875 175.367 32.7812 174.273C33.901 173.154 35.2552 172.281 36.8438 171.656C38.4323 171.031 40.2422 170.719 42.2734 170.719C43.3411 170.719 44.474 170.823 45.6719 171.031C46.8698 171.24 47.9375 171.539 48.875 171.93L49.1484 177.281L47.3906 177.438L46.2188 173.727C45.724 173.388 45.0729 173.141 44.2656 172.984C43.4583 172.802 42.6771 172.711 41.9219 172.711C39.9688 172.711 38.3672 173.141 37.1172 174C35.8932 174.833 34.9818 175.953 34.3828 177.359C33.8099 178.766 33.5234 180.315 33.5234 182.008C33.5234 184.221 33.901 186.096 34.6562 187.633C35.4375 189.169 36.4792 190.328 37.7812 191.109C39.1094 191.891 40.5677 192.281 42.1562 192.281C42.9896 192.281 43.7448 192.19 44.4219 192.008C45.099 191.826 45.75 191.552 46.375 191.188L48.0938 187.516L49.8906 187.711L48.7969 192.633C47.9115 193.102 46.8568 193.505 45.6328 193.844C44.4089 194.182 43.1198 194.352 41.7656 194.352ZM60.8281 194.312C59.1354 194.312 57.651 193.948 56.375 193.219C55.125 192.49 54.1484 191.474 53.4453 190.172C52.7422 188.844 52.3906 187.333 52.3906 185.641C52.3906 183.87 52.7812 182.333 53.5625 181.031C54.3438 179.729 55.3854 178.714 56.6875 177.984C57.9896 177.255 59.4219 176.891 60.9844 176.891C62.599 176.891 64.0052 177.255 65.2031 177.984C66.4271 178.688 67.3646 179.69 68.0156 180.992C68.6927 182.268 69.0312 183.766 69.0312 185.484C69.0312 187.125 68.6667 188.609 67.9375 189.938C67.2083 191.266 66.2188 192.333 64.9688 193.141C63.7448 193.922 62.3646 194.312 60.8281 194.312ZM61.2188 192.477C62.1042 192.477 62.8724 192.216 63.5234 191.695C64.1745 191.148 64.6823 190.406 65.0469 189.469C65.4115 188.505 65.5938 187.411 65.5938 186.188C65.5938 183.948 65.125 182.138 64.1875 180.758C63.276 179.352 62.0651 178.648 60.5547 178.648C59.1484 178.648 58.0156 179.234 57.1562 180.406C56.3229 181.578 55.9062 183.128 55.9062 185.055C55.9062 186.513 56.1276 187.802 56.5703 188.922C57.0391 190.042 57.6771 190.914 58.4844 191.539C59.2917 192.164 60.2031 192.477 61.2188 192.477ZM80.2812 194.312C78.8229 194.312 77.4818 193.987 76.2578 193.336C75.0339 192.659 74.0573 191.695 73.3281 190.445C72.599 189.169 72.2344 187.659 72.2344 185.914C72.2344 184.221 72.612 182.698 73.3672 181.344C74.1484 179.964 75.2031 178.883 76.5312 178.102C77.8854 177.294 79.3958 176.891 81.0625 176.891C82.2083 176.891 83.1719 177.034 83.9531 177.32C84.7344 177.607 85.3203 177.984 85.7109 178.453C86.1276 178.922 86.3359 179.417 86.3359 179.938C86.3359 180.354 86.2057 180.706 85.9453 180.992C85.6849 181.253 85.3203 181.383 84.8516 181.383C84.4349 181.383 84.0703 181.305 83.7578 181.148C83.4453 180.992 83.0677 180.68 82.625 180.211L80.6328 178.219L82.0391 178.609C80.9974 178.375 79.9948 178.479 79.0312 178.922C78.0677 179.339 77.2734 180.081 76.6484 181.148C76.0234 182.19 75.7109 183.544 75.7109 185.211C75.7109 187.294 76.2318 188.896 77.2734 190.016C78.3411 191.135 79.6693 191.695 81.2578 191.695C82.2474 191.695 83.0938 191.513 83.7969 191.148C84.526 190.784 85.2161 190.198 85.8672 189.391L86.9219 190.289C86.1927 191.643 85.2682 192.659 84.1484 193.336C83.0286 193.987 81.7396 194.312 80.2812 194.312ZM88.25 194L88.1719 192.594L90.5938 192.008C90.6458 191.721 90.6849 191.292 90.7109 190.719C90.737 190.12 90.75 189.326 90.75 188.336C90.776 187.346 90.7891 186.135 90.7891 184.703V179.82C90.7891 178.935 90.776 177.984 90.75 176.969C90.75 175.953 90.737 174.977 90.7109 174.039C90.7109 173.076 90.6979 172.242 90.6719 171.539C90.6719 170.836 90.6589 170.367 90.6328 170.133L87.7422 169.742L87.6641 168.492L93.1719 166.891L93.9141 167.438C93.888 168.245 93.862 169.052 93.8359 169.859C93.8099 170.667 93.7839 171.539 93.7578 172.477C93.7578 173.388 93.7448 174.43 93.7188 175.602C93.7188 176.773 93.7188 178.128 93.7188 179.664L93.8359 179.703C94.7474 178.714 95.6328 177.997 96.4922 177.555C97.3776 177.112 98.3411 176.891 99.3828 176.891C100.346 176.891 101.245 177.138 102.078 177.633C102.938 178.128 103.628 178.883 104.148 179.898C104.695 180.888 104.969 182.164 104.969 183.727V187.945C104.969 188.883 104.995 189.729 105.047 190.484C105.099 191.214 105.151 191.721 105.203 192.008L107.625 192.594L107.547 194H99.6953L99.5781 192.594L101.844 192.008C101.87 191.799 101.896 191.539 101.922 191.227C101.948 190.914 101.961 190.523 101.961 190.055C101.987 189.56 102 188.948 102 188.219V184C102 182.88 101.805 181.982 101.414 181.305C101.049 180.602 100.568 180.094 99.9688 179.781C99.3698 179.443 98.7318 179.273 98.0547 179.273C97.2214 179.273 96.4271 179.495 95.6719 179.938C94.9167 180.354 94.2786 180.94 93.7578 181.695V187.555C93.7578 188.753 93.7708 189.742 93.7969 190.523C93.849 191.305 93.901 191.799 93.9531 192.008L96.3359 192.594L96.2578 194H88.25ZM109.578 194L109.5 192.555L112.117 192.008C112.143 191.904 112.156 191.721 112.156 191.461C112.182 191.201 112.208 190.784 112.234 190.211C112.26 189.638 112.273 188.844 112.273 187.828V185.25C112.273 184.182 112.247 183.206 112.195 182.32C112.143 181.435 112.078 180.745 112 180.25L109.383 179.703V178.414L114.93 176.969L115.516 177.516C115.438 178.323 115.372 179.117 115.32 179.898C115.294 180.68 115.281 181.591 115.281 182.633V187.555C115.281 188.753 115.294 189.742 115.32 190.523C115.372 191.305 115.424 191.799 115.477 192.008L118.094 192.555L118.016 194H109.578ZM113.797 172.555C113.146 172.555 112.573 172.333 112.078 171.891C111.609 171.448 111.375 170.901 111.375 170.25C111.375 169.599 111.609 169.052 112.078 168.609C112.573 168.167 113.146 167.945 113.797 167.945C114.474 167.945 115.034 168.167 115.477 168.609C115.919 169.052 116.141 169.599 116.141 170.25C116.141 170.901 115.919 171.448 115.477 171.891C115.034 172.333 114.474 172.555 113.797 172.555ZM120.242 194L120.164 192.594L122.586 192.008C122.612 191.826 122.625 191.591 122.625 191.305C122.651 191.018 122.677 190.602 122.703 190.055C122.729 189.508 122.742 188.766 122.742 187.828L122.781 184.781C122.807 184.234 122.794 183.674 122.742 183.102C122.716 182.529 122.677 181.995 122.625 181.5C122.573 180.979 122.521 180.562 122.469 180.25L119.969 179.703V178.414L125.203 176.969L125.867 177.594L125.672 179.703L125.789 179.742C126.596 178.727 127.43 177.997 128.289 177.555C129.174 177.112 130.073 176.891 130.984 176.891C131.896 176.891 132.781 177.138 133.641 177.633C134.5 178.128 135.203 178.883 135.75 179.898C136.323 180.914 136.609 182.216 136.609 183.805L136.648 187.945C136.648 188.883 136.661 189.729 136.688 190.484C136.74 191.214 136.805 191.721 136.883 192.008L139.227 192.594L139.109 194H131.492L131.375 192.594L133.523 192.008C133.549 191.799 133.576 191.539 133.602 191.227C133.628 190.914 133.641 190.523 133.641 190.055C133.667 189.56 133.68 188.948 133.68 188.219L133.641 183.922C133.641 182.802 133.458 181.904 133.094 181.227C132.755 180.549 132.299 180.055 131.727 179.742C131.154 179.43 130.542 179.273 129.891 179.273C129.083 179.273 128.328 179.469 127.625 179.859C126.922 180.25 126.297 180.862 125.75 181.695V187.555C125.75 188.753 125.763 189.729 125.789 190.484C125.841 191.214 125.893 191.721 125.945 192.008L128.25 192.594L128.133 194H120.242ZM142.273 194L142.156 192.594L144.383 192.008C144.409 191.799 144.422 191.539 144.422 191.227C144.448 190.914 144.474 190.523 144.5 190.055C144.526 189.56 144.539 188.948 144.539 188.219V183.961C144.539 182.815 144.344 181.904 143.953 181.227C143.562 180.549 143.068 180.055 142.469 179.742C141.896 179.43 141.31 179.273 140.711 179.273C139.826 179.273 139.005 179.495 138.25 179.938C137.495 180.38 136.818 181.057 136.219 181.969L135.477 180.523C136.388 179.273 137.352 178.362 138.367 177.789C139.409 177.19 140.503 176.891 141.648 176.891C142.742 176.891 143.732 177.151 144.617 177.672C145.503 178.193 146.206 178.948 146.727 179.938C147.247 180.927 147.508 182.125 147.508 183.531V187.945C147.508 188.883 147.521 189.729 147.547 190.484C147.599 191.214 147.651 191.721 147.703 192.008L150.125 192.594L150.047 194H142.273ZM152.195 194L152.117 192.555L154.734 192.008C154.76 191.904 154.773 191.721 154.773 191.461C154.799 191.201 154.826 190.784 154.852 190.211C154.878 189.638 154.891 188.844 154.891 187.828V185.25C154.891 184.182 154.865 183.206 154.812 182.32C154.76 181.435 154.695 180.745 154.617 180.25L152 179.703V178.414L157.547 176.969L158.133 177.516C158.055 178.323 157.99 179.117 157.938 179.898C157.911 180.68 157.898 181.591 157.898 182.633V187.555C157.898 188.753 157.911 189.742 157.938 190.523C157.99 191.305 158.042 191.799 158.094 192.008L160.711 192.555L160.633 194H152.195ZM157.156 175.172L155.594 174.664L159.461 167.555L162.586 168.453L157.156 175.172Z" fill="black"/>
<path d="M115.47 136.551C110.357 107.576 101.834 101.327 109.788 90.5258C117.742 79.7248 132.513 58.716 127.969 54.1713C123.424 49.6265 104.674 76.8968 104.674 76.8968C104.674 76.8968 112.061 47.3533 106.949 45.08C101.838 42.8068 92.75 75.761 92.75 75.761C92.75 75.761 96.159 45.6488 90.475 45.6488C84.791 45.6488 88.2 79.17 80.8132 75.761C73.4265 72.352 66.0415 64.9653 60.928 67.2385C55.8145 69.5118 78.54 83.7148 80.8132 89.3953L94.591 144.025" stroke="black" stroke-width="6.125" stroke-linecap="round" stroke-linejoin="round"/>
</svg>