<svg width="146" height="177" viewBox="0 0 146 177" fill="none" xmlns="http://www.w3.org/2000/svg">
<path d="M26.5383 158.84C26.0583 160.973 25.5916 163.24 25.1383 165.64C24.3783 165.64 22.9983 165.82 20.9983 166.18C18.4383 166.647 16.5449 166.88 15.3183 166.88C12.2783 166.88 9.61162 166.28 7.31828 165.08C5.02495 163.88 3.23828 162.167 1.95828 159.94C0.678281 157.7 0.0382813 155.213 0.0382813 152.48C0.0382813 149.787 0.711615 147.307 2.05828 145.04C3.41828 142.76 5.28495 140.987 7.65828 139.72C10.0316 138.453 12.7049 137.82 15.6783 137.82C16.9316 137.82 18.6116 137.953 20.7183 138.22C22.3583 138.433 23.5516 138.54 24.2983 138.54C24.4716 140.407 24.7783 142.673 25.2183 145.34C25.2183 145.553 25.0049 145.66 24.5783 145.66C24.3116 145.66 24.1516 145.553 24.0983 145.34C23.6183 143.527 22.5849 142.033 20.9983 140.86C19.4116 139.687 17.5849 139.1 15.5183 139.1C12.3849 139.1 9.75161 140.393 7.61828 142.98C5.49828 145.567 4.43828 148.733 4.43828 152.48C4.43828 156.12 5.49161 159.22 7.59828 161.78C9.70495 164.327 12.2783 165.6 15.3183 165.6C20.0783 165.6 23.4516 163.347 25.4383 158.84C25.5316 158.627 25.7116 158.52 25.9783 158.52C26.3516 158.52 26.5383 158.627 26.5383 158.84ZM47.6333 157.72C47.6333 160.373 46.7666 162.56 45.0333 164.28C43.3133 165.987 41.0799 166.84 38.3333 166.84C35.5866 166.84 33.3466 165.98 31.6133 164.26C29.8799 162.54 29.0133 160.36 29.0133 157.72C29.0133 155.04 29.8866 152.813 31.6333 151.04C33.3799 149.253 35.6133 148.36 38.3333 148.36C41.0666 148.36 43.2999 149.247 45.0333 151.02C46.7666 152.793 47.6333 155.027 47.6333 157.72ZM43.6133 157.68C43.6133 155.24 43.1399 153.293 42.1933 151.84C41.2599 150.373 39.9733 149.64 38.3333 149.64C36.7066 149.64 35.4199 150.373 34.4733 151.84C33.5266 153.307 33.0533 155.253 33.0533 157.68C33.0533 160.093 33.5199 162.013 34.4533 163.44C35.3866 164.853 36.6799 165.56 38.3333 165.56C39.9866 165.56 41.2799 164.86 42.2133 163.46C43.1466 162.047 43.6133 160.12 43.6133 157.68ZM65.8986 151.52C65.8986 152.613 65.3519 153.16 64.2586 153.16C63.7919 153.16 63.4053 153.06 63.0986 152.86C62.8053 152.66 62.5053 152.227 62.1986 151.56C61.8386 150.773 61.4519 150.26 61.0386 150.02C60.6386 149.767 60.1119 149.64 59.4586 149.64C57.8453 149.64 56.6119 150.313 55.7586 151.66C54.9186 152.993 54.4986 154.947 54.4986 157.52C54.4986 159.667 55.0319 161.4 56.0986 162.72C57.1653 164.027 58.5919 164.68 60.3786 164.68C62.4053 164.68 64.0119 164.047 65.1986 162.78L65.2986 162.74C65.4186 162.74 65.5319 162.82 65.6386 162.98C65.7586 163.127 65.8186 163.293 65.8186 163.48C65.8186 163.747 65.4253 164.207 64.6386 164.86C63.8653 165.513 63.0119 166.007 62.0786 166.34C61.1586 166.673 60.1786 166.84 59.1386 166.84C56.7519 166.84 54.7053 165.967 52.9986 164.22C51.3053 162.46 50.4586 160.24 50.4586 157.56C50.4586 154.907 51.3453 152.713 53.1186 150.98C54.9053 149.233 57.0186 148.36 59.4586 148.36C61.2586 148.36 62.7786 148.673 64.0186 149.3C65.2719 149.913 65.8986 150.653 65.8986 151.52ZM89.5152 165.68C89.5152 166.053 89.4085 166.24 89.1952 166.24C88.6618 166.24 88.0018 166.2 87.2152 166.12C86.3618 166.04 85.6152 166 84.9752 166C84.3085 166 83.5418 166.04 82.6752 166.12C81.8885 166.2 81.2285 166.24 80.6952 166.24C80.4818 166.24 80.3752 166.053 80.3752 165.68C80.3752 165.347 80.4818 165.167 80.6952 165.14C81.6152 165.033 82.2152 164.773 82.4952 164.36C82.7885 163.947 82.9352 163.08 82.9352 161.76V155.08C82.9352 152.2 81.6285 150.76 79.0152 150.76C77.3618 150.76 75.9352 151.427 74.7352 152.76V161.76C74.7352 162.96 74.9085 163.793 75.2552 164.26C75.6018 164.727 76.2818 165.02 77.2952 165.14C77.5085 165.167 77.6152 165.347 77.6152 165.68C77.6152 166.053 77.5085 166.24 77.2952 166.24C76.7485 166.24 76.0352 166.2 75.1552 166.12C74.1685 166.04 73.3485 166 72.6952 166C72.0285 166 71.2685 166.04 70.4152 166.12C69.6552 166.2 69.0018 166.24 68.4552 166.24C68.2418 166.24 68.1352 166.053 68.1352 165.68C68.1352 165.347 68.2418 165.167 68.4552 165.14C69.5752 165.02 70.3018 164.76 70.6352 164.36C70.9685 163.947 71.1352 163.08 71.1352 161.76V143.18C71.1352 142.1 71.0018 141.393 70.7352 141.06C70.4818 140.727 69.8818 140.507 68.9352 140.4C68.7218 140.373 68.6152 140.207 68.6152 139.9C68.6152 139.553 68.7218 139.38 68.9352 139.38C71.2152 138.847 72.9018 138.14 73.9952 137.26C74.1952 137.1 74.3618 137.02 74.4952 137.02C74.8685 137.02 75.0552 137.127 75.0552 137.34C74.8418 139.527 74.7352 141.847 74.7352 144.3V151.08C76.6418 149.267 78.5218 148.36 80.3752 148.36C82.2685 148.36 83.7552 148.88 84.8352 149.92C85.9285 150.96 86.4752 152.36 86.4752 154.12V161.76C86.4752 163.067 86.6418 163.927 86.9752 164.34C87.3218 164.74 88.0618 165.007 89.1952 165.14C89.4085 165.167 89.5152 165.347 89.5152 165.68ZM97.5236 141.5C97.5236 142.06 97.3169 142.547 96.9036 142.96C96.5036 143.373 96.0169 143.58 95.4436 143.58C94.8703 143.58 94.3769 143.373 93.9636 142.96C93.5636 142.547 93.3636 142.06 93.3636 141.5C93.3636 140.913 93.5636 140.42 93.9636 140.02C94.3636 139.62 94.8569 139.42 95.4436 139.42C96.0169 139.42 96.5036 139.62 96.9036 140.02C97.3169 140.42 97.5236 140.913 97.5236 141.5ZM100.324 165.68C100.324 166.053 100.217 166.24 100.004 166.24C99.4569 166.24 98.7569 166.2 97.9036 166.12C96.9436 166.04 96.1369 166 95.4836 166C94.8169 166 94.0169 166.04 93.0836 166.12C92.2436 166.2 91.5503 166.24 91.0036 166.24C90.7903 166.24 90.6836 166.053 90.6836 165.68C90.6836 165.347 90.7903 165.167 91.0036 165.14C92.1369 164.993 92.8636 164.72 93.1836 164.32C93.5169 163.92 93.6836 163.067 93.6836 161.76V154.36C93.6836 153.293 93.5436 152.593 93.2636 152.26C92.9969 151.927 92.4036 151.707 91.4836 151.6C91.2703 151.6 91.1636 151.427 91.1636 151.08C91.1636 150.76 91.2703 150.6 91.4836 150.6C92.8836 150.24 94.0303 149.86 94.9236 149.46C95.8169 149.047 96.3769 148.707 96.6036 148.44C96.7369 148.28 96.8836 148.2 97.0436 148.2C97.4169 148.2 97.6036 148.307 97.6036 148.52C97.3903 151.507 97.2836 153.827 97.2836 155.48V161.76C97.2836 163.067 97.4436 163.92 97.7636 164.32C98.0969 164.72 98.8436 164.993 100.004 165.14C100.217 165.167 100.324 165.347 100.324 165.68ZM133.755 165.68C133.755 166.053 133.648 166.24 133.435 166.24C132.901 166.24 132.248 166.2 131.475 166.12C130.621 166.04 129.861 166 129.195 166C128.541 166 127.788 166.04 126.935 166.12C126.161 166.2 125.501 166.24 124.955 166.24C124.741 166.24 124.635 166.053 124.635 165.68C124.635 165.347 124.741 165.167 124.955 165.14C125.861 165.033 126.455 164.773 126.735 164.36C127.015 163.947 127.155 163.08 127.155 161.76V155.08C127.155 153.573 126.868 152.48 126.295 151.8C125.721 151.107 124.821 150.76 123.595 150.76C121.981 150.76 120.648 151.307 119.595 152.4V161.76C119.595 163.08 119.741 163.947 120.035 164.36C120.328 164.773 120.928 165.033 121.835 165.14C122.048 165.167 122.155 165.347 122.155 165.68C122.155 166.053 122.048 166.24 121.835 166.24C121.301 166.24 120.681 166.2 119.975 166.12C119.201 166.04 118.495 166 117.855 166C117.188 166 116.461 166.04 115.675 166.12C114.968 166.2 114.348 166.24 113.815 166.24C113.601 166.24 113.495 166.053 113.495 165.68C113.495 165.347 113.601 165.167 113.815 165.14C114.735 165.033 115.335 164.773 115.615 164.36C115.908 163.947 116.055 163.08 116.055 161.76V155.08C116.055 153.587 115.761 152.493 115.175 151.8C114.588 151.107 113.681 150.76 112.455 150.76C111.681 150.76 110.995 150.907 110.395 151.2C109.808 151.493 109.175 152.013 108.495 152.76V161.76C108.495 163.08 108.635 163.947 108.915 164.36C109.208 164.773 109.815 165.033 110.735 165.14C110.948 165.167 111.055 165.347 111.055 165.68C111.055 166.053 110.948 166.24 110.735 166.24C110.188 166.24 109.521 166.2 108.735 166.12C107.868 166.04 107.108 166 106.455 166C105.788 166 105.028 166.04 104.175 166.12C103.415 166.2 102.761 166.24 102.215 166.24C102.001 166.24 101.895 166.053 101.895 165.68C101.895 165.347 102.001 165.167 102.215 165.14C103.348 164.993 104.075 164.72 104.395 164.32C104.728 163.92 104.895 163.067 104.895 161.76V154.36C104.895 153.293 104.755 152.593 104.475 152.26C104.208 151.927 103.615 151.707 102.695 151.6C102.481 151.6 102.375 151.427 102.375 151.08C102.375 150.76 102.481 150.6 102.695 150.6C104.015 150.267 105.115 149.893 105.995 149.48C106.875 149.053 107.428 148.707 107.655 148.44C107.788 148.28 107.935 148.2 108.095 148.2C108.468 148.2 108.655 148.307 108.655 148.52L108.495 151.04C110.415 149.253 112.201 148.36 113.855 148.36C116.388 148.36 118.108 149.333 119.015 151.28C121.041 149.333 123.021 148.36 124.955 148.36C126.781 148.36 128.201 148.88 129.215 149.92C130.241 150.96 130.755 152.36 130.755 154.12V161.76C130.755 163.067 130.915 163.92 131.235 164.32C131.568 164.72 132.301 164.993 133.435 165.14C133.648 165.167 133.755 165.347 133.755 165.68ZM144.62 165.68C144.62 166.053 144.514 166.24 144.3 166.24C143.754 166.24 143.054 166.2 142.2 166.12C141.24 166.04 140.434 166 139.78 166C139.114 166 138.314 166.04 137.38 166.12C136.54 166.2 135.847 166.24 135.3 166.24C135.087 166.24 134.98 166.053 134.98 165.68C134.98 165.347 135.087 165.167 135.3 165.14C136.434 164.993 137.16 164.72 137.48 164.32C137.814 163.92 137.98 163.067 137.98 161.76V154.36C137.98 153.293 137.84 152.593 137.56 152.26C137.294 151.927 136.7 151.707 135.78 151.6C135.567 151.6 135.46 151.427 135.46 151.08C135.46 150.76 135.567 150.6 135.78 150.6C137.18 150.24 138.327 149.86 139.22 149.46C140.114 149.047 140.674 148.707 140.9 148.44C141.034 148.28 141.18 148.2 141.34 148.2C141.714 148.2 141.9 148.307 141.9 148.52C141.687 151.507 141.58 153.827 141.58 155.48V161.76C141.58 163.067 141.74 163.92 142.06 164.32C142.394 164.72 143.14 164.993 144.3 165.14C144.514 165.167 144.62 165.347 144.62 165.68ZM145.58 140.7C145.58 141.02 145.46 141.253 145.22 141.4L138.58 145.5C138.46 145.58 138.34 145.62 138.22 145.62C138.087 145.62 137.954 145.54 137.82 145.38C137.687 145.22 137.62 145.06 137.62 144.9C137.62 144.727 137.68 144.587 137.8 144.48L143.46 139.14C143.594 139.007 143.767 138.94 143.98 138.94C144.367 138.94 144.727 139.133 145.06 139.52C145.407 139.907 145.58 140.3 145.58 140.7Z" fill="black"/>
<path fill-rule="evenodd" clip-rule="evenodd" d="M109.043 41.5212C65.2556 68.0657 57.8796 71.2213 40.6444 55.6381C44.9181 70.5292 42.9655 81.3589 35 92.4358C54.715 86.427 58.3116 91.9166 68.319 98.7872C62.1591 79.3395 70.7979 72.9408 109.043 41.5212Z" fill="white" stroke="black" stroke-width="8" stroke-miterlimit="1.5" stroke-linecap="round" stroke-linejoin="round"/>
<path d="M92.6069 81.0659C93.2323 83.1086 93.4803 85.2777 93.8825 87.3724" stroke="black" stroke-width="8" stroke-miterlimit="1.5" stroke-linecap="round" stroke-linejoin="round"/>
<path d="M84.3716 94.2329C85.994 93.9842 87.6326 93.5229 89.2366 93.1486" stroke="black" stroke-width="8" stroke-miterlimit="1.5" stroke-linecap="round" stroke-linejoin="round"/>
<path d="M95.8482 96.983C95.8428 98.9893 96.2023 101.583 96.8331 103.518" stroke="black" stroke-width="8" stroke-miterlimit="1.5" stroke-linecap="round" stroke-linejoin="round"/>
<path d="M101.024 91.2023C103.188 91.3774 105.467 90.5048 107.629 90.2351" stroke="black" stroke-width="8" stroke-miterlimit="1.5" stroke-linecap="round" stroke-linejoin="round"/>
<path d="M53.311 24C53.5451 26.2915 53.9334 28.5543 54.3883 30.8086" stroke="black" stroke-width="8" stroke-miterlimit="1.5" stroke-linecap="round" stroke-linejoin="round"/>
<path d="M44.3062 36.8531C46.0209 36.6996 47.6632 36.4867 49.3517 36.1789" stroke="black" stroke-width="8" stroke-miterlimit="1.5" stroke-linecap="round" stroke-linejoin="round"/>
<path d="M56.2017 40.3124C56.2373 42.4558 56.6645 44.7342 57.0992 46.842" stroke="black" stroke-width="8" stroke-miterlimit="1.5" stroke-linecap="round" stroke-linejoin="round"/>
<path d="M61.6172 34.4451C63.5692 33.9585 65.3753 33.3008 67.3943 33.0698" stroke="black" stroke-width="8" stroke-miterlimit="1.5" stroke-linecap="round" stroke-linejoin="round"/>
</svg>