<svg width="97" height="84" viewBox="0 0 97 84" fill="none" xmlns="http://www.w3.org/2000/svg">
<path fill-rule="evenodd" clip-rule="evenodd" d="M11.7042 36.2983C12.872 34.9004 34.0376 12.8219 40.1549 7.56181C41.4841 6.41879 46.3643 2.29197 48.5135 2.88326C49.1274 3.05222 51.118 4.82479 49.2297 8.71546C46.7857 13.7511 44.6879 18.8633 43.3956 24.2473C43.1707 25.1849 41.5214 30.1318 44.3083 29.3381C46.0747 28.835 50.8699 23.0378 52.255 21.7017C58.4955 15.6829 64.4758 8.92593 71.0543 3.16656C76.1754 -1.31664 80.1066 0.418846 78.9532 3.90259C76.4458 11.4767 59.3304 30.0002 61.1386 32.1423C64.0766 35.6234 81.2554 20.5054 88.1726 17.3459C92.4438 15.3952 97.3694 15.5235 96.9781 21.0041C96.7202 24.6181 91.0073 29.5447 88.2687 31.7047C81.8501 36.7678 74.805 41.1443 68.3893 46.2423C66.807 47.4997 61.121 51.4748 60.2984 53.1829C60.1978 53.3915 60.4335 53.3419 60.5623 53.3419C62.3106 53.3419 63.834 52.9281 65.532 52.5667C69.3027 51.7638 73.4081 51.5211 77.2729 51.771C85.8881 52.3289 84.0185 57.7608 79.9373 62.1126C77.2376 64.9911 73.9763 67.3562 70.7179 69.6694C57.2624 79.2224 40.9705 84.8909 23.8046 82.5562C12.6739 81.0423 1.35476 75.594 0.155699 64.2202C-0.906503 54.1452 3.52299 46.0921 11.7042 36.2983Z" fill="black"/>
</svg>