<svg width="127" height="177" viewBox="0 0 127 177" fill="none" xmlns="http://www.w3.org/2000/svg">
<path d="M28.7922 158.84C28.3122 160.973 27.8455 163.24 27.3922 165.64C26.6322 165.64 25.2522 165.82 23.2522 166.18C20.6922 166.647 18.7989 166.88 17.5722 166.88C14.5322 166.88 11.8655 166.28 9.57219 165.08C7.27885 163.88 5.49219 162.167 4.21219 159.94C2.93219 157.7 2.29219 155.213 2.29219 152.48C2.29219 149.787 2.96552 147.307 4.31219 145.04C5.67219 142.76 7.53885 140.987 9.91219 139.72C12.2855 138.453 14.9589 137.82 17.9322 137.82C19.1855 137.82 20.8655 137.953 22.9722 138.22C24.6122 138.433 25.8055 138.54 26.5522 138.54C26.7255 140.407 27.0322 142.673 27.4722 145.34C27.4722 145.553 27.2589 145.66 26.8322 145.66C26.5655 145.66 26.4055 145.553 26.3522 145.34C25.8722 143.527 24.8389 142.033 23.2522 140.86C21.6655 139.687 19.8389 139.1 17.7722 139.1C14.6389 139.1 12.0055 140.393 9.87219 142.98C7.75219 145.567 6.69219 148.733 6.69219 152.48C6.69219 156.12 7.74552 159.22 9.85219 161.78C11.9589 164.327 14.5322 165.6 17.5722 165.6C22.3322 165.6 25.7055 163.347 27.6922 158.84C27.7855 158.627 27.9655 158.52 28.2322 158.52C28.6055 158.52 28.7922 158.627 28.7922 158.84ZM49.9366 164.92C49.9366 165.2 49.8299 165.353 49.6166 165.38C47.1899 165.647 45.5299 166.113 44.6366 166.78C44.4499 166.927 44.2632 167 44.0766 167C43.8099 167 43.6766 166.893 43.6766 166.68L43.8366 164.16C41.8632 165.947 40.0766 166.84 38.4766 166.84C36.6499 166.84 35.2232 166.327 34.1966 165.3C33.1832 164.26 32.6766 162.853 32.6766 161.08V153.6C32.6766 152.413 32.5232 151.627 32.2166 151.24C31.9099 150.853 31.3032 150.66 30.3966 150.66C30.2232 150.66 30.0299 150.667 29.8166 150.68C29.6166 150.68 29.5166 150.507 29.5166 150.16C29.5166 149.733 29.6232 149.52 29.8366 149.52C31.3832 149.52 33.4099 149.22 35.9166 148.62C36.1566 148.62 36.2766 148.787 36.2766 149.12V160.12C36.2766 161.627 36.5632 162.727 37.1366 163.42C37.7099 164.1 38.6099 164.44 39.8366 164.44C40.6232 164.44 41.3166 164.293 41.9166 164C42.5166 163.707 43.1566 163.187 43.8366 162.44V153.6C43.8366 152.427 43.6766 151.647 43.3566 151.26C43.0499 150.86 42.4299 150.66 41.4966 150.66C41.3366 150.66 41.1499 150.667 40.9366 150.68C40.7366 150.68 40.6366 150.507 40.6366 150.16C40.6366 149.733 40.7432 149.52 40.9566 149.52C42.5032 149.52 44.5299 149.22 47.0366 148.62C47.2766 148.62 47.3966 148.787 47.3966 149.12V161.88C47.3966 162.8 47.5232 163.42 47.7766 163.74C48.0432 164.047 48.6566 164.267 49.6166 164.4C49.8299 164.4 49.9366 164.573 49.9366 164.92ZM67.2541 151.52C67.2541 152.613 66.7074 153.16 65.6141 153.16C65.1474 153.16 64.7607 153.06 64.4541 152.86C64.1607 152.66 63.8607 152.227 63.5541 151.56C63.1941 150.773 62.8074 150.26 62.3941 150.02C61.9941 149.767 61.4674 149.64 60.8141 149.64C59.2007 149.64 57.9674 150.313 57.1141 151.66C56.2741 152.993 55.8541 154.947 55.8541 157.52C55.8541 159.667 56.3874 161.4 57.4541 162.72C58.5207 164.027 59.9474 164.68 61.7341 164.68C63.7607 164.68 65.3674 164.047 66.5541 162.78L66.6541 162.74C66.7741 162.74 66.8874 162.82 66.9941 162.98C67.1141 163.127 67.1741 163.293 67.1741 163.48C67.1741 163.747 66.7807 164.207 65.9941 164.86C65.2207 165.513 64.3674 166.007 63.4341 166.34C62.5141 166.673 61.5341 166.84 60.4941 166.84C58.1074 166.84 56.0607 165.967 54.3541 164.22C52.6607 162.46 51.8141 160.24 51.8141 157.56C51.8141 154.907 52.7007 152.713 54.4741 150.98C56.2607 149.233 58.3741 148.36 60.8141 148.36C62.6141 148.36 64.1341 148.673 65.3741 149.3C66.6274 149.913 67.2541 150.653 67.2541 151.52ZM83.1706 166.68C82.424 166.68 81.7706 166.493 81.2106 166.12C80.664 165.76 80.2906 165.267 80.0906 164.64C78.664 166.107 76.7973 166.84 74.4906 166.84C73.2906 166.84 72.3106 166.473 71.5506 165.74C70.7906 164.993 70.4106 164.067 70.4106 162.96C70.4106 160.227 73.6506 158.013 80.1306 156.32L80.2506 153.2V153.1C80.2506 152.14 80.0106 151.38 79.5306 150.82C79.064 150.247 78.4373 149.96 77.6506 149.96C76.864 149.96 76.1973 150.153 75.6506 150.54C75.104 150.913 74.824 151.387 74.8106 151.96C74.7973 152.813 74.5706 153.48 74.1306 153.96C73.704 154.44 73.1306 154.68 72.4106 154.68C71.984 154.68 71.6373 154.553 71.3706 154.3C71.104 154.047 70.9706 153.707 70.9706 153.28C70.9706 152.253 71.904 151.18 73.7706 150.06C75.6373 148.927 77.3706 148.36 78.9706 148.36C80.4106 148.36 81.5773 148.787 82.4706 149.64C83.364 150.493 83.8106 151.64 83.8106 153.08V153.32L83.5306 162.36V162.5C83.5306 163.9 83.984 164.6 84.8906 164.6C85.3306 164.6 85.844 164.333 86.4306 163.8L86.5706 163.76C86.6773 163.76 86.7773 163.833 86.8706 163.98C86.964 164.113 87.0106 164.26 87.0106 164.42C87.0106 164.807 86.604 165.28 85.7906 165.84C84.9906 166.4 84.1173 166.68 83.1706 166.68ZM80.0906 157.68C76.1973 158.56 74.2506 160.013 74.2506 162.04C74.2506 163.933 74.984 164.88 76.4506 164.88C77.1573 164.88 77.8506 164.707 78.5306 164.36C79.224 164 79.6906 163.56 79.9306 163.04L80.0906 157.68ZM107.042 157.72C107.042 160.347 106.156 162.527 104.382 164.26C102.609 165.98 100.342 166.84 97.5822 166.84C95.9955 166.84 94.6355 166.533 93.5022 165.92V172.08C93.5022 173.373 93.6689 174.227 94.0022 174.64C94.3355 175.053 95.0755 175.333 96.2222 175.48C96.4355 175.48 96.5422 175.667 96.5422 176.04C96.5422 176.413 96.4355 176.6 96.2222 176.6C95.6755 176.6 94.9689 176.56 94.1022 176.48C93.1689 176.4 92.3822 176.36 91.7422 176.36C91.0755 176.36 90.2689 176.4 89.3222 176.48C88.4689 176.56 87.7689 176.6 87.2222 176.6C87.0089 176.6 86.9022 176.413 86.9022 176.04C86.9022 175.667 87.0089 175.48 87.2222 175.48C88.3555 175.333 89.0889 175.053 89.4222 174.64C89.7689 174.227 89.9422 173.373 89.9422 172.08V154.36C89.9422 153.293 89.8022 152.593 89.5222 152.26C89.2555 151.927 88.6489 151.707 87.7022 151.6C87.4889 151.6 87.3822 151.427 87.3822 151.08C87.3822 150.76 87.4889 150.6 87.7022 150.6C88.9955 150.28 90.0755 149.913 90.9422 149.5C91.8222 149.087 92.4022 148.733 92.6822 148.44C92.8289 148.28 92.9689 148.2 93.1022 148.2C93.4755 148.2 93.6622 148.307 93.6622 148.52L93.5022 151.04C94.2355 150.28 95.0822 149.647 96.0422 149.14C97.0022 148.62 97.8222 148.36 98.5022 148.36C101.129 148.36 103.209 149.22 104.742 150.94C106.276 152.647 107.042 154.907 107.042 157.72ZM103.022 157.68C103.022 155.453 102.536 153.72 101.562 152.48C100.602 151.227 99.2489 150.6 97.5022 150.6C96.7689 150.6 96.1022 150.753 95.5022 151.06C94.9155 151.367 94.2489 151.933 93.5022 152.76V162.56C93.5022 163.413 93.8822 164.127 94.6422 164.7C95.4022 165.273 96.3289 165.56 97.4222 165.56C99.2355 165.56 100.622 164.88 101.582 163.52C102.542 162.147 103.022 160.2 103.022 157.68ZM122.936 166.68C122.19 166.68 121.536 166.493 120.976 166.12C120.43 165.76 120.056 165.267 119.856 164.64C118.43 166.107 116.563 166.84 114.256 166.84C113.056 166.84 112.076 166.473 111.316 165.74C110.556 164.993 110.176 164.067 110.176 162.96C110.176 160.227 113.416 158.013 119.896 156.32L120.016 153.2V153.1C120.016 152.14 119.776 151.38 119.296 150.82C118.83 150.247 118.203 149.96 117.416 149.96C116.63 149.96 115.963 150.153 115.416 150.54C114.87 150.913 114.59 151.387 114.576 151.96C114.563 152.813 114.336 153.48 113.896 153.96C113.47 154.44 112.896 154.68 112.176 154.68C111.75 154.68 111.403 154.553 111.136 154.3C110.87 154.047 110.736 153.707 110.736 153.28C110.736 152.253 111.67 151.18 113.536 150.06C115.403 148.927 117.136 148.36 118.736 148.36C120.176 148.36 121.343 148.787 122.236 149.64C123.13 150.493 123.576 151.64 123.576 153.08V153.32L123.296 162.36V162.5C123.296 163.9 123.75 164.6 124.656 164.6C125.096 164.6 125.61 164.333 126.196 163.8L126.336 163.76C126.443 163.76 126.543 163.833 126.636 163.98C126.73 164.113 126.776 164.26 126.776 164.42C126.776 164.807 126.37 165.28 125.556 165.84C124.756 166.4 123.883 166.68 122.936 166.68ZM119.856 157.68C115.963 158.56 114.016 160.013 114.016 162.04C114.016 163.933 114.75 164.88 116.216 164.88C116.923 164.88 117.616 164.707 118.296 164.36C118.99 164 119.456 163.56 119.696 163.04L119.856 157.68ZM123.616 140.7C123.616 141.02 123.496 141.253 123.256 141.4L116.616 145.5C116.496 145.58 116.376 145.62 116.256 145.62C116.123 145.62 115.99 145.54 115.856 145.38C115.723 145.22 115.656 145.06 115.656 144.9C115.656 144.727 115.716 144.587 115.836 144.48L121.496 139.14C121.63 139.007 121.803 138.94 122.016 138.94C122.403 138.94 122.763 139.133 123.096 139.52C123.443 139.907 123.616 140.3 123.616 140.7Z" fill="black"/>
<path fill-rule="evenodd" clip-rule="evenodd" d="M56.2208 13.8917C56.2494 21.7759 53.568 36.0375 74.1945 39.4846C61.3903 41.3327 56.4973 51.2295 56.2232 63.924C55.9092 54.3417 57.2235 43.2771 36.2178 40.2443C56.3786 38.6503 56.0989 21.9941 56.2208 13.8917Z" fill="white" stroke="black" stroke-width="5" stroke-miterlimit="1.5" stroke-linecap="round" stroke-linejoin="round"/>
<path fill-rule="evenodd" clip-rule="evenodd" d="M76.2396 52.3546C76.2681 60.2389 70.8975 74.8778 91.524 78.3248C78.7197 80.1729 76.516 89.6924 76.242 102.387C75.928 92.8042 75.2858 81.6556 60.7158 78.4577C74.8384 76.7723 74.6002 63.1138 76.2396 52.3546Z" fill="white" stroke="black" stroke-width="5" stroke-miterlimit="1.5" stroke-linecap="round" stroke-linejoin="round"/>
<path d="M34.3428 11.6C37.672 15.4516 40.3117 19.9193 43.7281 23.6877" stroke="black" stroke-width="5" stroke-miterlimit="1.5" stroke-linecap="round" stroke-linejoin="round"/>
<path d="M66.6562 26.5378C69.1484 24.484 71.5048 22.1455 73.5241 19.6212" stroke="black" stroke-width="5" stroke-miterlimit="1.5" stroke-linecap="round" stroke-linejoin="round"/>
<path d="M44.5827 53.0723C41.2327 56.1772 38.1217 59.6341 35.0918 63.0522" stroke="black" stroke-width="5" stroke-miterlimit="1.5" stroke-linecap="round" stroke-linejoin="round"/>
<path d="M65.4126 60.1924C65.7783 60.7516 66.2194 61.2612 66.6178 61.7978" stroke="black" stroke-width="5" stroke-miterlimit="1.5" stroke-linecap="round" stroke-linejoin="round"/>
<path d="M61.2612 92.087C62.0583 91.2932 62.8837 90.5282 63.6686 89.7218" stroke="black" stroke-width="5" stroke-miterlimit="1.5" stroke-linecap="round" stroke-linejoin="round"/>
<path d="M84.709 66.2603C88.2364 63.0681 91.3046 59.5611 94.2746 55.8538" stroke="black" stroke-width="5" stroke-miterlimit="1.5" stroke-linecap="round" stroke-linejoin="round"/>
<path d="M85.5698 92.363C89.7285 94.9505 92.6226 100.278 95.5 104.17" stroke="black" stroke-width="5" stroke-miterlimit="1.5" stroke-linecap="round" stroke-linejoin="round"/>
</svg>