<svg width="174" height="198" viewBox="0 0 174 198" fill="none" xmlns="http://www.w3.org/2000/svg">
<path d="M41.7656 189.352C39.5 189.352 37.4297 188.922 35.5547 188.062C33.7057 187.177 32.2214 185.875 31.1016 184.156C29.9818 182.411 29.4219 180.263 29.4219 177.711C29.4219 176.07 29.7083 174.534 30.2812 173.102C30.8542 171.643 31.6875 170.367 32.7812 169.273C33.901 168.154 35.2552 167.281 36.8438 166.656C38.4323 166.031 40.2422 165.719 42.2734 165.719C43.3411 165.719 44.474 165.823 45.6719 166.031C46.8698 166.24 47.9375 166.539 48.875 166.93L49.1484 172.281L47.3906 172.438L46.2188 168.727C45.724 168.388 45.0729 168.141 44.2656 167.984C43.4583 167.802 42.6771 167.711 41.9219 167.711C39.9688 167.711 38.3672 168.141 37.1172 169C35.8932 169.833 34.9818 170.953 34.3828 172.359C33.8099 173.766 33.5234 175.315 33.5234 177.008C33.5234 179.221 33.901 181.096 34.6562 182.633C35.4375 184.169 36.4792 185.328 37.7812 186.109C39.1094 186.891 40.5677 187.281 42.1562 187.281C42.9896 187.281 43.7448 187.19 44.4219 187.008C45.099 186.826 45.75 186.552 46.375 186.188L48.0938 182.516L49.8906 182.711L48.7969 187.633C47.9115 188.102 46.8568 188.505 45.6328 188.844C44.4089 189.182 43.1198 189.352 41.7656 189.352ZM68.5625 186.266L71.0234 186.891V188.18L65.9453 189.43L65.3594 188.922L65.3984 186.461L65.2812 186.422C64.526 187.49 63.7448 188.245 62.9375 188.688C62.1562 189.104 61.3099 189.312 60.3984 189.312C58.6536 189.312 57.1953 188.779 56.0234 187.711C54.8516 186.617 54.2656 184.99 54.2656 182.828V179.469C54.2656 178.74 54.2396 178.036 54.1875 177.359C54.1615 176.656 54.1224 175.953 54.0703 175.25L51.4141 174.703V173.414L56.7266 171.969L57.4297 172.594C57.3776 173.401 57.3385 174.26 57.3125 175.172C57.2865 176.083 57.2734 177.034 57.2734 178.023L57.2344 182.32C57.2344 183.935 57.612 185.094 58.3672 185.797C59.1224 186.474 60.0859 186.812 61.2578 186.812C61.9609 186.812 62.6771 186.63 63.4062 186.266C64.1354 185.901 64.7734 185.276 65.3203 184.391V179.859C65.3203 179.286 65.3073 178.727 65.2812 178.18C65.2812 177.607 65.2682 177.073 65.2422 176.578C65.2161 176.057 65.1771 175.615 65.125 175.25L62.2734 174.703V173.414L67.7812 171.969L68.3672 172.516C68.3411 173.245 68.3151 173.896 68.2891 174.469C68.2891 175.042 68.2891 175.615 68.2891 176.188C68.2891 176.734 68.2891 177.359 68.2891 178.062V180.836C68.2891 182.268 68.3151 183.427 68.3672 184.312C68.4453 185.172 68.5104 185.823 68.5625 186.266ZM81.6484 189.312C80.1901 189.312 78.849 188.987 77.625 188.336C76.401 187.659 75.4245 186.695 74.6953 185.445C73.9661 184.169 73.6016 182.659 73.6016 180.914C73.6016 179.221 73.9792 177.698 74.7344 176.344C75.5156 174.964 76.5703 173.883 77.8984 173.102C79.2526 172.294 80.763 171.891 82.4297 171.891C83.5755 171.891 84.5391 172.034 85.3203 172.32C86.1016 172.607 86.6875 172.984 87.0781 173.453C87.4948 173.922 87.7031 174.417 87.7031 174.938C87.7031 175.354 87.5729 175.706 87.3125 175.992C87.0521 176.253 86.6875 176.383 86.2188 176.383C85.8021 176.383 85.4375 176.305 85.125 176.148C84.8125 175.992 84.4349 175.68 83.9922 175.211L82 173.219L83.4062 173.609C82.3646 173.375 81.362 173.479 80.3984 173.922C79.4349 174.339 78.6406 175.081 78.0156 176.148C77.3906 177.19 77.0781 178.544 77.0781 180.211C77.0781 182.294 77.599 183.896 78.6406 185.016C79.7083 186.135 81.0365 186.695 82.625 186.695C83.6146 186.695 84.4609 186.513 85.1641 186.148C85.8932 185.784 86.5833 185.198 87.2344 184.391L88.2891 185.289C87.5599 186.643 86.6354 187.659 85.5156 188.336C84.3958 188.987 83.1068 189.312 81.6484 189.312ZM96.2578 189.312C95.2161 189.312 94.2917 189.104 93.4844 188.688C92.6771 188.271 92.0391 187.737 91.5703 187.086C91.1276 186.435 90.9062 185.758 90.9062 185.055C90.9062 184.169 91.1927 183.44 91.7656 182.867C92.3385 182.294 93.276 181.799 94.5781 181.383L100.516 179.391V177.398C100.516 176.747 100.32 176.161 99.9297 175.641C99.5391 175.094 99.0182 174.664 98.3672 174.352C97.7161 174.039 96.987 173.883 96.1797 173.883C95.5286 173.883 95.0859 174.026 94.8516 174.312C94.6172 174.573 94.474 175.107 94.4219 175.914L94.3438 177.555C93.4062 177.763 92.612 177.737 91.9609 177.477C91.3099 177.19 90.9844 176.734 90.9844 176.109C90.9844 175.667 91.1667 175.224 91.5312 174.781C91.9219 174.339 92.4297 173.922 93.0547 173.531C93.6797 173.115 94.3568 172.763 95.0859 172.477C95.8151 172.19 96.5312 171.995 97.2344 171.891C99.1615 171.891 100.698 172.398 101.844 173.414C103.016 174.43 103.615 175.758 103.641 177.398L103.562 183.961C103.562 184.456 103.576 184.938 103.602 185.406C103.654 185.875 103.719 186.227 103.797 186.461L106.297 186.93V188.141L104.383 188.844C104.018 188.974 103.68 189.078 103.367 189.156C103.055 189.26 102.794 189.312 102.586 189.312C101.779 189.312 101.258 188.857 101.023 187.945L100.594 186.422H101.18C100.32 187.385 99.487 188.115 98.6797 188.609C97.8984 189.078 97.0911 189.312 96.2578 189.312ZM97.3125 187.008C97.9115 187.008 98.4714 186.878 98.9922 186.617C99.513 186.331 100.021 185.901 100.516 185.328V181.227L96.1406 182.398C95.5156 182.555 95.0599 182.802 94.7734 183.141C94.513 183.479 94.3828 183.909 94.3828 184.43C94.3828 185.081 94.6693 185.68 95.2422 186.227C95.8411 186.747 96.5312 187.008 97.3125 187.008ZM108.25 197.594L108.172 196.188L110.594 195.602C110.594 195.471 110.594 195.237 110.594 194.898C110.62 194.586 110.646 194.169 110.672 193.648C110.698 193.128 110.711 192.503 110.711 191.773C110.737 191.044 110.75 190.198 110.75 189.234L110.828 179.586C110.828 178.805 110.789 178.01 110.711 177.203C110.659 176.396 110.594 175.745 110.516 175.25L108.016 174.703V173.414L113.25 171.969L113.914 172.594L113.719 174.742H113.836C114.565 173.805 115.359 173.102 116.219 172.633C117.104 172.138 118.055 171.891 119.07 171.891C120.503 171.891 121.766 172.255 122.859 172.984C123.979 173.688 124.852 174.664 125.477 175.914C126.128 177.138 126.453 178.557 126.453 180.172C126.453 181.891 126.062 183.44 125.281 184.82C124.5 186.201 123.432 187.294 122.078 188.102C120.75 188.883 119.24 189.273 117.547 189.273C116.922 189.273 116.271 189.208 115.594 189.078C114.917 188.948 114.318 188.792 113.797 188.609V191.539C113.797 192.529 113.81 193.362 113.836 194.039C113.888 194.742 113.927 195.263 113.953 195.602L117.156 196.109L117.078 197.594H108.25ZM117.664 187.359C118.706 187.359 119.617 187.112 120.398 186.617C121.206 186.122 121.831 185.393 122.273 184.43C122.742 183.466 122.99 182.294 123.016 180.914C123.042 179.664 122.833 178.557 122.391 177.594C121.974 176.63 121.375 175.875 120.594 175.328C119.839 174.755 118.966 174.469 117.977 174.469C117.169 174.469 116.414 174.664 115.711 175.055C115.008 175.419 114.37 175.966 113.797 176.695V186.148C114.318 186.539 114.917 186.839 115.594 187.047C116.271 187.255 116.961 187.359 117.664 187.359ZM135.75 189.312C134.708 189.312 133.784 189.104 132.977 188.688C132.169 188.271 131.531 187.737 131.062 187.086C130.62 186.435 130.398 185.758 130.398 185.055C130.398 184.169 130.685 183.44 131.258 182.867C131.831 182.294 132.768 181.799 134.07 181.383L140.008 179.391V177.398C140.008 176.747 139.812 176.161 139.422 175.641C139.031 175.094 138.51 174.664 137.859 174.352C137.208 174.039 136.479 173.883 135.672 173.883C135.021 173.883 134.578 174.026 134.344 174.312C134.109 174.573 133.966 175.107 133.914 175.914L133.836 177.555C132.898 177.763 132.104 177.737 131.453 177.477C130.802 177.19 130.477 176.734 130.477 176.109C130.477 175.667 130.659 175.224 131.023 174.781C131.414 174.339 131.922 173.922 132.547 173.531C133.172 173.115 133.849 172.763 134.578 172.477C135.307 172.19 136.023 171.995 136.727 171.891C138.654 171.891 140.19 172.398 141.336 173.414C142.508 174.43 143.107 175.758 143.133 177.398L143.055 183.961C143.055 184.456 143.068 184.938 143.094 185.406C143.146 185.875 143.211 186.227 143.289 186.461L145.789 186.93V188.141L143.875 188.844C143.51 188.974 143.172 189.078 142.859 189.156C142.547 189.26 142.286 189.312 142.078 189.312C141.271 189.312 140.75 188.857 140.516 187.945L140.086 186.422H140.672C139.812 187.385 138.979 188.115 138.172 188.609C137.391 189.078 136.583 189.312 135.75 189.312ZM136.805 187.008C137.404 187.008 137.964 186.878 138.484 186.617C139.005 186.331 139.513 185.901 140.008 185.328V181.227L135.633 182.398C135.008 182.555 134.552 182.802 134.266 183.141C134.005 183.479 133.875 183.909 133.875 184.43C133.875 185.081 134.161 185.68 134.734 186.227C135.333 186.747 136.023 187.008 136.805 187.008ZM137.898 170.172L136.336 169.664L140.203 162.555L143.328 163.453L137.898 170.172Z" fill="black"/>
<path d="M29.6846 71.5817C29.6846 71.5817 38.3121 124.587 87.6169 123.352C136.922 122.116 144.315 71.5817 144.315 71.5817" stroke="black" stroke-width="5.63889" stroke-miterlimit="10" stroke-linecap="round"/>
<path d="M46.9412 61.7217C46.9412 61.7217 53.0795 95.5389 87.6137 98.0683C121.513 100.548 127.423 61.7217 127.423 61.7217" stroke="black" stroke-width="5.63889" stroke-miterlimit="10" stroke-linecap="round"/>
<path d="M61.7312 50.6276C61.7312 50.6276 68.9812 73.9742 90.6974 73.4312C112.414 72.8883 112.202 50.6276 112.202 50.6276" stroke="black" stroke-width="5.63889" stroke-miterlimit="10" stroke-linecap="round"/>
</svg>