<svg width="161" height="157" viewBox="0 0 161 157" fill="none" xmlns="http://www.w3.org/2000/svg">
<path d="M63.4598 152.835C63.1885 153.099 62.108 151.956 61.9953 151.836C60.8597 150.622 59.9716 149.042 59.2779 147.612C56.8344 142.571 56.2328 136.287 57.4366 130.933C60.4943 117.337 76.2845 107.425 92.0246 107.881C110.995 108.431 114.831 133.267 96.5469 138.159C92.6124 139.211 86.9139 138.849 83.7666 136.364C79.5245 133.015 80.6169 125.473 85.4111 122.873C92.6094 118.969 100.026 128.74 92.4896 131.784" stroke="black" stroke-width="8" stroke-miterlimit="1.5" stroke-linecap="round" stroke-linejoin="round"/>
<path fill-rule="evenodd" clip-rule="evenodd" d="M47.2195 91.8687C42.9504 93.7159 39.1261 96.6249 37.8323 100.942C37.4088 102.356 37.7882 103.538 37.9408 104.92C34.6857 102.103 31.346 103.404 29.0738 106.733C28.3198 107.837 27.7461 109.002 27.3513 110.237C27.2048 110.696 27.0608 111.155 26.9905 111.628C26.9651 111.804 27.093 112.326 27.0116 112.162C25.1765 108.458 23.1068 104.54 18.8428 102.504C17.0899 101.666 15.4701 101.585 13.5714 102.081C13.3512 102.138 12.1523 102.397 12.1786 102.542C13.2833 99.6747 11.6957 96.9307 8.73464 95.4414C7.68913 94.9156 6.58528 94.5101 5.46441 94.1222C5.0043 93.9631 3.77668 93.7827 4.11394 93.6491C3.52166 93.7914 5.42116 93.4218 5.62616 93.358C6.85884 92.9753 8.25002 92.5345 9.33787 91.898C11.3855 90.7005 14.5933 87.3927 11.328 83.982C11.328 83.982 11.9007 84.2291 12.0117 84.2628C12.5607 84.4286 13.102 84.5569 13.6756 84.6449C15.3828 84.9074 17.2026 84.738 18.6911 83.9299C22.2512 81.9962 22.9399 76.5345 23.4152 73.2441C23.2254 73.4487 23.7177 74.1249 23.8066 74.2737C24.4539 75.3634 25.1435 76.437 25.9128 77.4665C28.0071 80.27 33.6293 84.958 37.6654 81.4645C37.3977 81.4015 37.135 82.783 37.1054 82.9517C36.864 84.3186 37.0309 85.662 37.9433 86.8294C40.0698 89.5507 43.5375 91.8687 47.2195 91.8687Z" fill="white" stroke="black" stroke-width="8" stroke-miterlimit="1.5" stroke-linecap="round" stroke-linejoin="round"/>
<path d="M104.202 54.4119C104.5 51.302 106.068 48.4315 109.042 46.5987C105.238 45.4566 104.494 42.0787 104.689 38.9336C103.644 42.6481 102.355 46.1611 97.3291 46.4989C102.239 47.4675 103.801 50.1821 104.202 54.4119Z" fill="white"/>
<path d="M109.221 46.4904C106.131 48.3174 104.506 51.2407 104.202 54.4119C103.801 50.1821 102.239 47.4675 97.3291 46.4989C102.355 46.1611 103.644 42.6481 104.689 38.9336C104.492 42.097 105.247 45.4951 109.106 46.6183" stroke="black" stroke-width="8" stroke-miterlimit="1.5" stroke-linecap="round" stroke-linejoin="round"/>
<path d="M75.1719 16.2622C75.4633 16.696 75.728 17.1592 76.0543 17.5739" stroke="black" stroke-width="8" stroke-miterlimit="1.5" stroke-linecap="round" stroke-linejoin="round"/>
<path d="M78.9326 21.8895C81.8677 26.312 85.2278 30.6366 87.8404 35.2055" stroke="black" stroke-width="8" stroke-miterlimit="1.5" stroke-linecap="round" stroke-linejoin="round"/>
<path d="M87.1582 6.48068C90.0835 13.3281 92.2213 20.4917 95.3885 27.2514" stroke="black" stroke-width="8" stroke-miterlimit="1.5" stroke-linecap="round" stroke-linejoin="round"/>
<path d="M104.853 4C104.966 8.34613 105.072 12.6922 105.18 17.0364" stroke="black" stroke-width="8" stroke-miterlimit="1.5" stroke-linecap="round" stroke-linejoin="round"/>
<path d="M105.23 22.3579C105.288 23.1397 105.301 23.9226 105.353 24.7045" stroke="black" stroke-width="8" stroke-miterlimit="1.5" stroke-linecap="round" stroke-linejoin="round"/>
<path d="M127.944 9.02347C126.342 12.4201 123.506 15.1062 121.202 18.1253M121.202 18.1242C117.467 23.018 113.747 27.9053 110.139 32.8727L121.202 18.1242Z" stroke="black" stroke-width="8" stroke-miterlimit="1.5" stroke-linecap="round" stroke-linejoin="round"/>
<path d="M124.572 31.306C127.458 29.2971 130.185 26.8609 132.743 24.5426" stroke="black" stroke-width="8" stroke-miterlimit="1.5" stroke-linecap="round" stroke-linejoin="round"/>
<path d="M136.38 21.7186C137.455 20.7979 138.613 19.9563 139.691 19.036" stroke="black" stroke-width="8" stroke-miterlimit="1.5" stroke-linecap="round" stroke-linejoin="round"/>
<path d="M151.156 33.0645C142.712 36.9258 133.177 40.3631 124.057 42.9681" stroke="black" stroke-width="8" stroke-miterlimit="1.5" stroke-linecap="round" stroke-linejoin="round"/>
<path d="M85.2891 42.1602C77.0312 37.935 68.5397 34.1918 60.085 30.2907" stroke="black" stroke-width="8" stroke-miterlimit="1.5" stroke-linecap="round" stroke-linejoin="round"/>
<path d="M83.5019 48.556C81.8252 48.6062 80.1536 48.6642 78.4854 48.8175" stroke="black" stroke-width="8" stroke-miterlimit="1.5" stroke-linecap="round" stroke-linejoin="round"/>
<path d="M72.4348 49.1171C67.9711 49.3232 63.4419 49.284 59 49.7113" stroke="black" stroke-width="8" stroke-miterlimit="1.5" stroke-linecap="round" stroke-linejoin="round"/>
<path d="M124.472 50.8054C126.478 50.8628 128.757 50.9763 130.752 51.3285" stroke="black" stroke-width="8" stroke-miterlimit="1.5" stroke-linecap="round" stroke-linejoin="round"/>
<path d="M137.226 52.6158C143.717 53.2061 150.035 54.7402 156.435 55.6996" stroke="black" stroke-width="8" stroke-miterlimit="1.5" stroke-linecap="round" stroke-linejoin="round"/>
<path d="M91.2224 53.7618C81.3579 60.2399 70.781 65.7507 60.9443 72.2809" stroke="black" stroke-width="8" stroke-miterlimit="1.5" stroke-linecap="round" stroke-linejoin="round"/>
<path d="M93.5739 62.1069C89.0044 67.4892 86.0286 73.8094 82.2949 79.6137" stroke="black" stroke-width="8" stroke-miterlimit="1.5" stroke-linecap="round" stroke-linejoin="round"/>
<path d="M91.2705 93.2577C92.0934 89.3945 93.7497 85.5938 95.0164 81.8311C95.8401 79.3845 96.311 76.7358 97.632 74.4386" stroke="black" stroke-width="8" stroke-miterlimit="1.5" stroke-linecap="round" stroke-linejoin="round"/>
<path d="M100.009 69.9443C100.366 69.1714 100.593 68.3541 100.981 67.5929" stroke="black" stroke-width="8" stroke-miterlimit="1.5" stroke-linecap="round" stroke-linejoin="round"/>
<path d="M108.016 64.1328C110.609 71.9648 112.416 80.0115 114.777 87.9082" stroke="black" stroke-width="8" stroke-miterlimit="1.5" stroke-linecap="round" stroke-linejoin="round"/>
<path d="M118.182 59.4688C122.339 63.4377 127.517 66.6663 131.508 70.7271" stroke="black" stroke-width="8" stroke-miterlimit="1.5" stroke-linecap="round" stroke-linejoin="round"/>
<path d="M137.407 75.1118C138.452 76.1606 139.666 77.1546 140.832 78.1017" stroke="black" stroke-width="8" stroke-miterlimit="1.5" stroke-linecap="round" stroke-linejoin="round"/>
</svg>