<svg width="195" height="202" viewBox="0 0 195 202" fill="none" xmlns="http://www.w3.org/2000/svg">
<path d="M61.6445 194L61.5664 192.516L63.9102 192.125C63.7279 191.839 63.5065 191.539 63.2461 191.227C63.0117 190.888 62.7253 190.536 62.3867 190.172L56.4102 183.375H54.7695V181.93L56.8398 181.383L64.8867 173.062L62.5039 172.555L62.582 171.07H70.1211L70.1992 172.633L67.9336 173.023L58.5195 181.93L58.6367 180.758L66.0977 189.078C66.5404 189.547 66.918 189.977 67.2305 190.367C67.569 190.732 67.8685 191.057 68.1289 191.344C68.3893 191.604 68.6107 191.826 68.793 192.008L70.7461 192.477V194H61.6445ZM49.457 194L49.3398 192.516L51.7227 191.969C51.7747 191.786 51.8138 191.214 51.8398 190.25C51.8659 189.286 51.8789 187.945 51.8789 186.227V178.883C51.8789 177.711 51.8659 176.721 51.8398 175.914C51.8398 175.081 51.8268 174.43 51.8008 173.961C51.8008 173.492 51.7747 173.206 51.7227 173.102L49.3008 172.555L49.418 171.07H57.7383L57.8164 172.555L55.4336 173.102C55.3815 173.18 55.3294 173.44 55.2773 173.883C55.2513 174.326 55.2253 174.964 55.1992 175.797C55.1992 176.604 55.1992 177.633 55.1992 178.883V186.227C55.1992 187.945 55.2122 189.286 55.2383 190.25C55.2904 191.214 55.3294 191.786 55.3555 191.969L57.7383 192.516L57.6211 194H49.457ZM71.4883 194L71.4102 192.555L74.0273 192.008C74.0534 191.904 74.0664 191.721 74.0664 191.461C74.0924 191.201 74.1185 190.784 74.1445 190.211C74.1706 189.638 74.1836 188.844 74.1836 187.828V185.25C74.1836 184.182 74.1576 183.206 74.1055 182.32C74.0534 181.435 73.9883 180.745 73.9102 180.25L71.293 179.703V178.414L76.8398 176.969L77.4258 177.516C77.3477 178.323 77.2826 179.117 77.2305 179.898C77.2044 180.68 77.1914 181.591 77.1914 182.633V187.555C77.1914 188.753 77.2044 189.742 77.2305 190.523C77.2826 191.305 77.3346 191.799 77.3867 192.008L80.0039 192.555L79.9258 194H71.4883ZM75.707 172.555C75.056 172.555 74.4831 172.333 73.9883 171.891C73.5195 171.448 73.2852 170.901 73.2852 170.25C73.2852 169.599 73.5195 169.052 73.9883 168.609C74.4831 168.167 75.056 167.945 75.707 167.945C76.3841 167.945 76.944 168.167 77.3867 168.609C77.8294 169.052 78.0508 169.599 78.0508 170.25C78.0508 170.901 77.8294 171.448 77.3867 171.891C76.944 172.333 76.3841 172.555 75.707 172.555ZM81.9961 194L81.918 192.555L84.457 192.008C84.5091 191.747 84.5482 191.318 84.5742 190.719C84.6003 190.12 84.6133 189.326 84.6133 188.336C84.6393 187.346 84.6523 186.135 84.6523 184.703V179.82C84.6523 178.831 84.6393 177.815 84.6133 176.773C84.6133 175.732 84.6003 174.755 84.5742 173.844C84.5742 172.906 84.5612 172.112 84.5352 171.461C84.5352 170.784 84.5221 170.341 84.4961 170.133L81.6055 169.742L81.5273 168.492L87.1133 166.891L87.8555 167.438C87.8294 168.531 87.8034 169.625 87.7773 170.719C87.7513 171.812 87.7253 173.023 87.6992 174.352C87.6992 175.68 87.6992 177.281 87.6992 179.156L87.6602 185.445C87.6602 186.982 87.6732 188.375 87.6992 189.625C87.7513 190.849 87.8034 191.643 87.8555 192.008L90.3945 192.555L90.3164 194H81.9961ZM92.4648 194L92.3867 192.555L95.0039 192.008C95.0299 191.904 95.043 191.721 95.043 191.461C95.069 191.201 95.0951 190.784 95.1211 190.211C95.1471 189.638 95.1602 188.844 95.1602 187.828V185.25C95.1602 184.182 95.1341 183.206 95.082 182.32C95.0299 181.435 94.9648 180.745 94.8867 180.25L92.2695 179.703V178.414L97.8164 176.969L98.4023 177.516C98.3242 178.323 98.2591 179.117 98.207 179.898C98.181 180.68 98.168 181.591 98.168 182.633V187.555C98.168 188.753 98.181 189.742 98.207 190.523C98.2591 191.305 98.3112 191.799 98.3633 192.008L100.98 192.555L100.902 194H92.4648ZM96.6836 172.555C96.0326 172.555 95.4596 172.333 94.9648 171.891C94.4961 171.448 94.2617 170.901 94.2617 170.25C94.2617 169.599 94.4961 169.052 94.9648 168.609C95.4596 168.167 96.0326 167.945 96.6836 167.945C97.3607 167.945 97.9206 168.167 98.3633 168.609C98.806 169.052 99.0273 169.599 99.0273 170.25C99.0273 170.901 98.806 171.448 98.3633 171.891C97.9206 172.333 97.3607 172.555 96.6836 172.555ZM121.566 194.156L115.59 179.195L113.598 178.609L113.676 177.203H120.863L120.941 178.609L118.91 179.195L123.441 191.07L122.465 191.109L127.113 179.195L125.082 178.609L125.16 177.203H131.215L131.293 178.609L129.457 179.195L122.777 194.156H121.566ZM110.199 194.156L103.871 179.195L102.035 178.609L102.113 177.203H109.34L109.418 178.609L107.426 179.195L112.27 191.07L111.098 191.109L116.254 178.844L117.309 181.266L111.41 194.156H110.199ZM138.676 194.312C137.634 194.312 136.71 194.104 135.902 193.688C135.095 193.271 134.457 192.737 133.988 192.086C133.546 191.435 133.324 190.758 133.324 190.055C133.324 189.169 133.611 188.44 134.184 187.867C134.757 187.294 135.694 186.799 136.996 186.383L142.934 184.391V182.398C142.934 181.747 142.738 181.161 142.348 180.641C141.957 180.094 141.436 179.664 140.785 179.352C140.134 179.039 139.405 178.883 138.598 178.883C137.947 178.883 137.504 179.026 137.27 179.312C137.035 179.573 136.892 180.107 136.84 180.914L136.762 182.555C135.824 182.763 135.03 182.737 134.379 182.477C133.728 182.19 133.402 181.734 133.402 181.109C133.402 180.667 133.585 180.224 133.949 179.781C134.34 179.339 134.848 178.922 135.473 178.531C136.098 178.115 136.775 177.763 137.504 177.477C138.233 177.19 138.949 176.995 139.652 176.891C141.579 176.891 143.116 177.398 144.262 178.414C145.434 179.43 146.033 180.758 146.059 182.398L145.98 188.961C145.98 189.456 145.993 189.938 146.02 190.406C146.072 190.875 146.137 191.227 146.215 191.461L148.715 191.93V193.141L146.801 193.844C146.436 193.974 146.098 194.078 145.785 194.156C145.473 194.26 145.212 194.312 145.004 194.312C144.197 194.312 143.676 193.857 143.441 192.945L143.012 191.422H143.598C142.738 192.385 141.905 193.115 141.098 193.609C140.316 194.078 139.509 194.312 138.676 194.312ZM139.73 192.008C140.329 192.008 140.889 191.878 141.41 191.617C141.931 191.331 142.439 190.901 142.934 190.328V186.227L138.559 187.398C137.934 187.555 137.478 187.802 137.191 188.141C136.931 188.479 136.801 188.909 136.801 189.43C136.801 190.081 137.087 190.68 137.66 191.227C138.259 191.747 138.949 192.008 139.73 192.008Z" fill="black"/>
<path d="M58.3038 71.0904C61.1796 71.0904 63.5109 68.875 63.5109 66.1422C63.5109 63.4094 61.1796 61.194 58.3038 61.194C55.428 61.194 53.0967 63.4094 53.0967 66.1422C53.0967 68.875 55.428 71.0904 58.3038 71.0904Z" stroke="black" stroke-width="5.17704" stroke-linecap="round" stroke-linejoin="round"/>
<path d="M43.9312 104.898C46.807 104.898 49.1383 102.683 49.1383 99.9498C49.1383 97.217 46.807 95.0016 43.9312 95.0016C41.0554 95.0016 38.7241 97.217 38.7241 99.9498C38.7241 102.683 41.0554 104.898 43.9312 104.898Z" stroke="black" stroke-width="5.17704" stroke-linecap="round" stroke-linejoin="round"/>
<path d="M80.5687 124.264C83.4445 124.264 85.7758 122.049 85.7758 119.316C85.7758 116.583 83.4445 114.368 80.5687 114.368C77.6929 114.368 75.3616 116.583 75.3616 119.316C75.3616 122.049 77.6929 124.264 80.5687 124.264Z" stroke="black" stroke-width="5.17704" stroke-linecap="round" stroke-linejoin="round"/>
<path d="M117.206 114.412C120.082 114.412 122.413 112.197 122.413 109.464C122.413 106.731 120.082 104.516 117.206 104.516C114.33 104.516 111.999 106.731 111.999 109.464C111.999 112.197 114.33 114.412 117.206 114.412Z" stroke="black" stroke-width="5.17704" stroke-linecap="round" stroke-linejoin="round"/>
<path d="M132.167 80.9406C135.043 80.9406 137.374 78.7252 137.374 75.9924C137.374 73.2596 135.043 71.0443 132.167 71.0443C129.291 71.0443 126.96 73.2596 126.96 75.9924C126.96 78.7252 129.291 80.9406 132.167 80.9406Z" stroke="black" stroke-width="5.17704" stroke-linecap="round" stroke-linejoin="round"/>
<path d="M91.011 79.8959C91.011 79.8959 71.4027 42.6292 49.1766 53.8076C26.9505 64.986 49.1766 79.8959 49.1766 79.8959C49.1766 79.8959 15.1871 93.5667 26.9521 108.47C38.7171 123.374 58.3221 113.439 58.3221 113.439C58.3221 113.439 55.7077 138.284 76.6249 138.284C97.5421 138.284 102.769 125.861 102.769 125.861C102.769 125.861 126.301 140.77 143.297 123.377C160.292 105.984 147.218 94.8041 147.218 94.8041C147.218 94.8041 168.135 83.6225 147.218 61.261L91.011 79.8959Z" stroke="black" stroke-width="5.17704" stroke-linecap="round" stroke-linejoin="round"/>
<path d="M102.778 125.861L91.0111 79.8959L58.3289 113.439" stroke="black" stroke-width="5.17704" stroke-linecap="round" stroke-linejoin="round"/>
<path d="M49.1768 79.8959H91.0112L147.227 94.8041" stroke="black" stroke-width="5.17704" stroke-linecap="round" stroke-linejoin="round"/>
</svg>