<svg width="127" height="177" viewBox="0 0 127 177" fill="none" xmlns="http://www.w3.org/2000/svg">
<path d="M39.9219 165.68C39.9219 166.053 39.8152 166.24 39.6019 166.24C38.7085 166.24 37.6419 166.2 36.4019 166.12C35.2152 166.04 34.2152 166 33.4019 166C32.6152 166 31.5285 166.04 30.1419 166.12C28.6885 166.2 27.5152 166.24 26.6219 166.24C26.4085 166.24 26.3019 166.053 26.3019 165.68C26.3019 165.347 26.3952 165.167 26.5819 165.14C28.3819 164.927 29.2819 164.493 29.2819 163.84C29.2819 163.467 28.9885 162.987 28.4019 162.4L20.4619 154.32C20.0352 153.893 19.6619 153.613 19.3419 153.48C19.0352 153.347 18.6085 153.28 18.0619 153.28V161.76C18.0619 162.68 18.1752 163.333 18.4019 163.72C18.6419 164.093 19.0552 164.393 19.6419 164.62C20.2419 164.833 21.0952 165.007 22.2019 165.14C22.4285 165.167 22.5419 165.347 22.5419 165.68C22.5419 166.053 22.4352 166.24 22.2219 166.24C21.3285 166.24 20.2619 166.2 19.0219 166.12C17.8352 166.04 16.8352 166 16.0219 166C15.2219 166 14.2352 166.04 13.0619 166.12C11.8219 166.2 10.7552 166.24 9.86188 166.24C9.64854 166.24 9.54188 166.053 9.54188 165.68C9.54188 165.347 9.64854 165.167 9.86188 165.14C11.4752 164.953 12.5685 164.653 13.1419 164.24C13.7285 163.827 14.0219 163 14.0219 161.76V142.94C14.0219 142.007 13.9019 141.353 13.6619 140.98C13.4352 140.593 13.0285 140.293 12.4419 140.08C11.8552 139.853 10.9952 139.673 9.86188 139.54C9.64854 139.54 9.54188 139.353 9.54188 138.98C9.54188 138.607 9.64854 138.42 9.86188 138.42C10.7552 138.42 11.8219 138.46 13.0619 138.54C14.2352 138.62 15.2219 138.66 16.0219 138.66C16.8352 138.66 17.8352 138.62 19.0219 138.54C20.2619 138.46 21.3285 138.42 22.2219 138.42C22.4352 138.42 22.5419 138.607 22.5419 138.98C22.5419 139.353 22.4352 139.54 22.2219 139.54C21.0885 139.673 20.2285 139.853 19.6419 140.08C19.0552 140.293 18.6419 140.593 18.4019 140.98C18.1752 141.353 18.0619 142.007 18.0619 142.94V152C18.5819 152 19.0019 151.933 19.3219 151.8C19.6419 151.667 20.0219 151.387 20.4619 150.96L29.2419 142.3C29.9619 141.62 30.3219 141.127 30.3219 140.82C30.3219 140.46 30.1485 140.193 29.8019 140.02C29.4685 139.833 28.7885 139.673 27.7619 139.54C27.5485 139.54 27.4419 139.353 27.4419 138.98C27.4419 138.607 27.5619 138.42 27.8019 138.42C28.4285 138.42 29.2552 138.46 30.2819 138.54C31.3752 138.62 32.2819 138.66 33.0019 138.66C33.7219 138.66 34.5219 138.613 35.4019 138.52C36.1352 138.453 36.7619 138.42 37.2819 138.42C37.4685 138.42 37.5619 138.607 37.5619 138.98C37.5619 139.353 37.4552 139.54 37.2419 139.54C35.9619 139.7 34.9552 139.96 34.2219 140.32C33.4885 140.68 32.6085 141.347 31.5819 142.32L22.4619 151L33.8019 162.52C34.5885 163.347 35.3619 163.947 36.1219 164.32C36.8952 164.68 38.0419 164.953 39.5619 165.14C39.8019 165.167 39.9219 165.347 39.9219 165.68ZM47.8244 141.5C47.8244 142.06 47.6177 142.547 47.2044 142.96C46.8044 143.373 46.3177 143.58 45.7444 143.58C45.171 143.58 44.6777 143.373 44.2644 142.96C43.8644 142.547 43.6644 142.06 43.6644 141.5C43.6644 140.913 43.8644 140.42 44.2644 140.02C44.6644 139.62 45.1577 139.42 45.7444 139.42C46.3177 139.42 46.8044 139.62 47.2044 140.02C47.6177 140.42 47.8244 140.913 47.8244 141.5ZM50.6244 165.68C50.6244 166.053 50.5177 166.24 50.3044 166.24C49.7577 166.24 49.0577 166.2 48.2044 166.12C47.2444 166.04 46.4377 166 45.7844 166C45.1177 166 44.3177 166.04 43.3844 166.12C42.5444 166.2 41.851 166.24 41.3044 166.24C41.091 166.24 40.9844 166.053 40.9844 165.68C40.9844 165.347 41.091 165.167 41.3044 165.14C42.4377 164.993 43.1644 164.72 43.4844 164.32C43.8177 163.92 43.9844 163.067 43.9844 161.76V154.36C43.9844 153.293 43.8444 152.593 43.5644 152.26C43.2977 151.927 42.7044 151.707 41.7844 151.6C41.571 151.6 41.4644 151.427 41.4644 151.08C41.4644 150.76 41.571 150.6 41.7844 150.6C43.1844 150.24 44.331 149.86 45.2244 149.46C46.1177 149.047 46.6777 148.707 46.9044 148.44C47.0377 148.28 47.1844 148.2 47.3444 148.2C47.7177 148.2 47.9044 148.307 47.9044 148.52C47.691 151.507 47.5844 153.827 47.5844 155.48V161.76C47.5844 163.067 47.7444 163.92 48.0644 164.32C48.3977 164.72 49.1444 164.993 50.3044 165.14C50.5177 165.167 50.6244 165.347 50.6244 165.68ZM61.3953 165.64C61.3953 166.013 61.2886 166.2 61.0753 166.2C60.5286 166.2 59.8286 166.167 58.9753 166.1C58.0153 166.033 57.2086 166 56.5553 166C55.9153 166 55.122 166.033 54.1753 166.1C53.322 166.167 52.622 166.2 52.0753 166.2C51.862 166.2 51.7553 166.013 51.7553 165.64C51.7553 165.307 51.862 165.127 52.0753 165.1C53.2086 164.967 53.942 164.7 54.2753 164.3C54.622 163.887 54.7953 163.027 54.7953 161.72V143.14C54.7953 142.06 54.662 141.353 54.3953 141.02C54.1286 140.687 53.5153 140.467 52.5553 140.36C52.342 140.333 52.2353 140.167 52.2353 139.86C52.2353 139.54 52.342 139.38 52.5553 139.38C53.9553 139.02 55.102 138.64 55.9953 138.24C56.8886 137.827 57.4486 137.48 57.6753 137.2C57.8086 137.053 57.9553 136.98 58.1153 136.98C58.4886 136.98 58.6753 137.087 58.6753 137.3C58.462 140.287 58.3553 142.607 58.3553 144.26V161.72C58.3553 163.027 58.522 163.887 58.8553 164.3C59.1886 164.7 59.9286 164.967 61.0753 165.1C61.2886 165.127 61.3953 165.307 61.3953 165.64ZM69.3869 141.5C69.3869 142.06 69.1802 142.547 68.7669 142.96C68.3669 143.373 67.8802 143.58 67.3069 143.58C66.7335 143.58 66.2402 143.373 65.8269 142.96C65.4269 142.547 65.2269 142.06 65.2269 141.5C65.2269 140.913 65.4269 140.42 65.8269 140.02C66.2269 139.62 66.7202 139.42 67.3069 139.42C67.8802 139.42 68.3669 139.62 68.7669 140.02C69.1802 140.42 69.3869 140.913 69.3869 141.5ZM72.1869 165.68C72.1869 166.053 72.0802 166.24 71.8669 166.24C71.3202 166.24 70.6202 166.2 69.7669 166.12C68.8069 166.04 68.0002 166 67.3469 166C66.6802 166 65.8802 166.04 64.9469 166.12C64.1069 166.2 63.4135 166.24 62.8669 166.24C62.6535 166.24 62.5469 166.053 62.5469 165.68C62.5469 165.347 62.6535 165.167 62.8669 165.14C64.0002 164.993 64.7269 164.72 65.0469 164.32C65.3802 163.92 65.5469 163.067 65.5469 161.76V154.36C65.5469 153.293 65.4069 152.593 65.1269 152.26C64.8602 151.927 64.2669 151.707 63.3469 151.6C63.1335 151.6 63.0269 151.427 63.0269 151.08C63.0269 150.76 63.1335 150.6 63.3469 150.6C64.7469 150.24 65.8935 149.86 66.7869 149.46C67.6802 149.047 68.2402 148.707 68.4669 148.44C68.6002 148.28 68.7469 148.2 68.9069 148.2C69.2802 148.2 69.4669 148.307 69.4669 148.52C69.2535 151.507 69.1469 153.827 69.1469 155.48V161.76C69.1469 163.067 69.3069 163.92 69.6269 164.32C69.9602 164.72 70.7069 164.993 71.8669 165.14C72.0802 165.167 72.1869 165.347 72.1869 165.68ZM101.698 149.56C101.698 149.893 101.591 150.073 101.378 150.1C100.284 150.26 99.5311 150.547 99.1178 150.96C98.7178 151.373 98.2378 152.213 97.6778 153.48L91.9378 166.56C91.8178 166.773 91.6445 166.88 91.4178 166.88C91.2045 166.88 91.0578 166.773 90.9778 166.56L86.8778 156.08L82.1978 166.56C82.0645 166.773 81.8911 166.88 81.6778 166.88C81.4378 166.88 81.2711 166.773 81.1778 166.56L75.7978 153.48C75.3311 152.333 74.8245 151.513 74.2778 151.02C73.7311 150.513 72.9978 150.213 72.0778 150.12C71.8645 150.093 71.7578 149.907 71.7578 149.56C71.7578 149.187 71.8645 149 72.0778 149C72.6245 149 73.2978 149.04 74.0978 149.12C74.9911 149.2 75.7711 149.24 76.4378 149.24C77.0911 149.24 77.8578 149.2 78.7378 149.12C79.5378 149.04 80.2111 149 80.7578 149C80.9711 149 81.0778 149.187 81.0778 149.56C81.0778 149.907 80.9711 150.093 80.7578 150.12C80.0911 150.2 79.6245 150.34 79.3578 150.54C79.0911 150.727 78.9578 151.027 78.9578 151.44C78.9578 151.853 79.1445 152.54 79.5178 153.5L82.7578 161.72L86.1578 154.04L85.8778 153C85.8111 152.853 85.7311 152.647 85.6378 152.38C85.3045 151.487 85.0178 150.907 84.7778 150.64C84.5378 150.36 84.1045 150.187 83.4778 150.12C83.2645 150.093 83.1578 149.907 83.1578 149.56C83.1578 149.187 83.2645 149 83.4778 149C83.9578 149 84.5378 149.04 85.2178 149.12C85.9511 149.2 86.5978 149.24 87.1578 149.24C87.8111 149.24 88.5778 149.2 89.4578 149.12C90.2711 149.04 90.9511 149 91.4978 149C91.7111 149 91.8178 149.187 91.8178 149.56C91.8178 149.893 91.7111 150.073 91.4978 150.1C90.0978 150.287 89.3978 150.96 89.3978 152.12C89.3978 152.653 89.4711 153.107 89.6178 153.48L92.6178 161.44L95.8178 153.92C96.1911 153.04 96.3778 152.307 96.3778 151.72C96.3778 150.8 95.7845 150.26 94.5978 150.1C94.3711 150.073 94.2578 149.893 94.2578 149.56C94.2578 149.187 94.3645 149 94.5778 149C95.1511 149 95.7778 149.04 96.4578 149.12C97.1111 149.2 97.6978 149.24 98.2178 149.24C98.4978 149.24 98.9178 149.207 99.4778 149.14C100.238 149.047 100.871 149 101.378 149C101.591 149 101.698 149.187 101.698 149.56ZM115.007 166.68C114.26 166.68 113.607 166.493 113.047 166.12C112.5 165.76 112.127 165.267 111.927 164.64C110.5 166.107 108.633 166.84 106.327 166.84C105.127 166.84 104.147 166.473 103.387 165.74C102.627 164.993 102.247 164.067 102.247 162.96C102.247 160.227 105.487 158.013 111.967 156.32L112.087 153.2V153.1C112.087 152.14 111.847 151.38 111.367 150.82C110.9 150.247 110.273 149.96 109.487 149.96C108.7 149.96 108.033 150.153 107.487 150.54C106.94 150.913 106.66 151.387 106.647 151.96C106.633 152.813 106.407 153.48 105.967 153.96C105.54 154.44 104.967 154.68 104.247 154.68C103.82 154.68 103.473 154.553 103.207 154.3C102.94 154.047 102.807 153.707 102.807 153.28C102.807 152.253 103.74 151.18 105.607 150.06C107.473 148.927 109.207 148.36 110.807 148.36C112.247 148.36 113.413 148.787 114.307 149.64C115.2 150.493 115.647 151.64 115.647 153.08V153.32L115.367 162.36V162.5C115.367 163.9 115.82 164.6 116.727 164.6C117.167 164.6 117.68 164.333 118.267 163.8L118.407 163.76C118.513 163.76 118.613 163.833 118.707 163.98C118.8 164.113 118.847 164.26 118.847 164.42C118.847 164.807 118.44 165.28 117.627 165.84C116.827 166.4 115.953 166.68 115.007 166.68ZM111.927 157.68C108.033 158.56 106.087 160.013 106.087 162.04C106.087 163.933 106.82 164.88 108.287 164.88C108.993 164.88 109.687 164.707 110.367 164.36C111.06 164 111.527 163.56 111.767 163.04L111.927 157.68Z" fill="black"/>
<path d="M49.4941 26.6C49.8156 33.5349 49.3836 40.6863 50.052 47.5837" stroke="black" stroke-width="8" stroke-miterlimit="1.5" stroke-linecap="round" stroke-linejoin="round"/>
<path d="M30.7124 54.6479C34.2514 54.3945 38.6429 52.9894 42.1655 53.3877" stroke="black" stroke-width="8" stroke-miterlimit="1.5" stroke-linecap="round" stroke-linejoin="round"/>
<path d="M55.9434 52.0421C60.1675 52.5469 64.4064 51.8761 68.6479 52.3608" stroke="black" stroke-width="8" stroke-miterlimit="1.5" stroke-linecap="round" stroke-linejoin="round"/>
<path d="M49.7722 59.1632C49.6283 64.4009 49.6476 69.639 49.6462 74.8781" stroke="black" stroke-width="8" stroke-miterlimit="1.5" stroke-linecap="round" stroke-linejoin="round"/>
<path d="M40.3625 91.3954C37.9968 91.4395 37.0394 95.1277 39.754 95.5989C40.9762 95.811 42.919 93.8926 41.8786 92.776" stroke="black" stroke-width="8" stroke-miterlimit="1.5" stroke-linecap="round" stroke-linejoin="round"/>
<path d="M65.3777 75.6896C65.0015 79.8082 65.3294 83.8942 65.4114 88.0171" stroke="black" stroke-width="8" stroke-miterlimit="1.5" stroke-linecap="round" stroke-linejoin="round"/>
<path d="M56.2407 94.0633C57.6136 93.8906 59.033 93.6372 60.4203 93.6482" stroke="black" stroke-width="8" stroke-miterlimit="1.5" stroke-linecap="round" stroke-linejoin="round"/>
<path d="M70.9487 93.218C72.7914 93.2783 74.5861 93.0534 76.422 92.9557" stroke="black" stroke-width="8" stroke-miterlimit="1.5" stroke-linecap="round" stroke-linejoin="round"/>
<path d="M66.0253 99.0107C65.8209 103.485 65.8661 107.969 65.8632 112.448" stroke="black" stroke-width="8" stroke-miterlimit="1.5" stroke-linecap="round" stroke-linejoin="round"/>
<path d="M80.0731 56.7976C76.997 57.5359 76.4363 61.7178 80.121 61.7867C81.4005 61.8106 84.1027 59.278 82.1845 58.4144" stroke="black" stroke-width="8" stroke-miterlimit="1.5" stroke-linecap="round" stroke-linejoin="round"/>
<path d="M82.2061 38.3183C77.4541 36.6973 71.4361 43.7722 76.9598 46.5487C82.9047 49.5373 89.9635 42.1584 83.6937 38.1636" stroke="black" stroke-width="8" stroke-miterlimit="1.5" stroke-linecap="round" stroke-linejoin="round"/>
</svg>