<svg width="129" height="177" viewBox="0 0 129 177" fill="none" xmlns="http://www.w3.org/2000/svg">
<path d="M39.7656 165.68C39.7656 166.053 39.659 166.24 39.4456 166.24C38.5523 166.24 37.4856 166.2 36.2456 166.12C35.059 166.04 34.059 166 33.2456 166C32.459 166 31.3723 166.04 29.9856 166.12C28.5323 166.2 27.359 166.24 26.4656 166.24C26.2523 166.24 26.1456 166.053 26.1456 165.68C26.1456 165.347 26.239 165.167 26.4256 165.14C28.2256 164.927 29.1256 164.493 29.1256 163.84C29.1256 163.467 28.8323 162.987 28.2456 162.4L20.3056 154.32C19.879 153.893 19.5056 153.613 19.1856 153.48C18.879 153.347 18.4523 153.28 17.9056 153.28V161.76C17.9056 162.68 18.019 163.333 18.2456 163.72C18.4856 164.093 18.899 164.393 19.4856 164.62C20.0856 164.833 20.939 165.007 22.0456 165.14C22.2723 165.167 22.3856 165.347 22.3856 165.68C22.3856 166.053 22.279 166.24 22.0656 166.24C21.1723 166.24 20.1056 166.2 18.8656 166.12C17.679 166.04 16.679 166 15.8656 166C15.0656 166 14.079 166.04 12.9056 166.12C11.6656 166.2 10.599 166.24 9.70563 166.24C9.49229 166.24 9.38563 166.053 9.38563 165.68C9.38563 165.347 9.49229 165.167 9.70563 165.14C11.319 164.953 12.4123 164.653 12.9856 164.24C13.5723 163.827 13.8656 163 13.8656 161.76V142.94C13.8656 142.007 13.7456 141.353 13.5056 140.98C13.279 140.593 12.8723 140.293 12.2856 140.08C11.699 139.853 10.839 139.673 9.70563 139.54C9.49229 139.54 9.38563 139.353 9.38563 138.98C9.38563 138.607 9.49229 138.42 9.70563 138.42C10.599 138.42 11.6656 138.46 12.9056 138.54C14.079 138.62 15.0656 138.66 15.8656 138.66C16.679 138.66 17.679 138.62 18.8656 138.54C20.1056 138.46 21.1723 138.42 22.0656 138.42C22.279 138.42 22.3856 138.607 22.3856 138.98C22.3856 139.353 22.279 139.54 22.0656 139.54C20.9323 139.673 20.0723 139.853 19.4856 140.08C18.899 140.293 18.4856 140.593 18.2456 140.98C18.019 141.353 17.9056 142.007 17.9056 142.94V152C18.4256 152 18.8456 151.933 19.1656 151.8C19.4856 151.667 19.8656 151.387 20.3056 150.96L29.0856 142.3C29.8056 141.62 30.1656 141.127 30.1656 140.82C30.1656 140.46 29.9923 140.193 29.6456 140.02C29.3123 139.833 28.6323 139.673 27.6056 139.54C27.3923 139.54 27.2856 139.353 27.2856 138.98C27.2856 138.607 27.4056 138.42 27.6456 138.42C28.2723 138.42 29.099 138.46 30.1256 138.54C31.219 138.62 32.1256 138.66 32.8456 138.66C33.5656 138.66 34.3656 138.613 35.2456 138.52C35.979 138.453 36.6056 138.42 37.1256 138.42C37.3123 138.42 37.4056 138.607 37.4056 138.98C37.4056 139.353 37.299 139.54 37.0856 139.54C35.8056 139.7 34.799 139.96 34.0656 140.32C33.3323 140.68 32.4523 141.347 31.4256 142.32L22.3056 151L33.6456 162.52C34.4323 163.347 35.2056 163.947 35.9656 164.32C36.739 164.68 37.8856 164.953 39.4056 165.14C39.6456 165.167 39.7656 165.347 39.7656 165.68ZM57.9731 157.72C57.9731 160.373 57.1065 162.56 55.3731 164.28C53.6531 165.987 51.4198 166.84 48.6731 166.84C45.9265 166.84 43.6865 165.98 41.9531 164.26C40.2198 162.54 39.3531 160.36 39.3531 157.72C39.3531 155.04 40.2265 152.813 41.9731 151.04C43.7198 149.253 45.9531 148.36 48.6731 148.36C51.4065 148.36 53.6398 149.247 55.3731 151.02C57.1065 152.793 57.9731 155.027 57.9731 157.72ZM53.9531 157.68C53.9531 155.24 53.4798 153.293 52.5331 151.84C51.5998 150.373 50.3131 149.64 48.6731 149.64C47.0465 149.64 45.7598 150.373 44.8131 151.84C43.8665 153.307 43.3931 155.253 43.3931 157.68C43.3931 160.093 43.8598 162.013 44.7931 163.44C45.7265 164.853 47.0198 165.56 48.6731 165.56C50.3265 165.56 51.6198 164.86 52.5531 163.46C53.4865 162.047 53.9531 160.12 53.9531 157.68ZM65.7984 139.34L64.4784 149.04C64.4384 149.227 64.2384 149.32 63.8784 149.32C63.5051 149.32 63.3184 149.227 63.3184 149.04L61.9984 139.28C61.9984 138.947 62.1784 138.647 62.5384 138.38C62.9118 138.113 63.3584 137.98 63.8784 137.98C64.4118 137.98 64.8651 138.113 65.2384 138.38C65.6118 138.647 65.7984 138.967 65.7984 139.34ZM82.6628 166.68C81.9161 166.68 81.2628 166.493 80.7028 166.12C80.1561 165.76 79.7828 165.267 79.5828 164.64C78.1561 166.107 76.2895 166.84 73.9828 166.84C72.7828 166.84 71.8028 166.473 71.0428 165.74C70.2828 164.993 69.9028 164.067 69.9028 162.96C69.9028 160.227 73.1428 158.013 79.6228 156.32L79.7428 153.2V153.1C79.7428 152.14 79.5028 151.38 79.0228 150.82C78.5561 150.247 77.9295 149.96 77.1428 149.96C76.3561 149.96 75.6895 150.153 75.1428 150.54C74.5961 150.913 74.3161 151.387 74.3028 151.96C74.2895 152.813 74.0628 153.48 73.6228 153.96C73.1961 154.44 72.6228 154.68 71.9028 154.68C71.4761 154.68 71.1295 154.553 70.8628 154.3C70.5961 154.047 70.4628 153.707 70.4628 153.28C70.4628 152.253 71.3961 151.18 73.2628 150.06C75.1295 148.927 76.8628 148.36 78.4628 148.36C79.9028 148.36 81.0695 148.787 81.9628 149.64C82.8561 150.493 83.3028 151.64 83.3028 153.08V153.32L83.0228 162.36V162.5C83.0228 163.9 83.4761 164.6 84.3828 164.6C84.8228 164.6 85.3361 164.333 85.9228 163.8L86.0628 163.76C86.1695 163.76 86.2695 163.833 86.3628 163.98C86.4561 164.113 86.5028 164.26 86.5028 164.42C86.5028 164.807 86.0961 165.28 85.2828 165.84C84.4828 166.4 83.6095 166.68 82.6628 166.68ZM79.5828 157.68C75.6895 158.56 73.7428 160.013 73.7428 162.04C73.7428 163.933 74.4761 164.88 75.9428 164.88C76.6495 164.88 77.3428 164.707 78.0228 164.36C78.7161 164 79.1828 163.56 79.4228 163.04L79.5828 157.68ZM108.214 165.68C108.214 166.053 108.108 166.24 107.894 166.24C107.361 166.24 106.701 166.2 105.914 166.12C105.061 166.04 104.314 166 103.674 166C103.008 166 102.241 166.04 101.374 166.12C100.588 166.2 99.9277 166.24 99.3944 166.24C99.181 166.24 99.0744 166.053 99.0744 165.68C99.0744 165.347 99.181 165.167 99.3944 165.14C100.314 165.033 100.914 164.773 101.194 164.36C101.488 163.947 101.634 163.08 101.634 161.76V155.08C101.634 152.2 100.328 150.76 97.7144 150.76C96.061 150.76 94.6344 151.427 93.4344 152.76V161.76C93.4344 162.96 93.6077 163.793 93.9544 164.26C94.301 164.727 94.981 165.02 95.9944 165.14C96.2077 165.167 96.3144 165.347 96.3144 165.68C96.3144 166.053 96.2077 166.24 95.9944 166.24C95.4477 166.24 94.7344 166.2 93.8544 166.12C92.8677 166.04 92.0477 166 91.3944 166C90.7277 166 89.9677 166.04 89.1144 166.12C88.3544 166.2 87.701 166.24 87.1544 166.24C86.941 166.24 86.8344 166.053 86.8344 165.68C86.8344 165.347 86.941 165.167 87.1544 165.14C88.2744 165.02 89.001 164.76 89.3344 164.36C89.6677 163.947 89.8344 163.08 89.8344 161.76V143.18C89.8344 142.1 89.701 141.393 89.4344 141.06C89.181 140.727 88.581 140.507 87.6344 140.4C87.421 140.373 87.3144 140.207 87.3144 139.9C87.3144 139.553 87.421 139.38 87.6344 139.38C89.9144 138.847 91.601 138.14 92.6944 137.26C92.8944 137.1 93.061 137.02 93.1944 137.02C93.5677 137.02 93.7544 137.127 93.7544 137.34C93.541 139.527 93.4344 141.847 93.4344 144.3V151.08C95.341 149.267 97.221 148.36 99.0744 148.36C100.968 148.36 102.454 148.88 103.534 149.92C104.628 150.96 105.174 152.36 105.174 154.12V161.76C105.174 163.067 105.341 163.927 105.674 164.34C106.021 164.74 106.761 165.007 107.894 165.14C108.108 165.167 108.214 165.347 108.214 165.68ZM118.583 165.64C118.583 166.013 118.476 166.2 118.263 166.2C117.716 166.2 117.016 166.167 116.163 166.1C115.203 166.033 114.396 166 113.743 166C113.103 166 112.309 166.033 111.363 166.1C110.509 166.167 109.809 166.2 109.263 166.2C109.049 166.2 108.943 166.013 108.943 165.64C108.943 165.307 109.049 165.127 109.263 165.1C110.396 164.967 111.129 164.7 111.463 164.3C111.809 163.887 111.983 163.027 111.983 161.72V143.14C111.983 142.06 111.849 141.353 111.583 141.02C111.316 140.687 110.703 140.467 109.743 140.36C109.529 140.333 109.423 140.167 109.423 139.86C109.423 139.54 109.529 139.38 109.743 139.38C111.143 139.02 112.289 138.64 113.183 138.24C114.076 137.827 114.636 137.48 114.863 137.2C114.996 137.053 115.143 136.98 115.303 136.98C115.676 136.98 115.863 137.087 115.863 137.3C115.649 140.287 115.543 142.607 115.543 144.26V161.72C115.543 163.027 115.709 163.887 116.043 164.3C116.376 164.7 117.116 164.967 118.263 165.1C118.476 165.127 118.583 165.307 118.583 165.64Z" fill="black"/>
<path d="M96.1107 102.316C92.5934 94.5439 87.7805 87.9836 80.226 83.7055C62.3771 73.5969 38.5109 84.9287 29.5215 101.638" stroke="black" stroke-width="8" stroke-miterlimit="1.5" stroke-linecap="round" stroke-linejoin="round"/>
<path d="M111.265 94.1434C106.658 79.3327 98.1472 64.0113 83.7135 56.9155C55.3635 42.9776 23.0044 68.2658 16.1104 95.3374" stroke="black" stroke-width="8" stroke-miterlimit="1.5" stroke-linecap="round" stroke-linejoin="round"/>
<path d="M124.753 76.4658C118.137 52.4725 105.539 33.4574 80.7459 26.7441C73.1022 24.6747 61.5198 24.8549 53.9943 26.6692C28.9407 32.7096 8.02024 54.0288 5.06689 80.3781" stroke="black" stroke-width="8" stroke-miterlimit="1.5" stroke-linecap="round" stroke-linejoin="round"/>
</svg>