<svg width="219" height="202" viewBox="0 0 219 219" fill="none" xmlns="http://www.w3.org/2000/svg">
<path d="M111.698 57.0556C111.698 57.0556 111.698 113.582 74.0139 113.582C74.0139 113.582 111.07 106.673 111.07 161.944C111.07 161.944 109.814 110.439 144.986 109.186C144.986 109.186 113.582 111.698 111.698 57.0556Z" stroke="black" stroke-width="7.09722" stroke-linecap="round" stroke-linejoin="round"/>
<path d="M72.1836 209L72.1055 207.516L74.4492 207.125C74.2669 206.839 74.0456 206.539 73.7852 206.227C73.5508 205.888 73.2643 205.536 72.9258 205.172L66.9492 198.375H65.3086V196.93L67.3789 196.383L75.4258 188.062L73.043 187.555L73.1211 186.07H80.6602L80.7383 187.633L78.4727 188.023L69.0586 196.93L69.1758 195.758L76.6367 204.078C77.0794 204.547 77.457 204.977 77.7695 205.367C78.1081 205.732 78.4076 206.057 78.668 206.344C78.9284 206.604 79.1497 206.826 79.332 207.008L81.2852 207.477V209H72.1836ZM59.9961 209L59.8789 207.516L62.2617 206.969C62.3138 206.786 62.3529 206.214 62.3789 205.25C62.4049 204.286 62.418 202.945 62.418 201.227V193.883C62.418 192.711 62.4049 191.721 62.3789 190.914C62.3789 190.081 62.3659 189.43 62.3398 188.961C62.3398 188.492 62.3138 188.206 62.2617 188.102L59.8398 187.555L59.957 186.07H68.2773L68.3555 187.555L65.9727 188.102C65.9206 188.18 65.8685 188.44 65.8164 188.883C65.7904 189.326 65.7643 189.964 65.7383 190.797C65.7383 191.604 65.7383 192.633 65.7383 193.883V201.227C65.7383 202.945 65.7513 204.286 65.7773 205.25C65.8294 206.214 65.8685 206.786 65.8945 206.969L68.2773 207.516L68.1602 209H59.9961ZM90.543 209.312C88.8503 209.312 87.3659 208.948 86.0898 208.219C84.8398 207.49 83.8633 206.474 83.1602 205.172C82.457 203.844 82.1055 202.333 82.1055 200.641C82.1055 198.87 82.4961 197.333 83.2773 196.031C84.0586 194.729 85.1003 193.714 86.4023 192.984C87.7044 192.255 89.1367 191.891 90.6992 191.891C92.3138 191.891 93.7201 192.255 94.918 192.984C96.1419 193.688 97.0794 194.69 97.7305 195.992C98.4076 197.268 98.7461 198.766 98.7461 200.484C98.7461 202.125 98.3815 203.609 97.6523 204.938C96.9232 206.266 95.9336 207.333 94.6836 208.141C93.4596 208.922 92.0794 209.312 90.543 209.312ZM90.9336 207.477C91.819 207.477 92.5872 207.216 93.2383 206.695C93.8893 206.148 94.3971 205.406 94.7617 204.469C95.1263 203.505 95.3086 202.411 95.3086 201.188C95.3086 198.948 94.8398 197.138 93.9023 195.758C92.9909 194.352 91.7799 193.648 90.2695 193.648C88.8633 193.648 87.7305 194.234 86.8711 195.406C86.0378 196.578 85.6211 198.128 85.6211 200.055C85.6211 201.513 85.8424 202.802 86.2852 203.922C86.7539 205.042 87.3919 205.914 88.1992 206.539C89.0065 207.164 89.918 207.477 90.9336 207.477ZM104.918 181.734C105.569 181.734 106.103 181.969 106.52 182.438C106.962 182.906 107.184 183.648 107.184 184.664C107.184 185.055 107.118 185.576 106.988 186.227C106.884 186.852 106.741 187.529 106.559 188.258C106.402 188.961 106.233 189.664 106.051 190.367C105.868 191.044 105.712 191.656 105.582 192.203H104.254C104.124 191.656 103.967 191.044 103.785 190.367C103.603 189.664 103.421 188.961 103.238 188.258C103.082 187.529 102.939 186.852 102.809 186.227C102.704 185.576 102.652 185.055 102.652 184.664C102.652 183.648 102.861 182.906 103.277 182.438C103.72 181.969 104.267 181.734 104.918 181.734ZM117.145 209.312C116.103 209.312 115.178 209.104 114.371 208.688C113.564 208.271 112.926 207.737 112.457 207.086C112.014 206.435 111.793 205.758 111.793 205.055C111.793 204.169 112.079 203.44 112.652 202.867C113.225 202.294 114.163 201.799 115.465 201.383L121.402 199.391V197.398C121.402 196.747 121.207 196.161 120.816 195.641C120.426 195.094 119.905 194.664 119.254 194.352C118.603 194.039 117.874 193.883 117.066 193.883C116.415 193.883 115.973 194.026 115.738 194.312C115.504 194.573 115.361 195.107 115.309 195.914L115.23 197.555C114.293 197.763 113.499 197.737 112.848 197.477C112.197 197.19 111.871 196.734 111.871 196.109C111.871 195.667 112.053 195.224 112.418 194.781C112.809 194.339 113.316 193.922 113.941 193.531C114.566 193.115 115.243 192.763 115.973 192.477C116.702 192.19 117.418 191.995 118.121 191.891C120.048 191.891 121.585 192.398 122.73 193.414C123.902 194.43 124.501 195.758 124.527 197.398L124.449 203.961C124.449 204.456 124.462 204.938 124.488 205.406C124.54 205.875 124.605 206.227 124.684 206.461L127.184 206.93V208.141L125.27 208.844C124.905 208.974 124.566 209.078 124.254 209.156C123.941 209.26 123.681 209.312 123.473 209.312C122.665 209.312 122.145 208.857 121.91 207.945L121.48 206.422H122.066C121.207 207.385 120.374 208.115 119.566 208.609C118.785 209.078 117.978 209.312 117.145 209.312ZM118.199 207.008C118.798 207.008 119.358 206.878 119.879 206.617C120.4 206.331 120.908 205.901 121.402 205.328V201.227L117.027 202.398C116.402 202.555 115.947 202.802 115.66 203.141C115.4 203.479 115.27 203.909 115.27 204.43C115.27 205.081 115.556 205.68 116.129 206.227C116.728 206.747 117.418 207.008 118.199 207.008ZM129.215 209L129.137 207.594L131.559 207.008C131.611 206.721 131.65 206.292 131.676 205.719C131.702 205.12 131.715 204.326 131.715 203.336C131.741 202.346 131.754 201.135 131.754 199.703V194.82C131.754 193.935 131.741 192.984 131.715 191.969C131.715 190.953 131.702 189.977 131.676 189.039C131.676 188.076 131.663 187.242 131.637 186.539C131.637 185.836 131.624 185.367 131.598 185.133L128.707 184.742L128.629 183.492L134.137 181.891L134.879 182.438C134.853 183.245 134.827 184.052 134.801 184.859C134.775 185.667 134.749 186.539 134.723 187.477C134.723 188.388 134.71 189.43 134.684 190.602C134.684 191.773 134.684 193.128 134.684 194.664L134.801 194.703C135.712 193.714 136.598 192.997 137.457 192.555C138.342 192.112 139.306 191.891 140.348 191.891C141.311 191.891 142.21 192.138 143.043 192.633C143.902 193.128 144.592 193.883 145.113 194.898C145.66 195.888 145.934 197.164 145.934 198.727V202.945C145.934 203.883 145.96 204.729 146.012 205.484C146.064 206.214 146.116 206.721 146.168 207.008L148.59 207.594L148.512 209H140.66L140.543 207.594L142.809 207.008C142.835 206.799 142.861 206.539 142.887 206.227C142.913 205.914 142.926 205.523 142.926 205.055C142.952 204.56 142.965 203.948 142.965 203.219V199C142.965 197.88 142.77 196.982 142.379 196.305C142.014 195.602 141.533 195.094 140.934 194.781C140.335 194.443 139.697 194.273 139.02 194.273C138.186 194.273 137.392 194.495 136.637 194.938C135.882 195.354 135.243 195.94 134.723 196.695V202.555C134.723 203.753 134.736 204.742 134.762 205.523C134.814 206.305 134.866 206.799 134.918 207.008L137.301 207.594L137.223 209H129.215ZM150.582 209L150.504 207.555L153.043 207.008C153.095 206.747 153.134 206.318 153.16 205.719C153.186 205.12 153.199 204.326 153.199 203.336C153.225 202.346 153.238 201.135 153.238 199.703V194.82C153.238 193.831 153.225 192.815 153.199 191.773C153.199 190.732 153.186 189.755 153.16 188.844C153.16 187.906 153.147 187.112 153.121 186.461C153.121 185.784 153.108 185.341 153.082 185.133L150.191 184.742L150.113 183.492L155.699 181.891L156.441 182.438C156.415 183.531 156.389 184.625 156.363 185.719C156.337 186.812 156.311 188.023 156.285 189.352C156.285 190.68 156.285 192.281 156.285 194.156L156.246 200.445C156.246 201.982 156.259 203.375 156.285 204.625C156.337 205.849 156.389 206.643 156.441 207.008L158.98 207.555L158.902 209H150.582Z" fill="black"/>
</svg>