<svg width="148" height="210" viewBox="0 0 148 188" fill="none" xmlns="http://www.w3.org/2000/svg">
<path d="M30.6211 180L30.543 178.516L32.8867 178.125C32.7044 177.839 32.4831 177.539 32.2227 177.227C31.9883 176.888 31.7018 176.536 31.3633 176.172L25.3867 169.375H23.7461V167.93L25.8164 167.383L33.8633 159.062L31.4805 158.555L31.5586 157.07H39.0977L39.1758 158.633L36.9102 159.023L27.4961 167.93L27.6133 166.758L35.0742 175.078C35.5169 175.547 35.8945 175.977 36.207 176.367C36.5456 176.732 36.8451 177.057 37.1055 177.344C37.3659 177.604 37.5872 177.826 37.7695 178.008L39.7227 178.477V180H30.6211ZM18.4336 180L18.3164 178.516L20.6992 177.969C20.7513 177.786 20.7904 177.214 20.8164 176.25C20.8424 175.286 20.8555 173.945 20.8555 172.227V164.883C20.8555 163.711 20.8424 162.721 20.8164 161.914C20.8164 161.081 20.8034 160.43 20.7773 159.961C20.7773 159.492 20.7513 159.206 20.6992 159.102L18.2773 158.555L18.3945 157.07H26.7148L26.793 158.555L24.4102 159.102C24.3581 159.18 24.306 159.44 24.2539 159.883C24.2279 160.326 24.2018 160.964 24.1758 161.797C24.1758 162.604 24.1758 163.633 24.1758 164.883V172.227C24.1758 173.945 24.1888 175.286 24.2148 176.25C24.2669 177.214 24.306 177.786 24.332 177.969L26.7148 178.516L26.5977 180H18.4336ZM56.5195 177.266L58.9805 177.891V179.18L53.9023 180.43L53.3164 179.922L53.3555 177.461L53.2383 177.422C52.4831 178.49 51.7018 179.245 50.8945 179.688C50.1133 180.104 49.2669 180.312 48.3555 180.312C46.6107 180.312 45.1523 179.779 43.9805 178.711C42.8086 177.617 42.2227 175.99 42.2227 173.828V170.469C42.2227 169.74 42.1966 169.036 42.1445 168.359C42.1185 167.656 42.0794 166.953 42.0273 166.25L39.3711 165.703V164.414L44.6836 162.969L45.3867 163.594C45.3346 164.401 45.2956 165.26 45.2695 166.172C45.2435 167.083 45.2305 168.034 45.2305 169.023L45.1914 173.32C45.1914 174.935 45.569 176.094 46.3242 176.797C47.0794 177.474 48.043 177.812 49.2148 177.812C49.918 177.812 50.6341 177.63 51.3633 177.266C52.0924 176.901 52.7305 176.276 53.2773 175.391V170.859C53.2773 170.286 53.2643 169.727 53.2383 169.18C53.2383 168.607 53.2253 168.073 53.1992 167.578C53.1732 167.057 53.1341 166.615 53.082 166.25L50.2305 165.703V164.414L55.7383 162.969L56.3242 163.516C56.2982 164.245 56.2721 164.896 56.2461 165.469C56.2461 166.042 56.2461 166.615 56.2461 167.188C56.2461 167.734 56.2461 168.359 56.2461 169.062V171.836C56.2461 173.268 56.2721 174.427 56.3242 175.312C56.4023 176.172 56.4674 176.823 56.5195 177.266ZM61.207 180L61.1289 178.594L63.5508 178.008C63.5768 177.826 63.5898 177.591 63.5898 177.305C63.6159 177.018 63.6419 176.602 63.668 176.055C63.694 175.508 63.707 174.766 63.707 173.828L63.7461 170.781C63.7721 170.234 63.7591 169.674 63.707 169.102C63.681 168.529 63.6419 167.995 63.5898 167.5C63.5378 166.979 63.4857 166.562 63.4336 166.25L60.9336 165.703V164.414L66.168 162.969L66.832 163.594L66.6367 165.703L66.7539 165.742C67.5612 164.727 68.3945 163.997 69.2539 163.555C70.1393 163.112 71.0378 162.891 71.9492 162.891C72.8607 162.891 73.7461 163.138 74.6055 163.633C75.4648 164.128 76.168 164.883 76.7148 165.898C77.2878 166.914 77.5742 168.216 77.5742 169.805L77.6133 173.945C77.6133 174.883 77.6263 175.729 77.6523 176.484C77.7044 177.214 77.7695 177.721 77.8477 178.008L80.1914 178.594L80.0742 180H72.457L72.3398 178.594L74.4883 178.008C74.5143 177.799 74.5404 177.539 74.5664 177.227C74.5924 176.914 74.6055 176.523 74.6055 176.055C74.6315 175.56 74.6445 174.948 74.6445 174.219L74.6055 169.922C74.6055 168.802 74.4232 167.904 74.0586 167.227C73.7201 166.549 73.2643 166.055 72.6914 165.742C72.1185 165.43 71.5065 165.273 70.8555 165.273C70.0482 165.273 69.293 165.469 68.5898 165.859C67.8867 166.25 67.2617 166.862 66.7148 167.695V173.555C66.7148 174.753 66.7279 175.729 66.7539 176.484C66.806 177.214 66.8581 177.721 66.9102 178.008L69.2148 178.594L69.0977 180H61.207ZM83.2383 180L83.1211 178.594L85.3477 178.008C85.3737 177.799 85.3867 177.539 85.3867 177.227C85.4128 176.914 85.4388 176.523 85.4648 176.055C85.4909 175.56 85.5039 174.948 85.5039 174.219V169.961C85.5039 168.815 85.3086 167.904 84.918 167.227C84.5273 166.549 84.0326 166.055 83.4336 165.742C82.8607 165.43 82.2747 165.273 81.6758 165.273C80.7904 165.273 79.9701 165.495 79.2148 165.938C78.4596 166.38 77.7826 167.057 77.1836 167.969L76.4414 166.523C77.3529 165.273 78.3164 164.362 79.332 163.789C80.3737 163.19 81.4674 162.891 82.6133 162.891C83.707 162.891 84.6966 163.151 85.582 163.672C86.4674 164.193 87.1706 164.948 87.6914 165.938C88.2122 166.927 88.4727 168.125 88.4727 169.531V173.945C88.4727 174.883 88.4857 175.729 88.5117 176.484C88.5638 177.214 88.6159 177.721 88.668 178.008L91.0898 178.594L91.0117 180H83.2383ZM93.1602 180L93.082 178.555L95.6992 178.008C95.7253 177.904 95.7383 177.721 95.7383 177.461C95.7643 177.201 95.7904 176.784 95.8164 176.211C95.8424 175.638 95.8555 174.844 95.8555 173.828V171.25C95.8555 170.182 95.8294 169.206 95.7773 168.32C95.7253 167.435 95.6602 166.745 95.582 166.25L92.9648 165.703V164.414L98.5117 162.969L99.0977 163.516C99.0195 164.323 98.9544 165.117 98.9023 165.898C98.8763 166.68 98.8633 167.591 98.8633 168.633V173.555C98.8633 174.753 98.8763 175.742 98.9023 176.523C98.9544 177.305 99.0065 177.799 99.0586 178.008L101.676 178.555L101.598 180H93.1602ZM97.3789 158.555C96.7279 158.555 96.1549 158.333 95.6602 157.891C95.1914 157.448 94.957 156.901 94.957 156.25C94.957 155.599 95.1914 155.052 95.6602 154.609C96.1549 154.167 96.7279 153.945 97.3789 153.945C98.056 153.945 98.6159 154.167 99.0586 154.609C99.5013 155.052 99.7227 155.599 99.7227 156.25C99.7227 156.901 99.5013 157.448 99.0586 157.891C98.6159 158.333 98.056 158.555 97.3789 158.555ZM110.23 180.312C109.189 180.312 108.264 180.104 107.457 179.688C106.65 179.271 106.012 178.737 105.543 178.086C105.1 177.435 104.879 176.758 104.879 176.055C104.879 175.169 105.165 174.44 105.738 173.867C106.311 173.294 107.249 172.799 108.551 172.383L114.488 170.391V168.398C114.488 167.747 114.293 167.161 113.902 166.641C113.512 166.094 112.991 165.664 112.34 165.352C111.689 165.039 110.96 164.883 110.152 164.883C109.501 164.883 109.059 165.026 108.824 165.312C108.59 165.573 108.447 166.107 108.395 166.914L108.316 168.555C107.379 168.763 106.585 168.737 105.934 168.477C105.283 168.19 104.957 167.734 104.957 167.109C104.957 166.667 105.139 166.224 105.504 165.781C105.895 165.339 106.402 164.922 107.027 164.531C107.652 164.115 108.329 163.763 109.059 163.477C109.788 163.19 110.504 162.995 111.207 162.891C113.134 162.891 114.671 163.398 115.816 164.414C116.988 165.43 117.587 166.758 117.613 168.398L117.535 174.961C117.535 175.456 117.548 175.938 117.574 176.406C117.626 176.875 117.691 177.227 117.77 177.461L120.27 177.93V179.141L118.355 179.844C117.991 179.974 117.652 180.078 117.34 180.156C117.027 180.26 116.767 180.312 116.559 180.312C115.751 180.312 115.23 179.857 114.996 178.945L114.566 177.422H115.152C114.293 178.385 113.46 179.115 112.652 179.609C111.871 180.078 111.064 180.312 110.23 180.312ZM111.285 178.008C111.884 178.008 112.444 177.878 112.965 177.617C113.486 177.331 113.993 176.901 114.488 176.328V172.227L110.113 173.398C109.488 173.555 109.033 173.802 108.746 174.141C108.486 174.479 108.355 174.909 108.355 175.43C108.355 176.081 108.642 176.68 109.215 177.227C109.814 177.747 110.504 178.008 111.285 178.008ZM122.145 180L122.066 178.555L124.684 178.008C124.71 177.904 124.723 177.721 124.723 177.461C124.749 177.201 124.775 176.784 124.801 176.211C124.827 175.638 124.84 174.844 124.84 173.828V171.25C124.84 170.182 124.814 169.206 124.762 168.32C124.71 167.435 124.645 166.745 124.566 166.25L121.949 165.703V164.414L127.496 162.969L128.082 163.516C128.004 164.323 127.939 165.117 127.887 165.898C127.861 166.68 127.848 167.591 127.848 168.633V173.555C127.848 174.753 127.861 175.742 127.887 176.523C127.939 177.305 127.991 177.799 128.043 178.008L130.66 178.555L130.582 180H122.145ZM126.363 158.555C125.712 158.555 125.139 158.333 124.645 157.891C124.176 157.448 123.941 156.901 123.941 156.25C123.941 155.599 124.176 155.052 124.645 154.609C125.139 154.167 125.712 153.945 126.363 153.945C127.04 153.945 127.6 154.167 128.043 154.609C128.486 155.052 128.707 155.599 128.707 156.25C128.707 156.901 128.486 157.448 128.043 157.891C127.6 158.333 127.04 158.555 126.363 158.555Z" fill="black"/>
<path d="M102.054 84.978C102.171 99.9809 89.2453 112.144 73.445 112.144C57.6446 112.144 44.8371 99.9809 44.8371 84.978C44.8371 76.664 48.7701 69.2188 54.9655 64.2389L55.7041 63.355L50.1555 53.3759C40.9165 60.5786 34.632 71.0249 34.632 83.6474C34.6361 105.381 52.2604 123.011 74 123.011C95.7395 123.011 113.364 105.381 113.364 83.6474C113.364 53.391 88.9713 44.7289 80.3201 42.7309C79.4677 42.5336 76.9586 41.8264 75.0442 41.4825C72.1993 40.9686 69.9327 39.542 73.445 34.9691C75.7458 31.9735 74.333 29.6466 74.333 29.6466C74.333 29.6466 71.2277 24.9873 68.5664 24.9873C65.9052 24.9873 63.9072 27.4266 62.3573 29.8672C60.8074 32.3079 62.3573 34.5265 63.4659 35.6324C64.5746 36.7383 64.1223 39.5324 64.2416 40.8398C64.4636 43.279 63.2439 46.4953 76.9942 50.4872C76.9942 50.4927 101.832 56.7018 102.054 84.978Z" stroke="black" stroke-width="4.7963" stroke-linecap="round" stroke-linejoin="round"/>
<path d="M54.7154 52.501L53.1698 53.2675L57.3443 61.6844L58.89 60.9179L54.7154 52.501Z" stroke="black" stroke-width="4.14674" stroke-linecap="round" stroke-linejoin="round"/>
<path d="M59.6496 52.3802L58.0483 53.0226L60.9496 60.2542L62.5508 59.6118L59.6496 52.3802Z" stroke="black" stroke-width="4.14674" stroke-linecap="round" stroke-linejoin="round"/>
<path d="M64.112 52.8768L62.481 53.4394L64.4559 59.1654L66.0869 58.6028L64.112 52.8768Z" stroke="black" stroke-width="4.14674" stroke-linecap="round" stroke-linejoin="round"/>
</svg>