<svg width="127" height="177" viewBox="0 0 127 177" fill="none" xmlns="http://www.w3.org/2000/svg">
<path d="M32.5078 165.68C32.5078 166.053 32.4011 166.24 32.1878 166.24C31.2945 166.24 30.2278 166.2 28.9878 166.12C27.8011 166.04 26.8011 166 25.9878 166C25.2011 166 24.1145 166.04 22.7278 166.12C21.2745 166.2 20.1011 166.24 19.2078 166.24C18.9945 166.24 18.8878 166.053 18.8878 165.68C18.8878 165.347 18.9811 165.167 19.1678 165.14C20.9678 164.927 21.8678 164.493 21.8678 163.84C21.8678 163.467 21.5745 162.987 20.9878 162.4L13.0478 154.32C12.6211 153.893 12.2478 153.613 11.9278 153.48C11.6211 153.347 11.1945 153.28 10.6478 153.28V161.76C10.6478 162.68 10.7611 163.333 10.9878 163.72C11.2278 164.093 11.6411 164.393 12.2278 164.62C12.8278 164.833 13.6811 165.007 14.7878 165.14C15.0145 165.167 15.1278 165.347 15.1278 165.68C15.1278 166.053 15.0211 166.24 14.8078 166.24C13.9145 166.24 12.8478 166.2 11.6078 166.12C10.4211 166.04 9.42115 166 8.60781 166C7.80781 166 6.82115 166.04 5.64781 166.12C4.40781 166.2 3.34115 166.24 2.44781 166.24C2.23448 166.24 2.12781 166.053 2.12781 165.68C2.12781 165.347 2.23448 165.167 2.44781 165.14C4.06115 164.953 5.15448 164.653 5.72781 164.24C6.31448 163.827 6.60781 163 6.60781 161.76V142.94C6.60781 142.007 6.48781 141.353 6.24781 140.98C6.02115 140.593 5.61448 140.293 5.02781 140.08C4.44115 139.853 3.58115 139.673 2.44781 139.54C2.23448 139.54 2.12781 139.353 2.12781 138.98C2.12781 138.607 2.23448 138.42 2.44781 138.42C3.34115 138.42 4.40781 138.46 5.64781 138.54C6.82115 138.62 7.80781 138.66 8.60781 138.66C9.42115 138.66 10.4211 138.62 11.6078 138.54C12.8478 138.46 13.9145 138.42 14.8078 138.42C15.0211 138.42 15.1278 138.607 15.1278 138.98C15.1278 139.353 15.0211 139.54 14.8078 139.54C13.6745 139.673 12.8145 139.853 12.2278 140.08C11.6411 140.293 11.2278 140.593 10.9878 140.98C10.7611 141.353 10.6478 142.007 10.6478 142.94V152C11.1678 152 11.5878 151.933 11.9078 151.8C12.2278 151.667 12.6078 151.387 13.0478 150.96L21.8278 142.3C22.5478 141.62 22.9078 141.127 22.9078 140.82C22.9078 140.46 22.7345 140.193 22.3878 140.02C22.0545 139.833 21.3745 139.673 20.3478 139.54C20.1345 139.54 20.0278 139.353 20.0278 138.98C20.0278 138.607 20.1478 138.42 20.3878 138.42C21.0145 138.42 21.8411 138.46 22.8678 138.54C23.9611 138.62 24.8678 138.66 25.5878 138.66C26.3078 138.66 27.1078 138.613 27.9878 138.52C28.7211 138.453 29.3478 138.42 29.8678 138.42C30.0545 138.42 30.1478 138.607 30.1478 138.98C30.1478 139.353 30.0411 139.54 29.8278 139.54C28.5478 139.7 27.5411 139.96 26.8078 140.32C26.0745 140.68 25.1945 141.347 24.1678 142.32L15.0478 151L26.3878 162.52C27.1745 163.347 27.9478 163.947 28.7078 164.32C29.4811 164.68 30.6278 164.953 32.1478 165.14C32.3878 165.167 32.5078 165.347 32.5078 165.68ZM51.1553 164.92C51.1553 165.2 51.0486 165.353 50.8353 165.38C48.4086 165.647 46.7486 166.113 45.8553 166.78C45.6686 166.927 45.482 167 45.2953 167C45.0286 167 44.8953 166.893 44.8953 166.68L45.0553 164.16C43.082 165.947 41.2953 166.84 39.6953 166.84C37.8686 166.84 36.442 166.327 35.4153 165.3C34.402 164.26 33.8953 162.853 33.8953 161.08V153.6C33.8953 152.413 33.742 151.627 33.4353 151.24C33.1286 150.853 32.522 150.66 31.6153 150.66C31.442 150.66 31.2486 150.667 31.0353 150.68C30.8353 150.68 30.7353 150.507 30.7353 150.16C30.7353 149.733 30.842 149.52 31.0553 149.52C32.602 149.52 34.6286 149.22 37.1353 148.62C37.3753 148.62 37.4953 148.787 37.4953 149.12V160.12C37.4953 161.627 37.782 162.727 38.3553 163.42C38.9286 164.1 39.8286 164.44 41.0553 164.44C41.842 164.44 42.5353 164.293 43.1353 164C43.7353 163.707 44.3753 163.187 45.0553 162.44V153.6C45.0553 152.427 44.8953 151.647 44.5753 151.26C44.2686 150.86 43.6486 150.66 42.7153 150.66C42.5553 150.66 42.3686 150.667 42.1553 150.68C41.9553 150.68 41.8553 150.507 41.8553 150.16C41.8553 149.733 41.962 149.52 42.1753 149.52C43.722 149.52 45.7486 149.22 48.2553 148.62C48.4953 148.62 48.6153 148.787 48.6153 149.12V161.88C48.6153 162.8 48.742 163.42 48.9953 163.74C49.262 164.047 49.8753 164.267 50.8353 164.4C51.0486 164.4 51.1553 164.573 51.1553 164.92ZM84.4928 165.68C84.4928 166.053 84.3861 166.24 84.1728 166.24C83.6395 166.24 82.9861 166.2 82.2128 166.12C81.3595 166.04 80.5995 166 79.9328 166C79.2795 166 78.5261 166.04 77.6728 166.12C76.8995 166.2 76.2395 166.24 75.6928 166.24C75.4795 166.24 75.3728 166.053 75.3728 165.68C75.3728 165.347 75.4795 165.167 75.6928 165.14C76.5995 165.033 77.1928 164.773 77.4728 164.36C77.7528 163.947 77.8928 163.08 77.8928 161.76V155.08C77.8928 153.573 77.6061 152.48 77.0328 151.8C76.4595 151.107 75.5595 150.76 74.3328 150.76C72.7195 150.76 71.3861 151.307 70.3328 152.4V161.76C70.3328 163.08 70.4795 163.947 70.7728 164.36C71.0661 164.773 71.6661 165.033 72.5728 165.14C72.7861 165.167 72.8928 165.347 72.8928 165.68C72.8928 166.053 72.7861 166.24 72.5728 166.24C72.0395 166.24 71.4195 166.2 70.7128 166.12C69.9395 166.04 69.2328 166 68.5928 166C67.9261 166 67.1995 166.04 66.4128 166.12C65.7061 166.2 65.0861 166.24 64.5528 166.24C64.3395 166.24 64.2328 166.053 64.2328 165.68C64.2328 165.347 64.3395 165.167 64.5528 165.14C65.4728 165.033 66.0728 164.773 66.3528 164.36C66.6461 163.947 66.7928 163.08 66.7928 161.76V155.08C66.7928 153.587 66.4995 152.493 65.9128 151.8C65.3261 151.107 64.4195 150.76 63.1928 150.76C62.4195 150.76 61.7328 150.907 61.1328 151.2C60.5461 151.493 59.9128 152.013 59.2328 152.76V161.76C59.2328 163.08 59.3728 163.947 59.6528 164.36C59.9461 164.773 60.5528 165.033 61.4728 165.14C61.6861 165.167 61.7928 165.347 61.7928 165.68C61.7928 166.053 61.6861 166.24 61.4728 166.24C60.9261 166.24 60.2595 166.2 59.4728 166.12C58.6061 166.04 57.8461 166 57.1928 166C56.5261 166 55.7661 166.04 54.9128 166.12C54.1528 166.2 53.4995 166.24 52.9528 166.24C52.7395 166.24 52.6328 166.053 52.6328 165.68C52.6328 165.347 52.7395 165.167 52.9528 165.14C54.0861 164.993 54.8128 164.72 55.1328 164.32C55.4661 163.92 55.6328 163.067 55.6328 161.76V154.36C55.6328 153.293 55.4928 152.593 55.2128 152.26C54.9461 151.927 54.3528 151.707 53.4328 151.6C53.2195 151.6 53.1128 151.427 53.1128 151.08C53.1128 150.76 53.2195 150.6 53.4328 150.6C54.7528 150.267 55.8528 149.893 56.7328 149.48C57.6128 149.053 58.1661 148.707 58.3928 148.44C58.5261 148.28 58.6728 148.2 58.8328 148.2C59.2061 148.2 59.3928 148.307 59.3928 148.52L59.2328 151.04C61.1528 149.253 62.9395 148.36 64.5928 148.36C67.1261 148.36 68.8461 149.333 69.7528 151.28C71.7795 149.333 73.7595 148.36 75.6928 148.36C77.5195 148.36 78.9395 148.88 79.9528 149.92C80.9795 150.96 81.4928 152.36 81.4928 154.12V161.76C81.4928 163.067 81.6528 163.92 81.9728 164.32C82.3061 164.72 83.0395 164.993 84.1728 165.14C84.3861 165.167 84.4928 165.347 84.4928 165.68ZM92.5588 141.5C92.5588 142.06 92.3521 142.547 91.9388 142.96C91.5388 143.373 91.0521 143.58 90.4788 143.58C89.9054 143.58 89.4121 143.373 88.9988 142.96C88.5988 142.547 88.3988 142.06 88.3988 141.5C88.3988 140.913 88.5988 140.42 88.9988 140.02C89.3988 139.62 89.8921 139.42 90.4788 139.42C91.0521 139.42 91.5388 139.62 91.9388 140.02C92.3521 140.42 92.5588 140.913 92.5588 141.5ZM95.3588 165.68C95.3588 166.053 95.2521 166.24 95.0388 166.24C94.4921 166.24 93.7921 166.2 92.9388 166.12C91.9788 166.04 91.1721 166 90.5188 166C89.8521 166 89.0521 166.04 88.1188 166.12C87.2788 166.2 86.5854 166.24 86.0387 166.24C85.8254 166.24 85.7188 166.053 85.7188 165.68C85.7188 165.347 85.8254 165.167 86.0387 165.14C87.1721 164.993 87.8988 164.72 88.2188 164.32C88.5521 163.92 88.7188 163.067 88.7188 161.76V154.36C88.7188 153.293 88.5788 152.593 88.2988 152.26C88.0321 151.927 87.4388 151.707 86.5188 151.6C86.3054 151.6 86.1988 151.427 86.1988 151.08C86.1988 150.76 86.3054 150.6 86.5188 150.6C87.9188 150.24 89.0654 149.86 89.9588 149.46C90.8521 149.047 91.4121 148.707 91.6388 148.44C91.7721 148.28 91.9188 148.2 92.0788 148.2C92.4521 148.2 92.6388 148.307 92.6388 148.52C92.4254 151.507 92.3188 153.827 92.3188 155.48V161.76C92.3188 163.067 92.4788 163.92 92.7988 164.32C93.1321 164.72 93.8788 164.993 95.0388 165.14C95.2521 165.167 95.3588 165.347 95.3588 165.68ZM110.21 166.68C109.463 166.68 108.81 166.493 108.25 166.12C107.703 165.76 107.33 165.267 107.13 164.64C105.703 166.107 103.836 166.84 101.53 166.84C100.33 166.84 99.3497 166.473 98.5897 165.74C97.8297 164.993 97.4497 164.067 97.4497 162.96C97.4497 160.227 100.69 158.013 107.17 156.32L107.29 153.2V153.1C107.29 152.14 107.05 151.38 106.57 150.82C106.103 150.247 105.476 149.96 104.69 149.96C103.903 149.96 103.236 150.153 102.69 150.54C102.143 150.913 101.863 151.387 101.85 151.96C101.836 152.813 101.61 153.48 101.17 153.96C100.743 154.44 100.17 154.68 99.4497 154.68C99.023 154.68 98.6764 154.553 98.4097 154.3C98.143 154.047 98.0097 153.707 98.0097 153.28C98.0097 152.253 98.943 151.18 100.81 150.06C102.676 148.927 104.41 148.36 106.01 148.36C107.45 148.36 108.616 148.787 109.51 149.64C110.403 150.493 110.85 151.64 110.85 153.08V153.32L110.57 162.36V162.5C110.57 163.9 111.023 164.6 111.93 164.6C112.37 164.6 112.883 164.333 113.47 163.8L113.61 163.76C113.716 163.76 113.816 163.833 113.91 163.98C114.003 164.113 114.05 164.26 114.05 164.42C114.05 164.807 113.643 165.28 112.83 165.84C112.03 166.4 111.156 166.68 110.21 166.68ZM107.13 157.68C103.236 158.56 101.29 160.013 101.29 162.04C101.29 163.933 102.023 164.88 103.49 164.88C104.196 164.88 104.89 164.707 105.57 164.36C106.263 164 106.73 163.56 106.97 163.04L107.13 157.68ZM121.621 141.5C121.621 142.06 121.415 142.547 121.001 142.96C120.601 143.373 120.115 143.58 119.541 143.58C118.968 143.58 118.475 143.373 118.061 142.96C117.661 142.547 117.461 142.06 117.461 141.5C117.461 140.913 117.661 140.42 118.061 140.02C118.461 139.62 118.955 139.42 119.541 139.42C120.115 139.42 120.601 139.62 121.001 140.02C121.415 140.42 121.621 140.913 121.621 141.5ZM124.421 165.68C124.421 166.053 124.315 166.24 124.101 166.24C123.555 166.24 122.855 166.2 122.001 166.12C121.041 166.04 120.235 166 119.581 166C118.915 166 118.115 166.04 117.181 166.12C116.341 166.2 115.648 166.24 115.101 166.24C114.888 166.24 114.781 166.053 114.781 165.68C114.781 165.347 114.888 165.167 115.101 165.14C116.235 164.993 116.961 164.72 117.281 164.32C117.615 163.92 117.781 163.067 117.781 161.76V154.36C117.781 153.293 117.641 152.593 117.361 152.26C117.095 151.927 116.501 151.707 115.581 151.6C115.368 151.6 115.261 151.427 115.261 151.08C115.261 150.76 115.368 150.6 115.581 150.6C116.981 150.24 118.128 149.86 119.021 149.46C119.915 149.047 120.475 148.707 120.701 148.44C120.835 148.28 120.981 148.2 121.141 148.2C121.515 148.2 121.701 148.307 121.701 148.52C121.488 151.507 121.381 153.827 121.381 155.48V161.76C121.381 163.067 121.541 163.92 121.861 164.32C122.195 164.72 122.941 164.993 124.101 165.14C124.315 165.167 124.421 165.347 124.421 165.68Z" fill="black"/>
<path d="M109.633 67.6009C88.4356 90.813 52.6071 99.9639 27.1978 77.7348C22.1595 73.3267 17.8233 68.031 14.415 62.2726C21.718 51.5423 29.4793 41.8245 41.3903 36.019C67.4692 23.3048 98.6212 38.1645 111.304 62.9605" stroke="black" stroke-width="8" stroke-miterlimit="1.5" stroke-linecap="round" stroke-linejoin="round"/>
<path fill-rule="evenodd" clip-rule="evenodd" d="M70.789 49.2961C67.1742 47.4465 63.3106 46.8088 59.417 48.2818C50.6178 51.6122 47.6996 63.662 54.0149 70.5605C63.4695 80.8871 81.4256 68.8439 76.5855 56.2222" fill="black"/>
<path d="M70.789 49.2961C67.1742 47.4465 63.3106 46.8088 59.417 48.2818C50.6178 51.6122 47.6996 63.662 54.0149 70.5605C63.4695 80.8871 81.4256 68.8439 76.5855 56.2222" stroke="black" stroke-width="8" stroke-miterlimit="1.5" stroke-linecap="round" stroke-linejoin="round"/>
<path d="M16.1475 82.5747C18.3949 79.6347 20.6028 76.5912 23.0583 73.8187" stroke="black" stroke-width="8" stroke-miterlimit="1.5" stroke-linecap="round" stroke-linejoin="round"/>
<path d="M28.1514 91.8327C30.0882 88.8404 32.2396 86.002 34.3781 83.1528" stroke="black" stroke-width="8" stroke-miterlimit="1.5" stroke-linecap="round" stroke-linejoin="round"/>
<path d="M43.3262 98.811C45.3634 95.5573 47.5393 92.3434 49.8293 89.2604" stroke="black" stroke-width="8" stroke-miterlimit="1.5" stroke-linecap="round" stroke-linejoin="round"/>
<path d="M62.8115 101.847C65.2105 97.7894 67.3917 93.5601 70.2079 89.7642" stroke="black" stroke-width="8" stroke-miterlimit="1.5" stroke-linecap="round" stroke-linejoin="round"/>
<path d="M82.5615 98.4696C85.3385 92.9314 88.0604 87.1305 91.5507 81.9866" stroke="black" stroke-width="8" stroke-miterlimit="1.5" stroke-linecap="round" stroke-linejoin="round"/>
<path d="M109.73 67.5976C107.043 73.156 104.412 78.7415 101.729 84.301" stroke="black" stroke-width="8" stroke-miterlimit="1.5" stroke-linecap="round" stroke-linejoin="round"/>
</svg>