<svg width="139" height="177" viewBox="0 0 139 177" fill="none" xmlns="http://www.w3.org/2000/svg">
<rect width="127" height="177" fill="white"/>
<path d="M34.9255 146.58C34.9255 148.927 34.0188 150.9 32.2055 152.5C30.4055 154.087 28.1721 154.88 25.5055 154.88C23.9055 154.88 22.3321 154.813 20.7855 154.68V161.76C20.7855 162.693 20.8988 163.347 21.1255 163.72C21.3655 164.093 21.7721 164.393 22.3455 164.62C22.9321 164.833 23.7855 165.007 24.9055 165.14C25.1188 165.167 25.2255 165.347 25.2255 165.68C25.2255 166.053 25.1188 166.24 24.9055 166.24C24.0121 166.24 22.9521 166.2 21.7255 166.12C20.5521 166.04 19.5588 166 18.7455 166C17.9321 166 16.9321 166.04 15.7455 166.12C14.5055 166.2 13.4388 166.24 12.5455 166.24C12.3321 166.24 12.2255 166.053 12.2255 165.68C12.2255 165.347 12.3321 165.167 12.5455 165.14C14.1588 164.953 15.2521 164.653 15.8255 164.24C16.4121 163.827 16.7055 163 16.7055 161.76V142.94C16.7055 142.007 16.5855 141.353 16.3455 140.98C16.1188 140.593 15.7121 140.293 15.1255 140.08C14.5388 139.853 13.6788 139.673 12.5455 139.54C12.3321 139.54 12.2255 139.353 12.2255 138.98C12.2255 138.607 12.3321 138.42 12.5455 138.42C13.4388 138.42 14.5055 138.46 15.7455 138.54C16.9321 138.62 17.9321 138.66 18.7455 138.66C19.5588 138.66 20.5521 138.62 21.7255 138.54C22.9521 138.46 24.0121 138.42 24.9055 138.42C28.1855 138.42 30.6721 139.113 32.3655 140.5C34.0721 141.887 34.9255 143.913 34.9255 146.58ZM30.4855 146.58C30.4855 144.447 29.9588 142.78 28.9055 141.58C27.8655 140.38 26.4788 139.78 24.7455 139.78C23.7055 139.78 22.8988 139.86 22.3255 140.02C21.7655 140.18 21.3655 140.44 21.1255 140.8C20.8988 141.16 20.7855 141.873 20.7855 142.94V152.12C20.7855 152.693 20.9655 153.08 21.3255 153.28C21.6855 153.467 22.4655 153.56 23.6655 153.56C25.8388 153.56 27.5188 152.94 28.7055 151.7C29.8921 150.46 30.4855 148.753 30.4855 146.58ZM49.1355 166.68C48.3888 166.68 47.7355 166.493 47.1755 166.12C46.6288 165.76 46.2555 165.267 46.0555 164.64C44.6288 166.107 42.7621 166.84 40.4555 166.84C39.2555 166.84 38.2755 166.473 37.5155 165.74C36.7555 164.993 36.3755 164.067 36.3755 162.96C36.3755 160.227 39.6155 158.013 46.0955 156.32L46.2155 153.2V153.1C46.2155 152.14 45.9755 151.38 45.4955 150.82C45.0288 150.247 44.4021 149.96 43.6155 149.96C42.8288 149.96 42.1621 150.153 41.6155 150.54C41.0688 150.913 40.7888 151.387 40.7755 151.96C40.7621 152.813 40.5355 153.48 40.0955 153.96C39.6688 154.44 39.0955 154.68 38.3755 154.68C37.9488 154.68 37.6021 154.553 37.3355 154.3C37.0688 154.047 36.9355 153.707 36.9355 153.28C36.9355 152.253 37.8688 151.18 39.7355 150.06C41.6021 148.927 43.3355 148.36 44.9355 148.36C46.3755 148.36 47.5421 148.787 48.4355 149.64C49.3288 150.493 49.7755 151.64 49.7755 153.08V153.32L49.4955 162.36V162.5C49.4955 163.9 49.9488 164.6 50.8555 164.6C51.2955 164.6 51.8088 164.333 52.3955 163.8L52.5355 163.76C52.6421 163.76 52.7421 163.833 52.8355 163.98C52.9288 164.113 52.9755 164.26 52.9755 164.42C52.9755 164.807 52.5688 165.28 51.7555 165.84C50.9555 166.4 50.0821 166.68 49.1355 166.68ZM46.0555 157.68C42.1621 158.56 40.2155 160.013 40.2155 162.04C40.2155 163.933 40.9488 164.88 42.4155 164.88C43.1221 164.88 43.8155 164.707 44.4955 164.36C45.1888 164 45.6555 163.56 45.8955 163.04L46.0555 157.68ZM60.547 141.5C60.547 142.06 60.3404 142.547 59.927 142.96C59.527 143.373 59.0404 143.58 58.467 143.58C57.8937 143.58 57.4004 143.373 56.987 142.96C56.587 142.547 56.387 142.06 56.387 141.5C56.387 140.913 56.587 140.42 56.987 140.02C57.387 139.62 57.8804 139.42 58.467 139.42C59.0404 139.42 59.527 139.62 59.927 140.02C60.3404 140.42 60.547 140.913 60.547 141.5ZM63.347 165.68C63.347 166.053 63.2404 166.24 63.027 166.24C62.4804 166.24 61.7804 166.2 60.927 166.12C59.967 166.04 59.1604 166 58.507 166C57.8404 166 57.0404 166.04 56.107 166.12C55.267 166.2 54.5737 166.24 54.027 166.24C53.8137 166.24 53.707 166.053 53.707 165.68C53.707 165.347 53.8137 165.167 54.027 165.14C55.1604 164.993 55.887 164.72 56.207 164.32C56.5404 163.92 56.707 163.067 56.707 161.76V154.36C56.707 153.293 56.567 152.593 56.287 152.26C56.0204 151.927 55.427 151.707 54.507 151.6C54.2937 151.6 54.187 151.427 54.187 151.08C54.187 150.76 54.2937 150.6 54.507 150.6C55.907 150.24 57.0537 149.86 57.947 149.46C58.8404 149.047 59.4004 148.707 59.627 148.44C59.7604 148.28 59.907 148.2 60.067 148.2C60.4404 148.2 60.627 148.307 60.627 148.52C60.4137 151.507 60.307 153.827 60.307 155.48V161.76C60.307 163.067 60.467 163.92 60.787 164.32C61.1204 164.72 61.867 164.993 63.027 165.14C63.2404 165.167 63.347 165.347 63.347 165.68ZM84.218 157.72C84.218 160.347 83.3313 162.527 81.558 164.26C79.7846 165.98 77.518 166.84 74.758 166.84C73.1713 166.84 71.8113 166.533 70.678 165.92V172.08C70.678 173.373 70.8446 174.227 71.178 174.64C71.5113 175.053 72.2513 175.333 73.398 175.48C73.6113 175.48 73.718 175.667 73.718 176.04C73.718 176.413 73.6113 176.6 73.398 176.6C72.8513 176.6 72.1446 176.56 71.278 176.48C70.3446 176.4 69.558 176.36 68.918 176.36C68.2513 176.36 67.4446 176.4 66.498 176.48C65.6446 176.56 64.9446 176.6 64.398 176.6C64.1846 176.6 64.078 176.413 64.078 176.04C64.078 175.667 64.1846 175.48 64.398 175.48C65.5313 175.333 66.2646 175.053 66.598 174.64C66.9446 174.227 67.118 173.373 67.118 172.08V154.36C67.118 153.293 66.978 152.593 66.698 152.26C66.4313 151.927 65.8246 151.707 64.878 151.6C64.6646 151.6 64.558 151.427 64.558 151.08C64.558 150.76 64.6646 150.6 64.878 150.6C66.1713 150.28 67.2513 149.913 68.118 149.5C68.998 149.087 69.578 148.733 69.858 148.44C70.0046 148.28 70.1446 148.2 70.278 148.2C70.6513 148.2 70.838 148.307 70.838 148.52L70.678 151.04C71.4113 150.28 72.258 149.647 73.218 149.14C74.178 148.62 74.998 148.36 75.678 148.36C78.3046 148.36 80.3846 149.22 81.918 150.94C83.4513 152.647 84.218 154.907 84.218 157.72ZM80.198 157.68C80.198 155.453 79.7113 153.72 78.738 152.48C77.778 151.227 76.4246 150.6 74.678 150.6C73.9446 150.6 73.278 150.753 72.678 151.06C72.0913 151.367 71.4246 151.933 70.678 152.76V162.56C70.678 163.413 71.058 164.127 71.818 164.7C72.578 165.273 73.5046 165.56 74.598 165.56C76.4113 165.56 77.798 164.88 78.758 163.52C79.718 162.147 80.198 160.2 80.198 157.68ZM100.112 166.68C99.3654 166.68 98.712 166.493 98.152 166.12C97.6054 165.76 97.232 165.267 97.032 164.64C95.6054 166.107 93.7387 166.84 91.432 166.84C90.232 166.84 89.252 166.473 88.492 165.74C87.732 164.993 87.352 164.067 87.352 162.96C87.352 160.227 90.592 158.013 97.072 156.32L97.192 153.2V153.1C97.192 152.14 96.952 151.38 96.472 150.82C96.0054 150.247 95.3787 149.96 94.592 149.96C93.8054 149.96 93.1387 150.153 92.592 150.54C92.0454 150.913 91.7654 151.387 91.752 151.96C91.7387 152.813 91.512 153.48 91.072 153.96C90.6454 154.44 90.072 154.68 89.352 154.68C88.9254 154.68 88.5787 154.553 88.312 154.3C88.0454 154.047 87.912 153.707 87.912 153.28C87.912 152.253 88.8454 151.18 90.712 150.06C92.5787 148.927 94.312 148.36 95.912 148.36C97.352 148.36 98.5187 148.787 99.412 149.64C100.305 150.493 100.752 151.64 100.752 153.08V153.32L100.472 162.36V162.5C100.472 163.9 100.925 164.6 101.832 164.6C102.272 164.6 102.785 164.333 103.372 163.8L103.512 163.76C103.619 163.76 103.719 163.833 103.812 163.98C103.905 164.113 103.952 164.26 103.952 164.42C103.952 164.807 103.545 165.28 102.732 165.84C101.932 166.4 101.059 166.68 100.112 166.68ZM97.032 157.68C93.1387 158.56 91.192 160.013 91.192 162.04C91.192 163.933 91.9254 164.88 93.392 164.88C94.0987 164.88 94.792 164.707 95.472 164.36C96.1654 164 96.632 163.56 96.872 163.04L97.032 157.68ZM111.524 141.5C111.524 142.06 111.317 142.547 110.904 142.96C110.504 143.373 110.017 143.58 109.444 143.58C108.87 143.58 108.377 143.373 107.964 142.96C107.564 142.547 107.364 142.06 107.364 141.5C107.364 140.913 107.564 140.42 107.964 140.02C108.364 139.62 108.857 139.42 109.444 139.42C110.017 139.42 110.504 139.62 110.904 140.02C111.317 140.42 111.524 140.913 111.524 141.5ZM114.324 165.68C114.324 166.053 114.217 166.24 114.004 166.24C113.457 166.24 112.757 166.2 111.904 166.12C110.944 166.04 110.137 166 109.484 166C108.817 166 108.017 166.04 107.084 166.12C106.244 166.2 105.55 166.24 105.004 166.24C104.79 166.24 104.684 166.053 104.684 165.68C104.684 165.347 104.79 165.167 105.004 165.14C106.137 164.993 106.864 164.72 107.184 164.32C107.517 163.92 107.684 163.067 107.684 161.76V154.36C107.684 153.293 107.544 152.593 107.264 152.26C106.997 151.927 106.404 151.707 105.484 151.6C105.27 151.6 105.164 151.427 105.164 151.08C105.164 150.76 105.27 150.6 105.484 150.6C106.884 150.24 108.03 149.86 108.924 149.46C109.817 149.047 110.377 148.707 110.604 148.44C110.737 148.28 110.884 148.2 111.044 148.2C111.417 148.2 111.604 148.307 111.604 148.52C111.39 151.507 111.284 153.827 111.284 155.48V161.76C111.284 163.067 111.444 163.92 111.764 164.32C112.097 164.72 112.844 164.993 114.004 165.14C114.217 165.167 114.324 165.347 114.324 165.68Z" fill="black"/>
<path d="M16 43.2779C16.1934 44.193 17.7847 45.454 18.361 45.6785C20.758 46.6154 23.2335 46.3414 25.7189 45.901C32.5379 44.6934 38.2238 39.5871 40.5357 33.0197C39.9679 32.6553 42.0105 37.4506 42.2378 37.8818C44.1875 41.5778 47.1058 45.0209 51.0457 46.6101C59.3906 49.976 68.5188 43.9916 70.8948 35.6521C70.902 35.6283 71.1948 36.5494 71.3107 36.797C71.722 37.6725 72.2649 38.47 72.8085 39.2656C74.1884 41.2866 75.5886 43.3842 77.3215 45.118C82.8391 50.6375 92.006 53.1094 98.8741 48.6026" stroke="black" stroke-width="8" stroke-miterlimit="1.5" stroke-linecap="round" stroke-linejoin="round"/>
<path d="M19.3125 66.3425C19.0374 66.1411 21.2647 67.7125 21.879 67.9165C23.8235 68.5642 25.8138 68.755 27.8512 68.5998C34.8797 68.0644 40.0968 64.0039 44.2109 58.528C44.0099 58.1245 44.5318 59.3764 44.7669 59.7606C45.4271 60.8427 46.2032 61.8688 47.0579 62.801C49.3723 65.3231 52.1701 67.4702 55.389 68.6632C64.4471 72.0225 70.2051 65.6149 74.1785 58.4012C74.0193 58.1358 74.5642 58.8851 74.7319 59.1453C75.2106 59.8861 75.7123 60.6077 76.246 61.3102C78.0372 63.6672 80.0275 65.9325 82.5312 67.5402C89.3967 71.9492 97.7419 70.2033 101.977 63.0873" stroke="black" stroke-width="8" stroke-miterlimit="1.5" stroke-linecap="round" stroke-linejoin="round"/>
<path d="M19.8501 91.7828C22.086 92.6616 24.5805 93.0109 26.969 92.9224C33.4337 92.6841 43.1539 89.0283 45.1324 81.9598C45.8805 84.9759 47.2752 87.8577 50.2597 90.43C58.7035 97.7058 69.1854 94.6285 72.9871 84.4086C74.7528 88.0979 77.0109 91.4111 80.4289 94.0415C88.6651 100.38 98.3926 95.5654 103.71 87.9495" stroke="black" stroke-width="8" stroke-miterlimit="1.5" stroke-linecap="round" stroke-linejoin="round"/>
</svg>