<svg xmlns="http://www.w3.org/2000/svg" width="182" height="203" viewBox="0 0 182 203" fill="none">
<path d="M34.1016 194L33.9844 192.516L36.25 191.969C36.276 191.865 36.3021 191.643 36.3281 191.305C36.3542 190.94 36.3672 190.367 36.3672 189.586C36.3932 188.805 36.4062 187.75 36.4062 186.422L36.4453 178.492C36.4453 177.19 36.4323 176.174 36.4062 175.445C36.3802 174.69 36.3542 174.143 36.3281 173.805C36.3281 173.44 36.3151 173.219 36.2891 173.141L33.8672 172.555L33.9844 171.07H42.3047C44.8828 171.07 46.888 171.643 48.3203 172.789C49.7526 173.909 50.4688 175.536 50.4688 177.672C50.4688 179.13 50.0911 180.393 49.3359 181.461C48.6068 182.529 47.6172 183.362 46.3672 183.961C45.1172 184.534 43.724 184.82 42.1875 184.82C41.6146 184.82 41.0677 184.794 40.5469 184.742C40.0521 184.664 39.5833 184.586 39.1406 184.508V182.398C39.7396 182.581 40.2604 182.711 40.7031 182.789C41.1719 182.867 41.6276 182.906 42.0703 182.906C43.6068 182.906 44.8047 182.529 45.6641 181.773C46.5234 180.992 46.9531 179.794 46.9531 178.18C46.9531 176.331 46.4714 174.977 45.5078 174.117C44.5443 173.232 43.3333 172.789 41.875 172.789H39.8047C39.8047 172.945 39.7917 173.31 39.7656 173.883C39.7656 174.456 39.7526 175.146 39.7266 175.953C39.7266 176.734 39.7266 177.581 39.7266 178.492L39.7656 186.422C39.7656 187.75 39.7786 188.805 39.8047 189.586C39.8307 190.341 39.8568 190.901 39.8828 191.266C39.9089 191.604 39.9219 191.826 39.9219 191.93L43.1641 192.438L43.0469 194H34.1016ZM59.1797 194.312C58.138 194.312 57.2135 194.104 56.4062 193.688C55.599 193.271 54.9609 192.737 54.4922 192.086C54.0495 191.435 53.8281 190.758 53.8281 190.055C53.8281 189.169 54.1146 188.44 54.6875 187.867C55.2604 187.294 56.1979 186.799 57.5 186.383L63.4375 184.391V182.398C63.4375 181.747 63.2422 181.161 62.8516 180.641C62.4609 180.094 61.9401 179.664 61.2891 179.352C60.638 179.039 59.9089 178.883 59.1016 178.883C58.4505 178.883 58.0078 179.026 57.7734 179.312C57.5391 179.573 57.3958 180.107 57.3438 180.914L57.2656 182.555C56.3281 182.763 55.5339 182.737 54.8828 182.477C54.2318 182.19 53.9062 181.734 53.9062 181.109C53.9062 180.667 54.0885 180.224 54.4531 179.781C54.8438 179.339 55.3516 178.922 55.9766 178.531C56.6016 178.115 57.2786 177.763 58.0078 177.477C58.737 177.19 59.4531 176.995 60.1562 176.891C62.0833 176.891 63.6198 177.398 64.7656 178.414C65.9375 179.43 66.5365 180.758 66.5625 182.398L66.4844 188.961C66.4844 189.456 66.4974 189.938 66.5234 190.406C66.5755 190.875 66.6406 191.227 66.7188 191.461L69.2188 191.93V193.141L67.3047 193.844C66.9401 193.974 66.6016 194.078 66.2891 194.156C65.9766 194.26 65.7161 194.312 65.5078 194.312C64.7005 194.312 64.1797 193.857 63.9453 192.945L63.5156 191.422H64.1016C63.2422 192.385 62.4089 193.115 61.6016 193.609C60.8203 194.078 60.013 194.312 59.1797 194.312ZM60.2344 192.008C60.8333 192.008 61.3932 191.878 61.9141 191.617C62.4349 191.331 62.9427 190.901 63.4375 190.328V186.227L59.0625 187.398C58.4375 187.555 57.9818 187.802 57.6953 188.141C57.4349 188.479 57.3047 188.909 57.3047 189.43C57.3047 190.081 57.5911 190.68 58.1641 191.227C58.763 191.747 59.4531 192.008 60.2344 192.008ZM78.5938 194L78.5156 192.555L81.1328 192.008C81.1589 191.904 81.1719 191.721 81.1719 191.461C81.1979 191.201 81.224 190.784 81.25 190.211C81.276 189.638 81.2891 188.844 81.2891 187.828V185.25C81.2891 184.182 81.263 183.206 81.2109 182.32C81.1589 181.435 81.0938 180.745 81.0156 180.25L78.3984 179.703V178.414L83.9453 176.969L84.5312 177.516C84.4531 178.323 84.388 179.117 84.3359 179.898C84.3099 180.68 84.2969 181.591 84.2969 182.633V187.555C84.2969 188.753 84.3099 189.742 84.3359 190.523C84.388 191.305 84.4401 191.799 84.4922 192.008L87.1094 192.555L87.0312 194H78.5938ZM82.8125 172.555C82.1615 172.555 81.5885 172.333 81.0938 171.891C80.625 171.448 80.3906 170.901 80.3906 170.25C80.3906 169.599 80.625 169.052 81.0938 168.609C81.5885 168.167 82.1615 167.945 82.8125 167.945C83.4896 167.945 84.0495 168.167 84.4922 168.609C84.9349 169.052 85.1562 169.599 85.1562 170.25C85.1562 170.901 84.9349 171.448 84.4922 171.891C84.0495 172.333 83.4896 172.555 82.8125 172.555ZM89.1406 202.594L89.0625 201.188L91.4844 200.602C91.4844 200.471 91.4844 200.237 91.4844 199.898C91.5104 199.586 91.5365 199.169 91.5625 198.648C91.5885 198.128 91.6016 197.503 91.6016 196.773C91.6276 196.044 91.6406 195.198 91.6406 194.234L91.7188 184.586C91.7188 183.805 91.6797 183.01 91.6016 182.203C91.5495 181.396 91.4844 180.745 91.4062 180.25L88.9062 179.703V178.414L94.1406 176.969L94.8047 177.594L94.6094 179.742H94.7266C95.4557 178.805 96.25 178.102 97.1094 177.633C97.9948 177.138 98.9453 176.891 99.9609 176.891C101.393 176.891 102.656 177.255 103.75 177.984C104.87 178.688 105.742 179.664 106.367 180.914C107.018 182.138 107.344 183.557 107.344 185.172C107.344 186.891 106.953 188.44 106.172 189.82C105.391 191.201 104.323 192.294 102.969 193.102C101.641 193.883 100.13 194.273 98.4375 194.273C97.8125 194.273 97.1615 194.208 96.4844 194.078C95.8073 193.948 95.2083 193.792 94.6875 193.609V196.539C94.6875 197.529 94.7005 198.362 94.7266 199.039C94.7786 199.742 94.8177 200.263 94.8438 200.602L98.0469 201.109L97.9688 202.594H89.1406ZM98.5547 192.359C99.5964 192.359 100.508 192.112 101.289 191.617C102.096 191.122 102.721 190.393 103.164 189.43C103.633 188.466 103.88 187.294 103.906 185.914C103.932 184.664 103.724 183.557 103.281 182.594C102.865 181.63 102.266 180.875 101.484 180.328C100.729 179.755 99.8568 179.469 98.8672 179.469C98.0599 179.469 97.3047 179.664 96.6016 180.055C95.8984 180.419 95.2604 180.966 94.6875 181.695V191.148C95.2083 191.539 95.8073 191.839 96.4844 192.047C97.1615 192.255 97.8516 192.359 98.5547 192.359ZM116.641 194.312C115.599 194.312 114.674 194.104 113.867 193.688C113.06 193.271 112.422 192.737 111.953 192.086C111.51 191.435 111.289 190.758 111.289 190.055C111.289 189.169 111.576 188.44 112.148 187.867C112.721 187.294 113.659 186.799 114.961 186.383L120.898 184.391V182.398C120.898 181.747 120.703 181.161 120.312 180.641C119.922 180.094 119.401 179.664 118.75 179.352C118.099 179.039 117.37 178.883 116.562 178.883C115.911 178.883 115.469 179.026 115.234 179.312C115 179.573 114.857 180.107 114.805 180.914L114.727 182.555C113.789 182.763 112.995 182.737 112.344 182.477C111.693 182.19 111.367 181.734 111.367 181.109C111.367 180.667 111.549 180.224 111.914 179.781C112.305 179.339 112.812 178.922 113.438 178.531C114.062 178.115 114.74 177.763 115.469 177.477C116.198 177.19 116.914 176.995 117.617 176.891C119.544 176.891 121.081 177.398 122.227 178.414C123.398 179.43 123.997 180.758 124.023 182.398L123.945 188.961C123.945 189.456 123.958 189.938 123.984 190.406C124.036 190.875 124.102 191.227 124.18 191.461L126.68 191.93V193.141L124.766 193.844C124.401 193.974 124.062 194.078 123.75 194.156C123.438 194.26 123.177 194.312 122.969 194.312C122.161 194.312 121.641 193.857 121.406 192.945L120.977 191.422H121.562C120.703 192.385 119.87 193.115 119.062 193.609C118.281 194.078 117.474 194.312 116.641 194.312ZM117.695 192.008C118.294 192.008 118.854 191.878 119.375 191.617C119.896 191.331 120.404 190.901 120.898 190.328V186.227L116.523 187.398C115.898 187.555 115.443 187.802 115.156 188.141C114.896 188.479 114.766 188.909 114.766 189.43C114.766 190.081 115.052 190.68 115.625 191.227C116.224 191.747 116.914 192.008 117.695 192.008ZM128.555 194L128.477 192.555L131.094 192.008C131.12 191.904 131.133 191.721 131.133 191.461C131.159 191.201 131.185 190.784 131.211 190.211C131.237 189.638 131.25 188.844 131.25 187.828V185.25C131.25 184.182 131.224 183.206 131.172 182.32C131.12 181.435 131.055 180.745 130.977 180.25L128.359 179.703V178.414L133.906 176.969L134.492 177.516C134.414 178.323 134.349 179.117 134.297 179.898C134.271 180.68 134.258 181.591 134.258 182.633V187.555C134.258 188.753 134.271 189.742 134.297 190.523C134.349 191.305 134.401 191.799 134.453 192.008L137.07 192.555L136.992 194H128.555ZM132.773 172.555C132.122 172.555 131.549 172.333 131.055 171.891C130.586 171.448 130.352 170.901 130.352 170.25C130.352 169.599 130.586 169.052 131.055 168.609C131.549 168.167 132.122 167.945 132.773 167.945C133.451 167.945 134.01 168.167 134.453 168.609C134.896 169.052 135.117 169.599 135.117 170.25C135.117 170.901 134.896 171.448 134.453 171.891C134.01 172.333 133.451 172.555 132.773 172.555Z" fill="black"/>
<path d="M60.9027 49.2984C60.9027 49.2984 66.1756 57.7445 60.9549 62.453C55.7342 67.1614 40.2777 79.4447 44.7771 101.349C49.2766 123.253 56.5532 136.05 91.2529 136.869C125.953 137.688 136.394 116.805 137.622 104.112C138.851 91.4196 138.128 73.3022 123.497 64.1921C123.497 64.1921 115.513 60.3027 118.482 52.7328C121.451 45.163 120.734 45.0568 118.482 45.1579C116.231 45.259 108.245 45.2607 103.946 45.1579C99.6468 45.0551 99.6468 45.1579 99.6468 45.1579C99.6468 45.1579 88.0797 45.8758 84.8053 45.8758C81.531 45.8758 64.6404 46.0797 64.6404 46.0797C64.6404 46.0797 59.113 45.2556 60.9027 49.2984Z" stroke="black" stroke-width="5.89815" stroke-miterlimit="10"/>
</svg>