<svg width="182" height="203" viewBox="0 0 182 203" fill="none" xmlns="http://www.w3.org/2000/svg">
<path d="M38.3516 194L38.2344 192.516L40.5 191.969C40.526 191.865 40.5521 191.643 40.5781 191.305C40.6042 190.94 40.6172 190.367 40.6172 189.586C40.6432 188.805 40.6562 187.75 40.6562 186.422L40.6953 178.492C40.6953 177.19 40.6823 176.174 40.6562 175.445C40.6302 174.69 40.6042 174.143 40.5781 173.805C40.5781 173.44 40.5651 173.219 40.5391 173.141L38.1172 172.555L38.2344 171.07H46.5547C49.1328 171.07 51.138 171.643 52.5703 172.789C54.0026 173.909 54.7188 175.536 54.7188 177.672C54.7188 179.13 54.3411 180.393 53.5859 181.461C52.8568 182.529 51.8672 183.362 50.6172 183.961C49.3672 184.534 47.974 184.82 46.4375 184.82C45.8646 184.82 45.3177 184.794 44.7969 184.742C44.3021 184.664 43.8333 184.586 43.3906 184.508V182.398C43.9896 182.581 44.5104 182.711 44.9531 182.789C45.4219 182.867 45.8776 182.906 46.3203 182.906C47.8568 182.906 49.0547 182.529 49.9141 181.773C50.7734 180.992 51.2031 179.794 51.2031 178.18C51.2031 176.331 50.7214 174.977 49.7578 174.117C48.7943 173.232 47.5833 172.789 46.125 172.789H44.0547C44.0547 172.945 44.0417 173.31 44.0156 173.883C44.0156 174.456 44.0026 175.146 43.9766 175.953C43.9766 176.734 43.9766 177.581 43.9766 178.492L44.0156 186.422C44.0156 187.75 44.0286 188.805 44.0547 189.586C44.0807 190.341 44.1068 190.901 44.1328 191.266C44.1589 191.604 44.1719 191.826 44.1719 191.93L47.4141 192.438L47.2969 194H38.3516ZM63.4297 194.312C62.388 194.312 61.4635 194.104 60.6562 193.688C59.849 193.271 59.2109 192.737 58.7422 192.086C58.2995 191.435 58.0781 190.758 58.0781 190.055C58.0781 189.169 58.3646 188.44 58.9375 187.867C59.5104 187.294 60.4479 186.799 61.75 186.383L67.6875 184.391V182.398C67.6875 181.747 67.4922 181.161 67.1016 180.641C66.7109 180.094 66.1901 179.664 65.5391 179.352C64.888 179.039 64.1589 178.883 63.3516 178.883C62.7005 178.883 62.2578 179.026 62.0234 179.312C61.7891 179.573 61.6458 180.107 61.5938 180.914L61.5156 182.555C60.5781 182.763 59.7839 182.737 59.1328 182.477C58.4818 182.19 58.1562 181.734 58.1562 181.109C58.1562 180.667 58.3385 180.224 58.7031 179.781C59.0938 179.339 59.6016 178.922 60.2266 178.531C60.8516 178.115 61.5286 177.763 62.2578 177.477C62.987 177.19 63.7031 176.995 64.4062 176.891C66.3333 176.891 67.8698 177.398 69.0156 178.414C70.1875 179.43 70.7865 180.758 70.8125 182.398L70.7344 188.961C70.7344 189.456 70.7474 189.938 70.7734 190.406C70.8255 190.875 70.8906 191.227 70.9688 191.461L73.4688 191.93V193.141L71.5547 193.844C71.1901 193.974 70.8516 194.078 70.5391 194.156C70.2266 194.26 69.9661 194.312 69.7578 194.312C68.9505 194.312 68.4297 193.857 68.1953 192.945L67.7656 191.422H68.3516C67.4922 192.385 66.6589 193.115 65.8516 193.609C65.0703 194.078 64.263 194.312 63.4297 194.312ZM64.4844 192.008C65.0833 192.008 65.6432 191.878 66.1641 191.617C66.6849 191.331 67.1927 190.901 67.6875 190.328V186.227L63.3125 187.398C62.6875 187.555 62.2318 187.802 61.9453 188.141C61.6849 188.479 61.5547 188.909 61.5547 189.43C61.5547 190.081 61.8411 190.68 62.4141 191.227C63.013 191.747 63.7031 192.008 64.4844 192.008ZM75.3438 194L75.2656 192.555L77.8828 192.008C77.9089 191.904 77.9219 191.721 77.9219 191.461C77.9479 191.201 77.974 190.784 78 190.211C78.026 189.638 78.0391 188.844 78.0391 187.828V185.25C78.0391 184.182 78.013 183.206 77.9609 182.32C77.9089 181.435 77.8438 180.745 77.7656 180.25L75.1484 179.703V178.414L80.6953 176.969L81.2812 177.516C81.2031 178.323 81.138 179.117 81.0859 179.898C81.0599 180.68 81.0469 181.591 81.0469 182.633V187.555C81.0469 188.753 81.0599 189.742 81.0859 190.523C81.138 191.305 81.1901 191.799 81.2422 192.008L83.8594 192.555L83.7812 194H75.3438ZM79.5625 172.555C78.9115 172.555 78.3385 172.333 77.8438 171.891C77.375 171.448 77.1406 170.901 77.1406 170.25C77.1406 169.599 77.375 169.052 77.8438 168.609C78.3385 168.167 78.9115 167.945 79.5625 167.945C80.2396 167.945 80.7995 168.167 81.2422 168.609C81.6849 169.052 81.9062 169.599 81.9062 170.25C81.9062 170.901 81.6849 171.448 81.2422 171.891C80.7995 172.333 80.2396 172.555 79.5625 172.555ZM85.8906 202.594L85.8125 201.188L88.2344 200.602C88.2344 200.471 88.2344 200.237 88.2344 199.898C88.2604 199.586 88.2865 199.169 88.3125 198.648C88.3385 198.128 88.3516 197.503 88.3516 196.773C88.3776 196.044 88.3906 195.198 88.3906 194.234L88.4688 184.586C88.4688 183.805 88.4297 183.01 88.3516 182.203C88.2995 181.396 88.2344 180.745 88.1562 180.25L85.6562 179.703V178.414L90.8906 176.969L91.5547 177.594L91.3594 179.742H91.4766C92.2057 178.805 93 178.102 93.8594 177.633C94.7448 177.138 95.6953 176.891 96.7109 176.891C98.1432 176.891 99.4062 177.255 100.5 177.984C101.62 178.688 102.492 179.664 103.117 180.914C103.768 182.138 104.094 183.557 104.094 185.172C104.094 186.891 103.703 188.44 102.922 189.82C102.141 191.201 101.073 192.294 99.7188 193.102C98.3906 193.883 96.8802 194.273 95.1875 194.273C94.5625 194.273 93.9115 194.208 93.2344 194.078C92.5573 193.948 91.9583 193.792 91.4375 193.609V196.539C91.4375 197.529 91.4505 198.362 91.4766 199.039C91.5286 199.742 91.5677 200.263 91.5938 200.602L94.7969 201.109L94.7188 202.594H85.8906ZM95.3047 192.359C96.3464 192.359 97.2578 192.112 98.0391 191.617C98.8464 191.122 99.4714 190.393 99.9141 189.43C100.383 188.466 100.63 187.294 100.656 185.914C100.682 184.664 100.474 183.557 100.031 182.594C99.6146 181.63 99.0156 180.875 98.2344 180.328C97.4792 179.755 96.6068 179.469 95.6172 179.469C94.8099 179.469 94.0547 179.664 93.3516 180.055C92.6484 180.419 92.0104 180.966 91.4375 181.695V191.148C91.9583 191.539 92.5573 191.839 93.2344 192.047C93.9115 192.255 94.6016 192.359 95.3047 192.359ZM113.391 194.312C112.349 194.312 111.424 194.104 110.617 193.688C109.81 193.271 109.172 192.737 108.703 192.086C108.26 191.435 108.039 190.758 108.039 190.055C108.039 189.169 108.326 188.44 108.898 187.867C109.471 187.294 110.409 186.799 111.711 186.383L117.648 184.391V182.398C117.648 181.747 117.453 181.161 117.062 180.641C116.672 180.094 116.151 179.664 115.5 179.352C114.849 179.039 114.12 178.883 113.312 178.883C112.661 178.883 112.219 179.026 111.984 179.312C111.75 179.573 111.607 180.107 111.555 180.914L111.477 182.555C110.539 182.763 109.745 182.737 109.094 182.477C108.443 182.19 108.117 181.734 108.117 181.109C108.117 180.667 108.299 180.224 108.664 179.781C109.055 179.339 109.562 178.922 110.188 178.531C110.812 178.115 111.49 177.763 112.219 177.477C112.948 177.19 113.664 176.995 114.367 176.891C116.294 176.891 117.831 177.398 118.977 178.414C120.148 179.43 120.747 180.758 120.773 182.398L120.695 188.961C120.695 189.456 120.708 189.938 120.734 190.406C120.786 190.875 120.852 191.227 120.93 191.461L123.43 191.93V193.141L121.516 193.844C121.151 193.974 120.812 194.078 120.5 194.156C120.188 194.26 119.927 194.312 119.719 194.312C118.911 194.312 118.391 193.857 118.156 192.945L117.727 191.422H118.312C117.453 192.385 116.62 193.115 115.812 193.609C115.031 194.078 114.224 194.312 113.391 194.312ZM114.445 192.008C115.044 192.008 115.604 191.878 116.125 191.617C116.646 191.331 117.154 190.901 117.648 190.328V186.227L113.273 187.398C112.648 187.555 112.193 187.802 111.906 188.141C111.646 188.479 111.516 188.909 111.516 189.43C111.516 190.081 111.802 190.68 112.375 191.227C112.974 191.747 113.664 192.008 114.445 192.008ZM125.305 194L125.227 192.555L127.844 192.008C127.87 191.904 127.883 191.721 127.883 191.461C127.909 191.201 127.935 190.784 127.961 190.211C127.987 189.638 128 188.844 128 187.828V185.25C128 184.182 127.974 183.206 127.922 182.32C127.87 181.435 127.805 180.745 127.727 180.25L125.109 179.703V178.414L130.656 176.969L131.242 177.516C131.164 178.323 131.099 179.117 131.047 179.898C131.021 180.68 131.008 181.591 131.008 182.633V187.555C131.008 188.753 131.021 189.742 131.047 190.523C131.099 191.305 131.151 191.799 131.203 192.008L133.82 192.555L133.742 194H125.305ZM129.523 172.555C128.872 172.555 128.299 172.333 127.805 171.891C127.336 171.448 127.102 170.901 127.102 170.25C127.102 169.599 127.336 169.052 127.805 168.609C128.299 168.167 128.872 167.945 129.523 167.945C130.201 167.945 130.76 168.167 131.203 168.609C131.646 169.052 131.867 169.599 131.867 170.25C131.867 170.901 131.646 171.448 131.203 171.891C130.76 172.333 130.201 172.555 129.523 172.555Z" fill="black"/>
<path d="M60.9027 49.2984C60.9027 49.2984 66.1756 57.7445 60.9549 62.453C55.7342 67.1614 40.2777 79.4447 44.7771 101.349C49.2766 123.253 56.5532 136.05 91.2529 136.869C125.953 137.688 136.394 116.805 137.622 104.112C138.851 91.4196 138.128 73.3022 123.497 64.1921C123.497 64.1921 115.513 60.3027 118.482 52.7328C121.451 45.163 120.734 45.0568 118.482 45.1579C116.231 45.259 108.245 45.2607 103.946 45.1579C99.6468 45.0551 99.6468 45.1579 99.6468 45.1579C99.6468 45.1579 88.0797 45.8758 84.8053 45.8758C81.531 45.8758 64.6404 46.0797 64.6404 46.0797C64.6404 46.0797 59.113 45.2556 60.9027 49.2984Z" stroke="black" stroke-width="5.89815" stroke-miterlimit="10"/>
</svg>