<svg width="185" height="248" viewBox="0 0 185 248" fill="none" xmlns="http://www.w3.org/2000/svg">
<path d="M92.9692 123.786C93.0427 127.965 93.3309 132.126 93.594 136.295" stroke="black" stroke-width="10" stroke-miterlimit="1.5" stroke-linecap="round" stroke-linejoin="round"/>
<path d="M76 145.805C78.9456 145.726 81.8696 145.479 84.808 145.314" stroke="black" stroke-width="10" stroke-miterlimit="1.5" stroke-linecap="round" stroke-linejoin="round"/>
<path d="M102.505 145.744C105.078 145.26 107.642 144.769 110.206 144.245" stroke="black" stroke-width="10" stroke-miterlimit="1.5" stroke-linecap="round" stroke-linejoin="round"/>
<path d="M95.0894 154.49C94.7947 158.55 94.4857 162.85 94.9681 166.921" stroke="black" stroke-width="10" stroke-miterlimit="1.5" stroke-linecap="round" stroke-linejoin="round"/>
<path d="M118.656 221.356C120.913 221.14 123.276 221.125 125.509 220.702" stroke="black" stroke-width="10" stroke-miterlimit="1.5" stroke-linecap="round" stroke-linejoin="round"/>
<path d="M134.891 197.465C134.591 201.622 135.097 205.759 135.2 209.92" stroke="black" stroke-width="10" stroke-miterlimit="1.5" stroke-linecap="round" stroke-linejoin="round"/>
<path d="M135.361 229.88C135.347 233.941 135.036 238.657 135.778 242.673" stroke="black" stroke-width="10" stroke-miterlimit="1.5" stroke-linecap="round" stroke-linejoin="round"/>
<path d="M147.641 219.964C150.823 219.833 153.878 219.55 157.025 219.115" stroke="black" stroke-width="10" stroke-miterlimit="1.5" stroke-linecap="round" stroke-linejoin="round"/>
<path d="M155.454 85C155.718 89.2533 156.102 93.486 156.208 97.7475" stroke="black" stroke-width="10" stroke-miterlimit="1.5" stroke-linecap="round" stroke-linejoin="round"/>
<path d="M136.682 111.451C139.98 110.963 143.321 110.801 146.605 110.33" stroke="black" stroke-width="10" stroke-miterlimit="1.5" stroke-linecap="round" stroke-linejoin="round"/>
<path d="M157.619 119.207C158.367 124.583 158.503 130.688 160.001 135.931" stroke="black" stroke-width="10" stroke-miterlimit="1.5" stroke-linecap="round" stroke-linejoin="round"/>
<path d="M169.847 107.991C173.097 107.623 176.351 107.562 179.603 107.279" stroke="black" stroke-width="10" stroke-miterlimit="1.5" stroke-linecap="round" stroke-linejoin="round"/>
<path fill-rule="evenodd" clip-rule="evenodd" d="M59.2732 123.51C53.157 122.72 47.1647 121.661 40.9762 121.286C42.4027 118.574 50.2686 99.6608 52.8467 93.0026C47.2344 92.9893 41.6116 93.0066 36.0219 93.5411C31.7421 93.9503 27.5737 95.0348 23.2554 95.0195C15.7013 108.618 7.67953 123.816 4 139.095C10.1143 139.635 16.1815 139.09 22.2686 138.521C20.0342 150.349 14.9989 163.814 13.7568 175.756C20.4368 171.478 53.86 133.074 59.2732 123.51Z" stroke="black" stroke-width="7" stroke-miterlimit="1.5" stroke-linecap="round" stroke-linejoin="round"/>
<path fill-rule="evenodd" clip-rule="evenodd" d="M79.4103 91.8827C80.9085 80.0653 81.4616 66.2459 84.5799 54.7214C89.494 52.8543 107.949 44.8383 112 42.4082C102.041 41.2558 91.4624 41.3305 81.7792 38.6046C80.1271 31.5975 79.462 24.3433 77.7689 17.3812C76.6869 12.9315 74.9885 8.55703 74.3768 4C72.1593 16.4297 70.4265 28.9687 68.8031 41.4877C58.8013 44.09 48.5548 48.3965 39 52.4247C48.9634 55.3395 59.3167 54.3084 69.352 56.3283C72.28 69.4136 76.0804 80.6628 79.4103 91.8827Z" fill="white" stroke="black" stroke-width="7" stroke-miterlimit="1.5" stroke-linecap="round" stroke-linejoin="round"/>
<path d="M47.7373 19.9422C51.5709 23.4386 55.2152 27.0968 58.5715 31.0512" stroke="black" stroke-width="7" stroke-miterlimit="1.5" stroke-linecap="round" stroke-linejoin="round"/>
<path d="M63.2918 64.9326C61.2184 67.9921 59.2696 71.2506 57.0259 74.1889" stroke="black" stroke-width="7" stroke-miterlimit="1.5" stroke-linecap="round" stroke-linejoin="round"/>
<path d="M90.4497 63.172C94.3285 66.2006 98.2616 70.2529 101.381 74.0719" stroke="black" stroke-width="7" stroke-miterlimit="1.5" stroke-linecap="round" stroke-linejoin="round"/>
<path d="M87.8789 29.9761C90.7379 25.9827 93.6638 22.0431 96.6775 18.2039" stroke="black" stroke-width="7" stroke-miterlimit="1.5" stroke-linecap="round" stroke-linejoin="round"/>
</svg>