<svg width="220" height="164" viewBox="0 0 220 164" fill="none" xmlns="http://www.w3.org/2000/svg">
<path d="M4.60645 12.7502C6.34625 10.4971 8.19484 8.74625 10.668 7.33287C28.4664 -2.83729 38.7245 18.9329 54.0579 23.3525C63.7712 26.1525 77.7101 22.2723 77.1933 9.75851" stroke="black" stroke-width="8" stroke-miterlimit="1.5" stroke-linecap="round" stroke-linejoin="round"/>
<path d="M15.7637 28.7263C23.8307 22.9188 30.0408 28.4364 36.6072 33.2527C45.1063 39.4861 55.4872 45.4942 65.9052 39.6322" stroke="black" stroke-width="8" stroke-miterlimit="1.5" stroke-linecap="round" stroke-linejoin="round"/>
<path fill-rule="evenodd" clip-rule="evenodd" d="M123.137 63.0391C37.1491 119.149 32.7397 118.445 10.4974 98.336C16.8617 112.854 16.2795 131.092 6 145.388C10.2172 145.4 14.1216 143.797 18.3948 144.12C32.2315 145.164 42.4605 150.338 51.5759 159.187C40.9353 135.284 43.0825 121.336 123.137 63.0391Z" fill="white" stroke="black" stroke-width="9" stroke-miterlimit="1.5" stroke-linecap="round" stroke-linejoin="round"/>
<path d="M109.267 52.0616C116.219 47.2554 122.804 41.854 129.559 36.7777L109.267 52.0616ZM129.558 36.7745C134.573 33.0052 140.897 29.652 145.13 24.9907Z" fill="white"/>
<path d="M129.558 36.7745C134.573 33.0052 140.897 29.652 145.13 24.9907M109.267 52.0616C116.219 47.2554 122.804 41.854 129.559 36.7777L109.267 52.0616Z" stroke="black" stroke-width="9" stroke-miterlimit="1.5" stroke-linecap="round" stroke-linejoin="round"/>
<path d="M156.509 40.749C172.942 29.5053 189.216 17.1519 205 5.00009Z" fill="white"/>
<path d="M156.509 40.749C172.942 29.5053 189.216 17.1519 205 5.00009" stroke="black" stroke-width="9" stroke-miterlimit="1.5" stroke-linecap="round" stroke-linejoin="round"/>
<path d="M125.189 88.3436C121.934 91.6832 118.881 96.3348 118.672 101.153" stroke="black" stroke-width="7" stroke-miterlimit="1.5" stroke-linecap="round" stroke-linejoin="round"/>
<path d="M118 110.413C118.161 112.975 117.995 115.28 118.911 117.748C123.774 130.864 143.542 121.758 150.881 117.38C176.669 101.999 199.474 80.2895 216 55.1626" stroke="black" stroke-width="7" stroke-miterlimit="1.5" stroke-linecap="round" stroke-linejoin="round"/>
<path d="M136.179 89.9406C132.078 93.6935 126.474 109.101 136.635 109.016C139.203 108.994 142.025 107.591 144.25 106.452C160.151 98.3084 174.707 82.829 185.834 68.9795" stroke="black" stroke-width="7" stroke-miterlimit="1.5" stroke-linecap="round" stroke-linejoin="round"/>
<path d="M195.377 54C193.577 56.7433 191.867 59.5252 189.854 62.1172" stroke="black" stroke-width="7" stroke-miterlimit="1.5" stroke-linecap="round" stroke-linejoin="round"/>
</svg>