<svg version="1.1" id="svg2" xmlns:dc="http://purl.org/dc/elements/1.1/" xmlns:cc="http://creativecommons.org/ns#" xmlns:rdf="http://www.w3.org/1999/02/22-rdf-syntax-ns#" xmlns:svg="http://www.w3.org/2000/svg" xmlns:sodipodi="http://sodipodi.sourceforge.net/DTD/sodipodi-0.dtd" xmlns:inkscape="http://www.inkscape.org/namespaces/inkscape" sodipodi:docname="Open_Access_logo_PLoS_transparent.svg" inkscape:version="0.47 r22583" xmlns="http://www.w3.org/2000/svg" xmlns:xlink="http://www.w3.org/1999/xlink" x="0px" y="0px" width="640px" height="1000px" viewBox="0 0 640 1000" enable-background="new 0 0 640 1000" xml:space="preserve">
<defs>
	
	
		<inkscape:perspective id="perspective18" inkscape:vp_z="640 : 500 : 1" inkscape:vp_y="0 : 1000 : 0" inkscape:vp_x="0 : 500 : 1" sodipodi:type="inkscape:persp3d" inkscape:persp3d-origin="320 : 333.33333 : 1">
		</inkscape:perspective>
</defs>
<sodipodi:namedview inkscape:cy="500" inkscape:cx="320" inkscape:zoom="0.236" showgrid="false" guidetolerance="10" gridtolerance="10" objecttolerance="10" borderopacity="1" bordercolor="#666666" pagecolor="#ffffff" id="namedview14" inkscape:current-layer="svg2" inkscape:window-maximized="0" inkscape:window-y="0" inkscape:window-x="0" inkscape:window-height="484" inkscape:window-width="640" inkscape:pageshadow="2" inkscape:pageopacity="0">
	</sodipodi:namedview>
<path id="path8" fill="#808080" d="M59.004,272.408V546.5h104.765V272.408c0-86.48,70.36-156.833,156.829-156.833  c86.468,0,156.825,70.354,156.825,156.833v258.427h104.764V272.408c0-144.24-117.354-261.593-261.589-261.593  C176.365,10.814,59.004,128.168,59.004,272.408"/>
<path id="path10" fill="#808080" d="M407.438,681.658c0,47.724-38.693,86.416-86.428,86.416c-47.731,0-86.428-38.692-86.428-86.416  c0-47.752,38.696-86.448,86.428-86.448C368.744,595.21,407.438,633.906,407.438,681.658"/>
<path id="path12" fill="#808080" d="M116.295,680.726c0-112.325,91.388-203.704,203.709-203.704  c112.316,0,203.691,91.379,203.691,203.704c0,112.313-91.375,203.708-203.691,203.708  C207.683,884.434,116.295,793.038,116.295,680.726 M11.535,680.726c0,170.068,138.392,308.46,308.469,308.46  c170.08,0,308.46-138.392,308.46-308.46c0-170.093-138.38-308.469-308.46-308.469C149.927,372.257,11.535,510.633,11.535,680.726"/>
</svg>