<svg width="148" height="155" viewBox="0 0 148 155" fill="none" xmlns="http://www.w3.org/2000/svg">
<path fill-rule="evenodd" clip-rule="evenodd" d="M71.3812 97.6723C72.876 96.8531 85.3205 96.7656 86.1431 97.5032C86.4871 97.8117 86.1431 99.8833 86.1431 100.351C86.1431 102.865 86.1431 106.692 86.3755 108.13C94.2479 111.725 96.7891 117.286 98.8234 122.467C101.017 128.053 103.555 133.954 104.426 140.983C104.785 143.877 106.273 151.934 102.334 153.346C97.3889 155.12 88.9793 154.318 83.5866 154.318C81.2418 154.318 78.8697 154.238 76.5368 154.388C72.3932 154.653 56.954 154.536 55.7883 151.829C54.7547 149.429 54.4046 143.319 56.8435 135.01C58.6613 128.817 58.7652 122.285 61.9724 116.534C63.3096 114.137 65.9078 111.267 68.2475 109.589C69.0834 108.989 70.2644 108.614 70.9589 107.991C72.204 106.875 69.6638 98.6136 71.3812 97.6723Z" fill="black"/>
<path d="M63.6479 70.6296C60.233 48.6802 55.1714 26.924 51.4511 5C36.7219 25.3214 20.4148 44.68 5 64.4764" stroke="black" stroke-width="9" stroke-miterlimit="1.5" stroke-linecap="round" stroke-linejoin="round"/>
<path d="M40.959 89.0118C39.5582 79.2017 37.817 69.4562 36.6533 59.6111C30.7286 68.9128 23.9196 77.5259 17.7529 86.662" stroke="black" stroke-width="9" stroke-miterlimit="1.5" stroke-linecap="round" stroke-linejoin="round"/>
<path fill-rule="evenodd" clip-rule="evenodd" d="M122.942 96.7668C123.978 88.5956 124.36 79.0401 126.516 71.0714C129.914 69.7805 142.675 64.2377 145.476 62.5575C138.59 61.7606 131.275 61.8123 124.58 59.9274C123.437 55.0824 122.978 50.0665 121.807 45.2525C121.059 42.1757 119.884 39.151 119.461 36C117.928 44.5946 116.73 53.2647 115.607 61.921C108.692 63.7203 101.607 66.6981 95 69.4834C101.889 71.4988 109.048 70.7859 115.987 72.1825C118.012 81.2304 120.639 89.0087 122.942 96.7668Z" fill="white" stroke="black" stroke-width="5" stroke-miterlimit="1.5" stroke-linecap="round" stroke-linejoin="round"/>
<path d="M101.041 47.0233C103.692 49.4409 106.212 51.9703 108.532 54.7047L101.041 47.0233Z" fill="white"/>
<path d="M101.041 47.0233C103.692 49.4409 106.212 51.9703 108.532 54.7047" stroke="black" stroke-width="5" stroke-miterlimit="1.5" stroke-linecap="round" stroke-linejoin="round"/>
<path d="M111.796 78.1321C110.363 80.2477 109.015 82.5007 107.464 84.5324L111.796 78.1321Z" fill="white"/>
<path d="M111.796 78.1321C110.363 80.2477 109.015 82.5007 107.464 84.5324" stroke="black" stroke-width="5" stroke-miterlimit="1.5" stroke-linecap="round" stroke-linejoin="round"/>
<path d="M130.575 76.9146C133.257 79.0088 135.977 81.8107 138.133 84.4514L130.575 76.9146Z" fill="white"/>
<path d="M130.575 76.9146C133.257 79.0088 135.977 81.8107 138.133 84.4514" stroke="black" stroke-width="5" stroke-miterlimit="1.5" stroke-linecap="round" stroke-linejoin="round"/>
<path d="M128.798 53.9612C130.775 51.2 132.798 48.476 134.882 45.8213L128.798 53.9612Z" fill="white"/>
<path d="M128.798 53.9612C130.775 51.2 132.798 48.476 134.882 45.8213" stroke="black" stroke-width="5" stroke-miterlimit="1.5" stroke-linecap="round" stroke-linejoin="round"/>
</svg>